<svg width="287" height="424" viewBox="0 0 287 424" fill="none" xmlns="http://www.w3.org/2000/svg">
<path d="M120.327 140.775C160.727 103.192 224.002 135.792 200.356 169.774C181.939 196.226 148.253 207.237 134.429 211.331C120.593 215.438 96.4635 199.288 97.9219 199.264C99.3802 199.24 79.9276 178.359 120.327 140.775Z" fill="black"/>
<path d="M181.856 86C181.856 86 179.647 102.049 189.5 117.108C179.612 122.796 167.748 127.053 160.127 116.68C151.209 104.545 181.856 86 181.856 86Z" fill="black"/>
<path d="M175.5 103C175.5 103 174.291 174.964 168.558 192.768C119.117 222.61 110.5 192.647 110.5 192.647L116.4 149.924C117.454 125.307 175.5 103.012 175.5 103.012V103Z" fill="white"/>
<path d="M175.5 103L173.862 197L115.5 153.489L116.03 150.048C117.09 125.359 175.5 103 175.5 103Z" fill="black"/>
<path d="M130 149C107.647 149 89.5 130.855 89.5 108.506V63.8072C89.5 51.7711 99.2725 42 111.31 42H148.69C160.727 42 170.5 51.7711 170.5 63.8072V108.506C170.5 130.855 152.353 149 130 149Z" fill="white" stroke="black" stroke-width="4"/>
<path d="M149.5 54C149.681 56.5688 157.925 90.1643 167.982 95.5387C176.698 100.191 182.5 68.1224 182.5 68.1224L149.5 54Z" fill="black"/>
<path d="M233.227 203.121C216.457 183.7 178.526 173.405 178.526 173.405C178.526 173.405 178.469 161.681 176.274 156C176.274 156 143.985 176.017 125.831 197.593C123.565 194.379 107.076 169.422 107.076 169.422C83.1066 169.422 56.9851 203.128 48.7105 243.06C30.7737 329.619 30.9992 422 30.9992 422C30.9992 422 164.276 422 232.597 422L230.251 378.199C234.755 379.055 239.093 379.744 243.213 380.266C252.323 381.391 282.649 385.504 286.444 355.077C288.493 290.965 233.249 203.114 233.249 203.114L233.227 203.128V203.121Z" fill="black"/>
<path d="M168.53 98.8235C168.53 98.8235 167.35 80.7297 179.681 83.2388C189.184 85.1707 187.5 98.9295 182.229 103.217C176.958 107.505 169.699 108 169.699 108L168.53 98.8235Z" fill="white" stroke="black" stroke-width="4"/>
<path d="M166.532 99.1906C166.532 99.1906 165.286 81.8205 178.302 84.2292C188.333 86.0838 186.556 99.2923 180.992 103.409C175.428 107.525 167 108.5 167 108.5L166.532 99.1906Z" fill="white"/>
<path d="M138.226 2C143.457 2 148.679 2.77584 153.786 4.2908L154.805 4.60349L154.809 4.60469C179.464 12.4571 193.824 35.9588 186.653 58.4219L186.65 58.4349L186.645 58.4478L180.248 77.7168L179.491 80L177.206 79.2454L92.3224 51.2262L92.7801 49.844L90.5 49.1917L95.9926 30.0423L96.0022 30.0082L96.013 29.9741C101.398 13.1066 118.511 2 138.226 2Z" fill="#FF0077" stroke="black" stroke-width="4"/>
<path d="M128 112C136.009 112 142.5 103.494 142.5 93C142.5 82.5064 136.009 74 128 74C119.992 74 113.5 82.5064 113.5 93C113.5 103.494 119.992 112 128 112Z" fill="white" stroke="black" stroke-width="4"/>
<path d="M95.5 112C101.576 112 106.5 103.494 106.5 93C106.5 82.5064 101.576 74 95.5 74C89.4245 74 84.5 82.5064 84.5 93C84.5 103.494 89.4245 112 95.5 112Z" fill="white" stroke="black" stroke-width="4"/>
<path d="M192.084 234L215.16 295.914C216.542 299.616 213.515 303.463 209.623 302.955L137.5 293.555" stroke="white" stroke-width="4" stroke-linecap="round"/>
<path d="M113.5 192C113.5 192 109 211.816 113.5 228" stroke="white" stroke-width="4" stroke-linecap="round"/>
<path d="M135.5 192C135.5 192 131 211.816 135.5 228" stroke="white" stroke-width="4" stroke-linecap="round"/>
<path d="M156.5 73L200.5 86" stroke="black" stroke-width="4" stroke-linecap="round"/>
<path d="M105.83 31.2092C124.323 33.6675 134.172 50.7551 132.267 62.5645C132.315 63.396 108.916 70.6629 98.9106 66.9509C99.3808 65.6495 100.008 64.4685 100.743 63.3719C94.4623 65.6856 88.2902 66.734 83.2753 61.3113C71.6302 66.2399 61.6607 68.1319 54.5 46.5615C64.578 52.9603 86.1323 28.5822 105.83 31.1971V31.2092Z" fill="black"/>
<g clip-path="url(#clip0_556_567)">
<path d="M87.1597 273.333C91.3396 273.333 94.9122 276.536 95.6633 280.952L103.05 324.351C103.514 327.071 102.828 329.843 101.189 331.97C99.5428 334.097 97.1198 335.31 94.5465 335.31H79.0283V273.34H87.1597V273.333Z" stroke="white" stroke-width="4"/>
<path d="M64.4055 243.32C71.3939 243.32 77.9839 249.282 79.0289 255.394L78.3757 258.33C79.4599 264.625 74.3982 262.381 67.0833 262.381C60.9701 262.381 55.6994 261.082 53.7204 256.992C51.9113 257.345 49.9127 257.514 47.8032 257.514C45.0797 257.514 42.4998 257.234 40.2008 256.64C39.3257 263.026 32.5071 265.72 24.0296 265.72C14.5593 265.72 6.62393 263.705 6.88518 255.199C7.14643 246.692 14.1087 240.306 23.0173 240.306C25.2248 240.306 27.3605 240.684 29.3264 241.369C30.3649 241.728 31.4752 241.278 32.0172 240.326C34.4142 236.125 39.4628 233.313 45.465 233.313C52.3032 233.313 58.6058 236.953 61.4599 242.146C61.891 242.935 62.7204 243.392 63.6217 243.339C63.883 243.326 64.1442 243.32 64.4055 243.32Z" fill="white" stroke="black" stroke-width="4" stroke-miterlimit="10" stroke-linecap="round"/>
<path d="M25.5312 234.866C28.4442 234.866 30.8085 232.504 30.8085 229.595C30.8085 226.686 28.4442 224.324 25.5312 224.324C22.6183 224.324 20.254 226.686 20.254 229.595C20.254 232.504 22.6183 234.866 25.5312 234.866Z" fill="white" stroke="black" stroke-width="4" stroke-miterlimit="10" stroke-linecap="round"/>
<path d="M32.9965 218.675C34.2048 218.675 35.1845 217.697 35.1845 216.49C35.1845 215.283 34.2048 214.305 32.9965 214.305C31.7883 214.305 30.8086 215.283 30.8086 216.49C30.8086 217.697 31.7883 218.675 32.9965 218.675Z" fill="white" stroke="black" stroke-width="4" stroke-miterlimit="10" stroke-linecap="round"/>
<path d="M48.2003 228.264C50.0813 228.264 51.6096 226.738 51.6096 224.859C51.6096 222.981 50.0813 221.454 48.2003 221.454C46.3193 221.454 44.791 222.981 44.791 224.859C44.791 226.738 46.3193 228.264 48.2003 228.264Z" fill="white" stroke="black" stroke-width="4" stroke-miterlimit="10" stroke-linecap="round"/>
<path d="M79.0673 256.34H6.81262V335.329H79.0673V256.34Z" fill="#FF0077" stroke="black" stroke-width="4"/>
<path d="M6.81262 256.379V269.367H13.0238C17.1972 269.367 20.6784 272.72 20.7959 276.927C20.9592 282.668 25.7923 287.429 31.5855 287.429C37.3787 287.429 41.7219 282.668 41.2909 276.927C41.1341 274.801 42.7212 273.091 44.8373 273.091H79.0739V256.373H6.81262V256.379Z" fill="white" stroke="black" stroke-width="4"/>
<path d="M6.81293 335.329H79.0676V343.125C79.0676 346.197 76.5662 348.695 73.49 348.695H12.384C9.30785 348.695 6.8064 346.197 6.8064 343.125V335.329H6.81293Z" fill="white" stroke="black" stroke-width="4" stroke-miterlimit="10" stroke-linecap="round"/>
</g>
<path d="M91.5068 287.801C91.1435 284.058 94.595 281.083 98.248 281.995L98.249 281.996L139.11 292.178L140.416 323.971L98.1006 323.052H98.1016C96.3638 323.012 94.9087 321.69 94.7061 319.937C94.2832 316.271 92.6153 299.215 91.5068 287.801Z" fill="white" stroke="black" stroke-width="4" stroke-linejoin="round"/>
<path d="M2 421.5H263" stroke="black" stroke-width="4" stroke-linecap="round"/>
<defs>
<clipPath id="clip0_556_567">
<rect width="99" height="137" fill="white" transform="translate(5.5 213)"/>
</clipPath>
</defs>
</svg>
