<svg width="360" height="305" viewBox="0 0 360 305" fill="none" xmlns="http://www.w3.org/2000/svg">
<path d="M139.24 54.4802L138.46 18.1602H84.4404L83.6604 54.4802C82.7904 71.2802 76.7804 87.4102 66.4604 100.69C55.2404 115.12 49.1504 132.88 49.1504 151.16V290.28C49.1504 296.92 54.5304 302.31 61.1804 302.31H161.73C168.37 302.31 173.76 296.93 173.76 290.28V151.16C173.76 132.88 167.67 115.12 156.45 100.69C146.12 87.4102 140.12 71.2802 139.25 54.4802H139.24Z" fill="#FF0077" stroke="black" stroke-width="4"/>
<path d="M103.03 148.28H173.76V283.61H103.03C96.8002 283.61 91.7402 278.55 91.7402 272.32V159.58C91.7402 153.35 96.8002 148.29 103.03 148.29V148.28Z" fill="white" stroke="black" stroke-width="4" stroke-miterlimit="10" stroke-linecap="round"/>
<path d="M83.3604 58.47H138.97" stroke="black" stroke-width="4" stroke-miterlimit="10" stroke-linecap="round"/>
<path d="M138.97 18.74H85.1504V58.47H138.97V18.74Z" fill="black"/>
<path d="M2 302.27H357.03" stroke="black" stroke-width="4" stroke-miterlimit="10" stroke-linecap="round"/>
<path d="M142.65 18.16H79.6705C78.2905 18.16 77.2205 16.96 77.3705 15.6L79.6405 4.03C79.8905 1.74 81.8305 0 84.1405 0H138.17C140.48 0 142.411 1.74 142.671 4.03L144.94 15.6C145.09 16.97 144.021 18.16 142.641 18.16H142.65Z" fill="black"/>
<path d="M83.5908 18.1599C83.5908 14.1399 86.8508 10.8799 90.8708 10.8799C94.8908 10.8799 98.1508 14.1399 98.1508 18.1599" fill="white"/>
<path d="M103.881 18.1599C103.881 14.1399 107.141 10.8799 111.161 10.8799C115.181 10.8799 118.441 14.1399 118.441 18.1599" fill="white"/>
<path d="M124.181 18.1599C124.181 14.1399 127.441 10.8799 131.461 10.8799C135.481 10.8799 138.741 14.1399 138.741 18.1599" fill="white"/>
<path d="M323.525 186C329.921 186 335.396 190.914 336.545 197.678L347.852 264.206C348.564 268.372 347.515 272.628 345 275.884C342.475 279.14 338.773 281 334.832 281H311.07V186H323.525Z" stroke="black" stroke-width="4"/>
<path d="M288.68 139.99C299.38 139.99 309.47 149.13 311.07 158.5L310.07 163C311.73 172.65 303.98 169.21 292.78 169.21C283.42 169.21 275.35 167.22 272.32 160.95C269.55 161.49 266.49 161.75 263.26 161.75C259.09 161.75 255.14 161.32 251.62 160.41C250.28 170.2 239.84 174.33 226.86 174.33C212.36 174.33 200.21 171.24 200.61 158.2C201.01 145.16 211.67 135.37 225.31 135.37C228.69 135.37 231.96 135.95 234.97 137C236.56 137.55 238.26 136.86 239.09 135.4C242.76 128.96 250.49 124.65 259.68 124.65C270.15 124.65 279.8 130.23 284.17 138.19C284.83 139.4 286.1 140.1 287.48 140.02C287.88 140 288.28 139.99 288.68 139.99Z" fill="white" stroke="black" stroke-width="4" stroke-miterlimit="10" stroke-linecap="round"/>
<path d="M229.16 127.03C233.623 127.03 237.24 123.413 237.24 118.95C237.24 114.488 233.623 110.87 229.16 110.87C224.698 110.87 221.08 114.488 221.08 118.95C221.08 123.413 224.698 127.03 229.16 127.03Z" fill="white" stroke="black" stroke-width="4" stroke-miterlimit="10" stroke-linecap="round"/>
<path d="M240.59 102.21C242.44 102.21 243.94 100.71 243.94 98.86C243.94 97.0099 242.44 95.51 240.59 95.51C238.74 95.51 237.24 97.0099 237.24 98.86C237.24 100.71 238.74 102.21 240.59 102.21Z" fill="white" stroke="black" stroke-width="4" stroke-miterlimit="10" stroke-linecap="round"/>
<path d="M263.87 116.91C266.753 116.91 269.09 114.573 269.09 111.69C269.09 108.807 266.753 106.47 263.87 106.47C260.987 106.47 258.65 108.807 258.65 111.69C258.65 114.573 260.987 116.91 263.87 116.91Z" fill="white" stroke="black" stroke-width="4" stroke-miterlimit="10" stroke-linecap="round"/>
<path d="M311.13 159.95H200.5V281.04H311.13V159.95Z" fill="#FF0077" stroke="black" stroke-width="4"/>
<path d="M200.5 160.01V179.92H210.01C216.4 179.92 221.73 185.06 221.91 191.51C222.16 200.31 229.56 207.61 238.43 207.61C247.3 207.61 253.95 200.31 253.29 191.51C253.05 188.25 255.48 185.63 258.72 185.63H311.14V160H200.51L200.5 160.01Z" fill="white" stroke="black" stroke-width="4"/>
<path d="M200.5 281.04H311.13V292.99C311.13 297.7 307.3 301.53 302.59 301.53H209.03C204.32 301.53 200.49 297.7 200.49 292.99V281.04H200.5Z" fill="white" stroke="black" stroke-width="4" stroke-miterlimit="10" stroke-linecap="round"/>
</svg>
