<svg width="440" height="339" viewBox="0 0 440 339" fill="none" xmlns="http://www.w3.org/2000/svg">
<path d="M209.571 79.4141H192.771V35.5441C192.771 26.0241 198.491 17.6141 207.351 14.1241L237.321 2.30413C239.551 1.42413 242.071 2.52413 242.951 4.75413L245.931 12.3041C246.811 14.5341 245.711 17.0541 243.481 17.9341L213.511 29.7541C211.131 30.6941 209.561 32.9941 209.561 35.5541V79.4241L209.571 79.4141Z" fill="white" stroke="black" stroke-width="4" stroke-miterlimit="10"/>
<path d="M135 214.994L131 159.494C131 159.494 103.377 161.292 82.5 161.494C59.1284 161.72 17.5 172.494 17.5 172.494L25.5 212.994L135 214.994Z" fill="black"/>
<path d="M111.841 130.438C112.082 128.877 113.493 127.771 115.066 127.908L126.282 128.887C127.959 129.034 129.188 130.532 129.002 132.206L119.946 214.084C119.831 215.127 119.178 216.034 118.226 216.475L102.083 223.958C99.91 224.965 97.4906 223.145 97.8571 220.777L111.841 130.438Z" fill="white" stroke="black" stroke-width="4" stroke-miterlimit="10"/>
<path d="M63.9985 116.746C63.9229 115.043 62.4451 113.745 60.7464 113.89L45.4099 115.198C43.7548 115.34 42.5296 116.799 42.6767 118.453L51.2168 214.466C51.3459 215.916 52.4982 217.065 53.9494 217.189L65.1058 218.143C66.9101 218.297 68.4388 216.83 68.3585 215.021L63.9985 116.746Z" fill="white" stroke="black" stroke-width="4" stroke-miterlimit="10"/>
<path d="M139.032 159.516C139.21 157.699 137.739 156.145 135.915 156.225L123.924 156.749C122.418 156.815 121.194 157.989 121.066 159.492L116.425 213.986C116.284 215.637 117.508 217.089 119.158 217.23L130.289 218.182C131.925 218.322 133.369 217.12 133.53 215.486L139.032 159.516Z" fill="white" stroke="black" stroke-width="4" stroke-miterlimit="10"/>
<path d="M73.0078 121.277C72.8429 119.512 74.235 117.99 76.007 117.998L89.4743 118.053C91.0492 118.059 92.351 119.282 92.4554 120.854L98.5073 211.913C98.6186 213.589 97.3332 215.029 95.656 215.109L84.7024 215.628C83.1008 215.704 81.7225 214.507 81.5733 212.911L73.0078 121.277Z" fill="white" stroke="black" stroke-width="4" stroke-miterlimit="10"/>
<path d="M60.3186 153.171C60.1623 151.122 62.0664 149.526 64.057 150.038L75.4192 152.959C76.6633 153.279 77.5657 154.356 77.6634 155.637L82.0749 213.493C82.1957 215.077 81.0606 216.481 79.4863 216.694L68.4621 218.187C66.7519 218.419 65.1993 217.164 65.0681 215.443L60.3186 153.171Z" fill="white" stroke="black" stroke-width="4" stroke-miterlimit="10"/>
<path d="M41.7378 142.507C41.0634 140.18 38.0515 139.571 36.5259 141.453L27.9874 151.986C27.3688 152.749 27.163 153.767 27.4364 154.71L42.405 206.363C42.8661 207.954 44.5301 208.871 46.1214 208.409L56.8184 205.309C58.4098 204.848 59.326 203.184 58.8647 201.593L41.7378 142.507Z" fill="white" stroke="black" stroke-width="4" stroke-miterlimit="10"/>
<path d="M112.069 155.896C112.358 153.635 110.119 151.891 107.997 152.724L95.6035 157.588C94.547 158.002 93.815 158.978 93.7119 160.108L89.042 211.331C88.8917 212.979 90.1049 214.438 91.753 214.59L101.544 215.497C103.154 215.646 104.592 214.493 104.797 212.89L112.069 155.896Z" fill="white" stroke="black" stroke-width="4" stroke-miterlimit="10"/>
<path d="M170.18 174.824C165.19 196.254 136.34 212.694 101.48 212.694C66.62 212.694 37.77 196.254 32.78 174.824H19.67L44.04 336.674H169.57L183.28 174.824H170.17H170.18Z" fill="#FF0077" stroke="black" stroke-width="4"/>
<path d="M172.18 132.114L186.44 147.344L173.83 206.344L157.08 202.764L172.18 132.114Z" fill="white"/>
<path d="M138.89 100.624L155.45 113.324L151.4 200.864L134.29 200.074L138.89 100.624Z" fill="white"/>
<path d="M231.73 266.374L402.03 263.334C409.34 263.204 415.25 269.284 414.9 276.584L413.99 295.924C413.67 302.674 408.1 307.994 401.34 307.994H233.61C227.12 307.994 221.67 303.084 221.01 296.624L219.34 280.314C218.59 272.944 224.3 266.504 231.71 266.364L231.73 266.374Z" fill="#FF0077" stroke="black" stroke-width="4"/>
<path d="M249.84 335.494L385.66 338.754C400.65 339.224 414.17 329.814 418.94 315.584C420.19 311.854 417.41 307.994 413.48 307.994H225.93C221.74 307.994 218.95 312.334 220.69 316.154L221.58 317.674C227.48 327.774 238.16 335.134 249.86 335.504L249.84 335.494Z" fill="black"/>
<path d="M291.56 171.174L356.23 175.144C389.22 177.174 416.15 202.284 420.48 235.054C421.31 241.364 416.57 247.024 410.21 247.314L228.47 255.594C221.72 255.904 216.33 250.034 217.22 243.334L218.84 231.074C223.6 195.114 255.35 168.964 291.56 171.184V171.174Z" fill="black"/>
<path d="M409.2 252.794C409.14 249.624 406.48 247.134 403.32 247.274L236.02 254.944C232.98 255.084 230.6 257.624 230.66 260.664C230.72 263.774 233.28 266.244 236.39 266.184L320.74 264.644L344.28 289.794C349.25 295.124 357.71 295.094 362.65 289.744L386.99 263.434L403.77 263.124C406.88 263.064 409.35 260.504 409.29 257.394L409.21 252.774L409.2 252.794Z" fill="white" stroke="black" stroke-width="4"/>
<path d="M126.73 115.354L143.93 331.314C144.15 334.044 146.42 336.144 149.16 336.144H248.43C251.12 336.144 253.37 334.104 253.65 331.434L275.57 115.384" fill="white"/>
<path d="M126.73 115.354L143.93 331.314C144.15 334.044 146.42 336.144 149.16 336.144H248.43C251.12 336.144 253.37 334.104 253.65 331.434L275.57 115.384" stroke="black" stroke-width="4" stroke-miterlimit="10"/>
<path d="M131.5 179.884C132.35 179.844 133.2 179.814 134.06 179.814C163 179.814 186.47 203.264 186.47 232.204C186.47 259.174 166.1 281.384 139.91 284.284L131.5 179.874V179.884Z" fill="black"/>
<path d="M143.821 105.224L262.391 101.554L262.071 91.304C261.831 83.434 255.251 77.244 247.371 77.494L157.151 75.114C149.281 75.354 143.251 87.114 143.501 94.984L143.821 105.234V105.224Z" fill="black"/>
<path d="M115.07 117.354L285.99 115.014C287.09 114.984 287.96 114.054 287.93 112.954L287.76 107.614C287.5 99.2342 280.5 92.6542 272.12 92.9142L127.55 94.4342C119.17 94.6942 112.59 101.694 112.85 110.074L113.02 115.414C113.05 116.514 113.98 117.384 115.08 117.354H115.07Z" fill="white" stroke="black" stroke-width="4" stroke-miterlimit="10"/>
<path d="M289.56 212.154L286.29 219.374" stroke="white" stroke-width="4" stroke-miterlimit="10" stroke-linecap="round"/>
<path d="M376.521 203.814L378.681 211.434" stroke="white" stroke-width="4" stroke-miterlimit="10" stroke-linecap="round"/>
<path d="M315.9 185.054L321.8 190.344" stroke="white" stroke-width="4" stroke-miterlimit="10" stroke-linecap="round"/>
<path d="M343.301 226.314L340.931 233.874" stroke="white" stroke-width="4" stroke-miterlimit="10" stroke-linecap="round"/>
<path d="M143.49 323.384H253.64" stroke="black" stroke-width="4" stroke-miterlimit="10"/>
<path d="M2 336.544H437.08" stroke="black" stroke-width="4" stroke-linecap="round" stroke-linejoin="round"/>
</svg>
