<svg width="499" height="540" viewBox="0 0 499 540" fill="none" xmlns="http://www.w3.org/2000/svg">
<mask id="mask0_556_566" style="mask-type:luminance" maskUnits="userSpaceOnUse" x="0" y="0" width="499" height="540">
<path d="M498.64 0H0V539.78H498.64V0Z" fill="white"/>
</mask>
<g mask="url(#mask0_556_566)">
<path d="M398.08 527.34L399.78 502.55L374.92 500.52L372.44 527.34H398.08Z" fill="black" stroke="black" stroke-width="4" stroke-miterlimit="10"/>
<path d="M460.26 537.78H161.84" stroke="black" stroke-width="4" stroke-miterlimit="10" stroke-linecap="round"/>
<path d="M90.18 288.88L147.26 339.41C149.7 341.57 153.43 341.34 155.59 338.9L175.52 316.39C184.48 306.27 192.22 295.13 198.58 283.2C203.49 272.15 210.71 262.24 219.94 254.43C220.74 253.76 221.47 253.1 222.09 252.48L238.8 235.89L312.58 269.12L400.52 366.3C406.27 372.65 409.17 381.07 408.56 389.61L399.76 502.54L345.1 499.58L353.12 400.99C353.45 396.52 351.52 392.18 347.99 389.43L267.21 329.84L169.49 399.53C157.62 407.48 141.88 406.44 131.15 397L43.69 314.01L90.18 288.88Z" fill="#FF0077" stroke="black" stroke-width="4"/>
<path d="M267.23 329.86C278.35 322.88 288.31 322.35 295.75 324.93" stroke="black" stroke-width="4" stroke-linecap="round"/>
<path d="M276.36 108.08H312.76L322.1 121.29L318.08 139.79L281.84 135.37L276.36 108.08Z" fill="black" stroke="black" stroke-width="4" stroke-miterlimit="10"/>
<path d="M467.79 152.46L464.74 146.63L433.83 153.05C433.83 149.77 434.2 145.91 432.07 141.91C430.7 139.33 427.79 138.81 425.87 139.56C423.95 140.31 423.21 142.98 423.96 144.91C427.56 154.15 424.31 160.72 424.14 161.05C423.37 162.51 423.67 164.23 424.75 165.37L422.5 173.34L394.61 209.6L380.66 227.73L375.91 233.9L376.77 221.94L373.62 191.64L339.14 179.41L343.62 224.82L345.9 247.99C345.98 248.94 346.18 250.09 346.4 251.18C346.67 252.29 346.96 253.39 347.38 254.49C348.18 256.67 349.28 258.78 350.65 260.69C353.41 264.51 357.13 267.44 361.21 269.26C365.3 271.08 369.79 271.84 374.33 271.43C378.86 271.05 383.44 269.31 387.14 266.57C389.01 265.21 390.61 263.62 391.96 261.95L392.46 261.32L392.84 260.82L393.26 260.24L394.09 259.08L397.42 254.43L404.07 245.13L417.38 226.53L441.95 189.32L448.93 186.93C452.08 185.85 454.8 183.8 456.7 181.07L469.04 163.47C469.76 160.53 470.12 156.93 467.79 152.49V152.46ZM368.8 243.12L368.82 243.08L368.87 243C368.93 242.92 369.01 242.82 369.1 242.73L368.88 243.02C368.88 243.02 368.78 243.16 368.8 243.12Z" fill="black" stroke="black" stroke-width="4" stroke-miterlimit="10"/>
<path d="M473.201 137.833L453.95 124.061C452.005 122.669 449.3 123.118 447.909 125.063L421.156 162.459C419.764 164.404 420.213 167.108 422.158 168.5L441.409 182.272C443.354 183.663 446.059 183.214 447.45 181.27L474.203 143.874C475.594 141.929 475.146 139.224 473.201 137.833Z" fill="white" stroke="black" stroke-width="4"/>
<path d="M469.49 149.31C468.67 147.25 466.35 146.26 464.31 147.08C462.26 147.9 461.27 150.23 462.09 152.28C462.34 152.91 462.51 153.5 462.64 154.06C461.57 153.27 460.13 153.02 458.8 153.55C456.75 154.37 456.07 156.6 456.57 158.75C456.77 159.61 456.89 160.04 457.02 160.72C456.21 160.74 455.52 160.77 454.68 161.11C452.63 161.93 451.64 164.26 452.45 166.31C454.07 170.39 453.65 172.45 452.7 173.92L455.06 174.49L459.29 176.96C459.56 176.49 461.61 173.13 461.04 168L463.72 169.57C463.99 169.11 465.79 165.76 465.24 160.75L469.04 163.4C469.04 163.4 473.06 158.71 470 151L469.49 149.31Z" fill="black" stroke="black" stroke-width="4" stroke-miterlimit="10"/>
<path d="M281.84 130.88L309.05 71.8999L340.02 84.8699L322.16 142.48L281.84 130.88Z" fill="black" stroke="black" stroke-width="4" stroke-miterlimit="10"/>
<path d="M225.78 170.35C234.17 152.69 254.29 122.09 272.94 122.09L292.94 124.64L318.07 139.8L330.92 125.58L344.35 132.36C360.5 140.93 367.55 150.14 370.3 164.51L370.36 164.84C372.05 173.69 373.14 182.64 373.61 191.64L374.15 196.24L345.82 199.234C343.279 199.503 341.086 201.135 340.099 203.491L312.6 269.14C268.95 279.92 227.38 246.14 227.38 246.14L257.93 185.89L225.78 170.35Z" fill="white" stroke="black" stroke-width="4"/>
<path d="M351.32 33.12C366.44 39.25 372.84 58.97 365.48 76.75L351.28 107.07C346.19 117.93 333.53 122.95 322.38 118.52L291.86 106.39L312.15 53.76C319.12 36.35 336.58 27.15 351.31 33.13L351.32 33.12Z" fill="black" stroke="black" stroke-width="4" stroke-miterlimit="10"/>
<path d="M271.93 138.08L276.36 108.08L316.77 133.57L331.18 128.44L334.48 148.79L271.93 138.08Z" fill="white"/>
<path d="M342.14 285.22L294.09 249.1C289.87 245.93 292.02 239.22 297.29 239.09L402.85 236.43L350.5 285.22H342.14Z" fill="white" stroke="black" stroke-width="4"/>
<path d="M440.06 281.94L345.88 286.11C340 286.37 336.45 279.7 339.94 274.97L388.43 209.12C391.01 205.61 395.11 203.54 399.47 203.54H489.63C495.35 203.54 498.65 210.02 495.29 214.65L450.55 276.3C448.1 279.68 444.23 281.76 440.06 281.94Z" fill="white" stroke="black" stroke-width="4"/>
<path d="M330.34 197.6C330.1 197.38 329.85 197.16 329.6 196.95C324.9 192.98 315.08 190.71 306.29 193.13C305.02 193.48 303.87 193.84 302.81 194.21L242.5 216.61L257.61 186.81L225.46 171.27L210.41 204L202.88 220.37L199.12 228.55L197.24 232.64L196.3 234.69L195.83 235.71L195.71 235.97L195.65 236.1L195.56 236.3C194.95 237.6 194.49 238.97 194.21 240.56C193.64 243.67 194.05 247.14 195.3 250C196.54 252.89 198.46 255.24 200.88 256.99C203.29 258.74 206.34 259.93 209.6 260.13C211.83 260.29 214.06 259.94 216.03 259.28L215.97 259.3L216.34 259.17C216.44 259.13 216.55 259.1 216.65 259.06L304.88 224.07C304.88 224.07 319.12 223.92 323.16 223.97L316.76 243.46C316.2 245.17 317.06 247.05 318.76 247.72C320.52 248.42 322.51 247.55 323.21 245.79L332.97 221.08C333 221.01 333.03 220.92 333.05 220.85C333.06 220.81 333.07 220.76 333.08 220.72L334.78 216.09C337.09 209.42 335.52 202.4 330.35 197.59L330.34 197.6Z" fill="black" stroke="black" stroke-width="4" stroke-miterlimit="10"/>
<path d="M310.531 70.3549C314.462 69.9299 317.24 65.7929 316.734 61.1149C316.228 56.4359 312.631 52.9879 308.7 53.4129C304.768 53.8379 301.991 57.9749 302.497 62.6539C303.003 67.3319 306.6 70.7799 310.531 70.3549Z" fill="black" stroke="black" stroke-width="4" stroke-miterlimit="10"/>
<path d="M314.08 136.86C314.08 136.86 295.34 155.25 257.59 133.1C233.76 119.12 212.03 100.66 212.03 100.66L178.91 92.98L185.11 125.5C185.11 125.5 253.79 181.49 294.54 162.11C315.89 151.96 317.86 140.25 317.86 140.25L314.08 136.85V136.86Z" fill="#FF0077" stroke="black" stroke-width="4"/>
<path d="M320.8 139.5C319.26 142.63 315.06 142.99 312.88 141.28C310.7 139.58 311.2 135.5 312.91 133.32C314.61 131.14 317.76 130.76 319.94 132.46C322.12 134.16 322.02 137.01 320.8 139.49V139.5Z" fill="#FF0077" stroke="black" stroke-width="4" stroke-miterlimit="10"/>
<path d="M372.43 537.75L434.04 537.78C435.11 537.78 435.98 536.91 435.98 535.84V532.94C435.95 532.16 435.45 531.47 434.72 531.19L399.66 517.61L377.08 516.9C375.97 516.84 373.21 516.41 373.21 517.53L370.48 535.8C370.48 536.86 372.44 537.74 372.44 537.74L372.43 537.75Z" fill="white" stroke="black" stroke-width="4"/>
<path d="M275.05 106.38L272.95 123.93" stroke="black" stroke-width="4"/>
<path d="M169.189 191.44H228.179" stroke="black" stroke-width="4" stroke-miterlimit="10" stroke-linecap="round"/>
<path d="M78.13 204.44H215.19" stroke="black" stroke-width="4" stroke-miterlimit="10" stroke-linecap="round"/>
<path d="M289.47 427.32H348.47" stroke="black" stroke-width="4" stroke-miterlimit="10" stroke-linecap="round"/>
<path d="M242.52 440.32H379.58" stroke="black" stroke-width="4" stroke-miterlimit="10" stroke-linecap="round"/>
<path d="M318.01 64.3899C314.69 69.0699 315.27 71.7399 312.88 78.8399C311.17 83.9299 312.12 89.6499 315.75 93.6099C319.79 98.0199 327.12 100.47 340.02 91.0499C343.65 88.3999 348.51 90.3199 352.04 92.1599C356.13 94.2899 355.9 97.7799 355.9 97.7799C355.9 97.7799 351.38 107.94 348.14 114.37C344.57 121.46 336.36 124.88 328.81 122.45C326.43 121.69 324.14 120.91 322.36 120.22C296.45 110.26 302.76 92.2899 304.08 86.0999C305.4 79.9099 309.62 65.3299 309.62 65.3299L318.01 64.3999V64.3899Z" fill="white" stroke="black" stroke-width="4"/>
<path d="M68.85 299.32L49.76 282.35L71.25 272.72L90.19 288.88" fill="black"/>
<path d="M68.85 299.32L49.76 282.35L71.25 272.72L90.19 288.88" stroke="black" stroke-width="4" stroke-miterlimit="10"/>
<path d="M3.5203 269.21C2.4703 269.44 1.8103 270.48 2.0503 271.53L2.68029 274.36C2.88029 275.12 3.5103 275.68 4.2903 275.79L51.76 283.34L71.2 275.08C72.3 274.9 72.39 273.96 72.15 272.88L68.46 256.37C68.23 255.34 67.22 254.68 66.18 254.89L3.5203 269.22V269.21Z" fill="white" stroke="black" stroke-width="4"/>
<path d="M240.73 265.08C234.56 269.43 223.16 274.37 204.16 272.72L240.73 265.08Z" fill="#FF0077"/>
<path d="M240.73 265.08C234.56 269.43 223.16 274.37 204.16 272.72" stroke="black" stroke-width="4" stroke-linecap="round"/>
<path d="M244.96 215.02L263.62 176.99" stroke="black" stroke-width="4" stroke-miterlimit="10" stroke-linecap="round"/>
</g>
</svg>
