<svg width="464" height="252" viewBox="0 0 464 252" fill="none" xmlns="http://www.w3.org/2000/svg">
<path d="M400.49 66.1701L361.81 66.1401C360.33 66.1401 359.12 67.3401 359.12 68.8301C359.12 70.3201 360.32 71.5201 361.81 71.5201H371.07L371.05 94.0701L391.44 94.0901L391.46 71.5501H400.49C401.97 71.5501 403.18 70.3601 403.18 68.8701C403.18 67.3801 401.98 66.1801 400.49 66.1801V66.1701Z" fill="black"/>
<path d="M427.8 246.06L423.37 246.05L399.26 227.52L421.78 215.11L427.8 246.06Z" fill="black" stroke="black" stroke-width="4"/>
<path d="M328.4 245.98H332.83L356.97 227.48L334.47 215.03L328.4 245.98Z" fill="#FF0077"/>
<path d="M331.3 231.18C334.6 234.12 338.11 236.77 341.8 239.1L356.96 227.48L334.46 215.03L331.29 231.18H331.3Z" fill="black"/>
<path d="M381.15 241.96C425.04 241.96 460.62 206.38 460.62 162.49C460.62 118.6 425.04 83.02 381.15 83.02C337.26 83.02 301.68 118.6 301.68 162.49C301.68 206.38 337.26 241.96 381.15 241.96Z" fill="black"/>
<path d="M381.15 231.14H381.09C362.75 231.12 345.52 223.97 332.56 210.99C319.6 198.01 312.48 180.77 312.49 162.43C312.51 144.09 319.66 126.86 332.64 113.9C345.6 100.96 362.83 93.8301 381.14 93.8301H381.2C399.54 93.8501 416.77 101 429.73 113.98C442.69 126.96 449.81 144.2 449.8 162.54C449.79 180.88 442.63 198.11 429.65 211.07C416.69 224.01 399.46 231.14 381.15 231.14Z" fill="black"/>
<path d="M312.49 162.43C312.48 180.77 319.6 198.01 332.56 210.99C345.52 223.97 362.75 231.12 381.09 231.14H381.15C399.46 231.14 416.69 224.01 429.65 211.07C442.63 198.11 449.79 180.88 449.8 162.54C449.81 144.2 442.69 126.96 429.73 113.98C416.77 101 399.54 93.8501 381.2 93.8301H381.14C362.83 93.8301 345.6 100.96 332.64 113.9C319.66 126.86 312.51 144.09 312.49 162.43ZM312.49 162.43H314.34" stroke="white" stroke-width="4" stroke-miterlimit="10" stroke-linecap="round"/>
<path d="M310.24 76.2904C298.56 84.5604 295.79 100.73 304.06 112.41L346.36 82.4804C338.09 70.8004 321.92 68.0304 310.24 76.3004V76.2904Z" fill="#FF0077"/>
<path d="M452.65 75.93C464.32 84.22 467.06 100.39 458.77 112.06L416.52 82.05C424.81 70.38 440.98 67.64 452.65 75.93Z" fill="black"/>
<path d="M48.5202 37.1197L95.2302 185.84V248.62H32.4502L42.9802 36.9297C43.0202 36.1797 48.3002 36.3997 48.5302 37.1197H48.5202Z" fill="black"/>
<path d="M56.6699 27.2197H320.94C333.42 27.2197 344.1 36.1497 346.32 48.4297L382.67 249.71H83.0399L45.3099 40.8197C44.0299 33.7397 49.4699 27.2297 56.6699 27.2297V27.2197Z" fill="white" stroke="black" stroke-width="4" stroke-miterlimit="10" stroke-linecap="round"/>
<path d="M329.91 27.2197H55.2402C48.7902 27.2197 43.9102 33.0597 45.0602 39.4097L50.6902 70.5797H350.32L344.72 39.5997C343.43 32.4397 337.19 27.2197 329.91 27.2197Z" fill="#FF0077" stroke="black" stroke-width="4" stroke-miterlimit="10"/>
<path d="M329.16 248.72H382.67L374.64 204.22" fill="black"/>
<path d="M329.16 248.72H382.67L374.64 204.22" stroke="black" stroke-width="4"/>
<path d="M374.64 205.22H326.85C324.19 205.22 322.17 207.61 322.6 210.23L329.16 249.71" fill="white"/>
<path d="M374.64 205.22H326.85C324.19 205.22 322.17 207.61 322.6 210.23L329.16 249.71" stroke="black" stroke-width="4" stroke-miterlimit="10" stroke-linecap="round"/>
<path d="M2 249.88H456.24" stroke="black" stroke-width="4" stroke-miterlimit="10" stroke-linecap="round"/>
<path d="M85.1001 25.45C85.1001 12.5 92.7901 2 102.28 2C111.77 2 119.46 12.5 119.46 25.45C119.46 38.4 111.77 48.9 102.28 48.9" stroke="black" stroke-width="4"/>
<path d="M102.9 56.6902C107.136 56.6902 110.57 52.8354 110.57 48.0802C110.57 43.325 107.136 39.4702 102.9 39.4702C98.664 39.4702 95.23 43.325 95.23 48.0802C95.23 52.8354 98.664 56.6902 102.9 56.6902Z" fill="black"/>
<path d="M152.33 25.45C152.33 12.5 160.02 2 169.51 2C179 2 186.69 12.5 186.69 25.45C186.69 38.4 179 48.9 169.51 48.9" stroke="black" stroke-width="4"/>
<path d="M170.12 56.6902C174.356 56.6902 177.79 52.8354 177.79 48.0802C177.79 43.325 174.356 39.4702 170.12 39.4702C165.884 39.4702 162.45 43.325 162.45 48.0802C162.45 52.8354 165.884 56.6902 170.12 56.6902Z" fill="black"/>
<path d="M219.55 25.45C219.55 12.5 227.24 2 236.73 2C246.22 2 253.91 12.5 253.91 25.45C253.91 38.4 246.22 48.9 236.73 48.9" stroke="black" stroke-width="4"/>
<path d="M237.35 56.6902C241.586 56.6902 245.02 52.8354 245.02 48.0802C245.02 43.325 241.586 39.4702 237.35 39.4702C233.114 39.4702 229.68 43.325 229.68 48.0802C229.68 52.8354 233.114 56.6902 237.35 56.6902Z" fill="black"/>
<path d="M286.78 25.45C286.78 12.5 294.47 2 303.96 2C313.45 2 321.14 12.5 321.14 25.45C321.14 38.4 313.45 48.9 303.96 48.9" stroke="black" stroke-width="4"/>
<path d="M304.58 56.6902C308.816 56.6902 312.25 52.8354 312.25 48.0802C312.25 43.325 308.816 39.4702 304.58 39.4702C300.344 39.4702 296.91 43.325 296.91 48.0802C296.91 52.8354 300.344 56.6902 304.58 56.6902Z" fill="black"/>
<path d="M381.15 107.53V162.49L411.05 192.39" fill="black"/>
<path d="M381.15 107.53V162.49L411.05 192.39" stroke="white" stroke-width="4" stroke-miterlimit="10" stroke-linecap="round"/>
<path d="M91.8303 89.1899H233.92C240.02 89.1899 245.25 93.4499 246.33 99.3099L267.99 216.37C269.39 223.92 263.44 230.86 255.58 230.86H114.43C108.36 230.86 103.16 226.65 102.03 220.83L79.4302 103.77C77.9702 96.1899 83.9203 89.1899 91.8303 89.1899Z" fill="black"/>
<path d="M188.92 176.15C191.47 189.99 178.7 199.64 160.38 200.04C141.14 200.46 125.33 191.54 121.04 174.73L132.21 173.56C135.49 186.34 144.07 191.94 159.36 191.61C173.86 191.3 179.8 186.19 177.86 175.7C176.03 165.78 165.98 160.79 150.69 161.12L144.23 161.26L142.68 152.84L149.27 152.7C163.64 152.39 169.23 146.83 167.72 138.64C166.02 129.42 158.49 125.18 146.1 125.45C132.79 125.74 125.47 129.83 128.79 144.93L117.53 144.13C113.53 125.35 126.1 117.44 144.42 117.04C160.5 116.69 175.72 124.58 178.02 137.03C179.53 145.22 175.62 152.71 163.32 156.33C178.47 158.09 187.14 166.35 188.95 176.15H188.92Z" fill="white"/>
<path d="M220.19 116.44L235.09 197.15H224.68L210.95 122.78L191.2 137.91L184.59 130.07L210.3 116.66L220.19 116.45V116.44Z" fill="white"/>
<path d="M316.58 125.15C318.49 132.32 314.08 138.14 306.71 138.14C299.34 138.14 291.82 132.33 289.91 125.16C288 117.99 292.41 112.17 299.78 112.17C307.14 112.17 314.67 117.98 316.58 125.15Z" fill="#FF0077" stroke="black" stroke-width="4" stroke-miterlimit="10"/>
<path d="M297.32 120.96L306.16 129.04L324.57 102.48" stroke="black" stroke-width="4" stroke-miterlimit="10" stroke-linecap="round"/>
<path d="M324.59 170.19C326.5 177.36 322.09 183.18 314.72 183.18C307.35 183.18 299.83 177.37 297.92 170.2C296.01 163.03 300.42 157.21 307.79 157.21C315.15 157.21 322.68 163.02 324.59 170.19Z" fill="#FF0077" stroke="black" stroke-width="4" stroke-miterlimit="10"/>
<path d="M305.33 165.99L314.16 174.07L332.58 147.51" stroke="black" stroke-width="4" stroke-miterlimit="10" stroke-linecap="round"/>
</svg>
