<svg width="790" height="500" viewBox="0 0 790 500" fill="none" xmlns="http://www.w3.org/2000/svg">
<path d="M437.1 283.251L471.8 312.451L500.4 326.351C508.1 330.051 513.7 336.951 515.9 345.251L555.4 498.351L411.7 498.951L437.2 283.151L437.1 283.251Z" fill="black"/>
<path d="M311.7 157.251C311.6 159.351 311 161.451 310 163.351C309.2 164.851 308.1 166.251 306.6 166.951C305.2 167.551 303.6 167.551 302.1 167.251C299.6 166.751 297.2 165.651 295.3 163.951C294.8 163.551 294.4 163.051 293.8 162.851C293.2 162.651 292.4 162.651 292 163.151C291.7 163.451 291.7 163.951 291.6 164.451C291.3 166.751 290 168.751 288.4 170.351C286.5 172.251 283.7 173.651 281.1 172.851C280.4 172.651 272.4 178.851 265.9 180.151C260.8 181.151 256.8 177.451 256.4 177.051C253.5 174.151 269.5 161.451 269.6 157.351L274.9 135.551L294.8 124.551L311.6 157.251H311.7Z" fill="white"/>
<path d="M171.5 132.151C170.4 134.451 169.7 137.051 170.4 139.451C171.6 143.251 175.9 144.951 179.7 146.251C177.7 151.251 180.8 157.451 185.7 159.751C190.6 162.051 196.6 161.051 201.2 158.051C205.8 155.151 209 150.551 211.5 145.751C212.1 144.651 212.6 143.551 212.6 142.251C212.6 139.151 209.5 137.251 207.2 135.251C205.1 133.351 203.4 131.051 201.5 129.051C199.5 126.951 197.2 125.051 194.7 123.551C191.7 121.751 188.1 120.551 184.9 121.751C183.3 122.351 182 123.451 180.4 124.051C178.4 124.751 176 124.251 174.7 126.151C173.5 127.851 172.6 130.351 171.7 132.251L171.5 132.151Z" fill="white"/>
<path d="M269.6 136.251C287.6 122.051 295 105.251 288.5 79.8514C282 54.3514 255.3 72.2514 255.3 72.2514C255.3 72.2514 253.4 58.9514 245.9 51.5514C238.5 44.2514 224.4 49.8514 211 40.9514C193.7 29.4514 179.3 29.2514 172.8 45.8514C164.1 68.2514 185.4 80.5514 185.4 80.5514C185.4 80.5514 176.1 78.2514 166.8 85.0514C156.8 92.3514 154.6 102.251 158.2 111.351C162.9 123.351 174.5 126.451 182.8 124.651C182.8 124.651 183.5 129.151 189.5 133.351C193.9 136.451 207.5 138.651 218.7 130.451C229.9 122.251 269.6 136.151 269.6 136.151V136.251Z" fill="white"/>
<path d="M273.8 112.251C292.1 114.151 305.7 108.551 316.1 90.2513C326.5 71.9513 301.2 67.3513 301.2 67.3513C301.2 67.3513 307.5 58.6513 307.3 50.2513C307.1 41.9513 295.9 37.3513 293.2 24.7513C289.6 8.5513 281.5 0.351299 268.5 6.3513C251 14.3513 256.4 33.3513 256.4 33.3513C256.4 33.3513 252.4 26.8513 243.2 25.5513C233.4 24.1513 226.6 28.6513 223.6 35.9513C219.6 45.5513 224.6 53.7513 230.3 57.3513C230.3 57.3513 228.2 60.3513 229.3 66.0513C230.1 70.2513 236.7 79.0513 247.7 80.6513C258.7 82.2513 273.8 112.251 273.8 112.251Z" fill="white"/>
<path d="M587.8 68.1513C578.5 67.6513 576.9 62.0513 578.1 56.8513C578.9 53.6513 583.9 44.6513 583.9 44.6513C583.9 44.6513 569.7 36.5513 572.7 18.7513C575.8 0.951326 593.8 -2.34868 601.4 7.35132C607.3 14.8513 607.2 20.9513 614.2 23.2513C621.2 25.4513 624.9 23.2513 630.4 28.2513C635.4 32.8513 636.7 37.6513 636.7 37.6513C636.7 37.6513 650.9 33.7513 662 44.8513C668.4 51.2513 669.7 65.8513 669.1 72.3513C668.5 78.7513 677.5 90.1513 701.4 98.2513C725.4 106.351 741.3 106.051 749.1 124.451C756.9 142.851 749.1 155.351 749.1 155.351C749.1 155.351 785.3 165.951 787.3 193.851C789.3 221.751 774.4 230.851 764.4 235.151C724.9 252.151 709.1 203.851 624.4 192.251C608.4 190.051 536.4 213.051 534.8 189.651C533.4 169.851 536.4 159.851 557.5 146.851C573.1 137.251 587.4 122.851 587.4 102.251C587.4 81.6513 587.5 68.2513 587.5 68.2513L587.8 68.1513Z" fill="#FF0077" stroke="black" stroke-width="4"/>
<path d="M614.5 146.651L618.7 201.151L655.5 158.751" fill="white"/>
<path d="M654.6 94.8516H616.5V143.552H654.6V94.8516Z" fill="white"/>
<path d="M616.5 126.852H634.2L616.5 143.052V126.852Z" fill="black"/>
<path d="M594.8 41.4516L596.3 100.352C596.7 116.152 609.6 128.752 625.5 128.752C642.4 128.752 655.8 114.352 654.6 97.4516L653.3 79.1516L652.6 69.1516L594.8 41.3516V41.4516Z" fill="white"/>
<path d="M652.6 89.5513C658.6 81.0513 664.1 85.1513 665.1 88.7513C666.1 92.2513 664.1 96.5513 660.7 97.0513C657.3 97.6513 653.7 97.1513 652.5 96.6513C651.4 96.0513 652.5 89.5513 652.5 89.5513H652.6Z" fill="white"/>
<path d="M279.1 151.351L254.4 181.651C244.4 193.951 226.5 195.951 213.9 186.251C200.5 175.851 198.7 156.351 210 143.751L222.2 130.051L228.9 122.551L272.2 131.751C281 133.651 284.8 144.151 279 151.251L279.1 151.351Z" fill="black"/>
<path d="M653.7 85.6514C653.7 85.6514 648.9 83.1514 647.8 79.8514C646.7 76.4514 647.2 71.9514 647.2 71.9514C647.2 71.9514 627.1 68.5514 616.8 60.7514C606.5 52.9514 602.5 47.0514 602.5 47.0514C602.5 47.0514 601.9 55.2514 594.9 63.3514C592.3 66.4514 591.8 44.5514 591.5 43.8514C591.3 43.1514 592.6 37.1514 592.6 37.1514L622.6 52.1514L656.4 68.0514V81.2514L653.8 85.6514H653.7Z" fill="#FF0077"/>
<path d="M395.7 279.051C392 279.051 380.5 285.051 380.5 285.051C380.5 285.051 377.7 294.951 377.4 305.451C376.7 327.151 371.7 495.851 371.7 495.851H431.4C431.4 495.851 439.3 313.151 438.1 299.551C436.9 285.951 431.1 280.951 422.3 279.051C413.6 277.051 395.7 279.051 395.7 279.051Z" fill="#FF0077" stroke="black" stroke-width="4"/>
<path d="M410.2 310.651L397.9 324.251L409.6 341.951L423.2 324.151L410.2 310.651Z" fill="black"/>
<path d="M405.9 333.951L379 495.851H432.9L413.4 329.751L405.9 333.951Z" fill="black"/>
<path d="M475.9 485.451C477.1 486.651 479 486.851 480.4 485.751C481.8 484.651 482 482.551 480.9 481.151L468.9 466.451C468.2 464.751 466.9 463.351 465.2 462.551L448.2 454.851C445.9 453.851 441.3 452.151 438.8 451.951L395.7 445.051L387.8 453.851L380.5 473.551L412.8 475.551L416.3 475.851L439.8 489.751C441.5 490.651 443.6 490.151 444.7 488.651C446 486.951 445.6 484.551 443.9 483.251L435.2 476.951C434.3 476.251 434 474.851 433.9 474.251C433.6 471.451 435.1 466.751 440 466.151C440.9 466.051 441.8 466.151 442.7 466.351L461.3 470.851L466.1 487.451C466.6 489.351 468 490.551 469.9 490.151C471.9 489.751 473.2 487.951 472.8 485.951" fill="white"/>
<path d="M387.2 232.451L382.8 287.051L410.2 310.651L435.7 288.151L435.5 258.651L403.5 227.651L387.2 232.451Z" fill="white" stroke="black" stroke-width="4" stroke-miterlimit="10"/>
<path d="M433.1 261.451L438.7 257.551L404.9 224.751L386.6 240.951" fill="#FF0077"/>
<path d="M403.2 180.152L447.1 183.652C454.3 184.252 459 198.052 458.4 205.252L455.5 241.252C454.1 258.352 439.2 271.052 422.1 269.652L396.2 267.552C389 266.952 383.7 260.752 384.3 253.552L389.2 191.952C389.8 184.752 396 179.452 403.2 180.052V180.152Z" fill="white"/>
<path d="M449.9 167.851L403.4 164.151C395.8 163.551 389.2 169.151 388.6 176.751L384.8 222.851C385.4 223.051 386 223.251 386.6 223.551C386.6 223.351 386.5 223.151 386.5 222.951C386.3 221.751 386.6 220.551 387.3 219.451C386.5 218.051 386.3 216.251 387 214.751C387 213.251 387.7 211.751 389.5 210.851C390.6 210.251 391.8 209.751 393 209.351C393.3 209.251 393.7 209.151 394 209.151C394.3 209.051 394.6 208.951 395 208.951C395.4 208.051 396 207.151 397.2 206.351C401.4 203.451 409.7 205.051 411.8 198.051C413.1 194.051 414.1 184.151 414.1 184.151C414.1 184.151 414.8 190.851 424.9 193.451C435 196.051 440 196.051 449.8 197.451C455.2 198.251 457.8 201.851 458.6 204.551V203.051C458.7 203.051 460.5 183.151 460.5 183.151C461.1 175.551 457.6 168.551 450.1 167.951L449.9 167.851Z" fill="black"/>
<path d="M419.4 242.851C399.6 242.851 394 228.851 394 228.851C393.4 228.751 392.8 227.851 392.2 227.651C392 227.651 393.8 228.151 393.6 228.251C391.1 229.151 389.1 227.851 388.1 225.951C387.5 225.451 387.1 224.751 386.8 224.051L382.9 260.951C382.1 268.251 387.6 274.751 394.9 275.251L427.7 277.151C441.9 277.951 454.1 267.151 454.9 252.951L455.4 244.851L448 244.451L419.5 242.851H419.4Z" fill="black"/>
<path d="M564.3 333.151L542.1 322.251C540.9 321.651 539.4 322.251 539.1 323.651C538.9 324.551 539.2 325.451 540 325.951C542 327.251 546.2 330.051 549.9 332.551L536.4 329.851C535.1 329.551 533.9 330.551 533.9 331.951C533.9 333.351 534.5 333.651 535.3 333.951C539.8 335.451 553.6 340.151 555.2 340.651L558.8 336.651L564.2 333.151H564.3Z" fill="black"/>
<path d="M532.4 272.851L558.3 281.751L584.2 305.151L565.8 341.351L536 346.151C536 346.151 532.5 341.751 542.9 339.051C547.4 337.851 557.4 335.351 557.4 335.351L559.4 320.151C559.7 317.751 558.8 315.351 556.9 313.851L540.6 300.251L532.4 272.851Z" fill="white" stroke="black" stroke-width="4"/>
<path d="M633.1 495.151C633.1 495.451 633.1 495.651 632.9 495.851H699.1C699.1 495.851 719.7 448.251 722.2 409.151C726.9 335.151 686.4 297.951 686.4 297.951H587.3C587.3 297.951 555.8 348.751 551.6 386.551C547.4 424.251 556.3 495.951 556.3 495.951H628.9C628.8 495.651 628.7 495.451 628.8 495.151" fill="black"/>
<path d="M656.7 167.351V143.551H608.7L605.5 167.351H656.7Z" fill="black"/>
<path d="M721 287.151L688.2 283.251L684.4 314.651L749.6 323.851C765.6 326.051 778.1 310.351 772.3 295.251C759.6 262.351 741.8 216.251 739.4 209.351C732.8 190.451 726.7 168.351 707.8 161.751C688.9 155.151 657.6 163.151 657.6 163.151H607.9C607.9 163.151 582.5 149.951 562.2 159.851C541.9 169.751 501.4 206.551 482.6 225.351C463.7 244.251 470.3 258.351 482.6 266.351C494.9 274.351 539.6 302.651 539.6 302.651L560.3 280.051L529.7 246.051L563.2 218.251L587.6 298.851L686.7 297.851L697.4 253.051" fill="black"/>
<path d="M672.3 326.551H619.2C616.9 326.551 615 325.051 614.3 322.851L590 238.751C589.1 235.551 591.5 232.251 594.9 232.251H648C650.3 232.251 652.2 233.751 652.9 235.951L677.2 320.051C678.1 323.251 675.7 326.551 672.3 326.551Z" fill="black" stroke="white" stroke-width="4"/>
<path d="M679.5 285.251C679.5 285.251 676.9 278.651 671.7 276.851C665 274.451 661.5 272.851 661.5 272.851L663.2 278.851L630.9 273.551C628.7 273.151 626.6 274.851 626.6 277.051C626.6 279.251 627.6 279.951 629 280.451C629.3 280.551 629.6 280.651 630 280.751C628.5 281.151 627.4 282.551 627.4 284.151C627.4 285.751 628.4 287.051 629.8 287.551C630.1 287.651 630.5 287.751 630.9 287.951C629.1 288.151 627.7 289.651 627.7 291.451C627.7 293.251 628.7 294.351 630.1 294.851C630.3 294.851 630.4 294.951 630.6 295.051C629.6 295.651 628.9 296.751 628.9 298.051C628.9 299.351 629.9 300.951 631.3 301.451C632.7 301.951 658.8 307.951 660.9 308.751L684.4 312.351L689.5 286.651L679.4 285.351L679.5 285.251Z" fill="white"/>
<path d="M530.5 391.351L490.5 487.851H445.2C441.9 487.851 439.2 490.551 439.2 493.851V496.851H659.5L693 408.151C695.6 401.151 690.5 393.651 683.1 393.551L530.4 391.351H530.5Z" fill="black"/>
<path d="M295.6 495.851H389.1L395.7 444.951L367.9 440.251" fill="black"/>
<path d="M252.2 410.051L243.3 427.551C231 453.851 250.7 484.051 276.9 495.151" fill="black"/>
<path d="M263.2 230.051C263.2 230.051 256.3 220.851 252.3 218.051C252.3 218.051 178.1 164.751 157.1 158.451C140.5 153.451 126.5 157.851 117.1 181.451C108.9 202.151 106.2 233.851 75.1 266.851L171 289.451L181.7 278.251C181.7 278.251 186.5 282.551 191.9 282.251C199.9 281.751 215.7 271.251 215.7 271.251L220.4 284.651C224.8 289.051 231.5 315.951 231.5 315.951L272.9 290.551L263.2 230.151V230.051Z" fill="white"/>
<path d="M108.2 495.851H208.1L143.1 277.151L75.2 266.751C50.5 266.751 30.6 287.251 31.4 311.951L37.5 495.751H108.2V495.851Z" fill="white"/>
<path d="M32.2993 366.051C32.2993 351.951 31.4 344.551 31.4 343.951C45.5 343.951 57 355.451 57 369.551C57 383.651 46.5 395.151 31.4 395.151C32.2994 396.051 32.2993 380.151 32.2993 366.051Z" fill="black"/>
<path d="M88.4001 329.651C102.539 329.651 114 318.19 114 304.051C114 289.913 102.539 278.451 88.4001 278.451C74.2616 278.451 62.8 289.913 62.8 304.051C62.8 318.19 74.2616 329.651 88.4001 329.651Z" fill="black"/>
<path d="M134 416.351C148.139 416.351 159.6 404.89 159.6 390.751C159.6 376.613 148.139 365.151 134 365.151C119.862 365.151 108.4 376.613 108.4 390.751C108.4 404.89 119.862 416.351 134 416.351Z" fill="black"/>
<path d="M82.6 483.451C96.7385 483.451 108.2 471.989 108.2 457.851C108.2 443.712 96.7385 432.251 82.6 432.251C68.4615 432.251 57 443.712 57 457.851C57 471.989 68.4615 483.451 82.6 483.451Z" fill="black"/>
<path d="M190.499 450.551C176.399 450.551 165.299 462.051 165.299 476.151C165.299 484.038 168.772 491.111 174.299 495.813L208.03 496.051V494.779L196.467 451.255C194.551 450.795 192.553 450.551 190.499 450.551Z" fill="black"/>
<path d="M168.1 247.251L175.6 302.651L250.7 265.651L259.5 285.151C259.5 285.151 189 345.451 168.3 353.451C147.6 361.451 131.3 347.951 128 328.151C124.7 308.351 117.2 262.951 117.2 262.951L168.1 247.351V247.251Z" fill="black"/>
<path d="M333.3 248.051C331.7 246.251 329.6 247.751 328.6 248.351L313.2 257.651C310.2 259.351 306.7 259.951 303.3 259.251L279.1 255.651L284.2 251.851C286 250.451 286.3 247.851 284.8 245.951C283.3 244.151 280.6 243.851 278.8 245.251L263.8 256.451C262.3 257.351 261.1 258.551 260.2 260.151C249.7 266.151 242.4 269.651 242.4 269.651L256.1 287.751L268.8 277.651L310.2 269.051C313.8 268.251 317.1 266.551 319.8 264.151L332.3 252.951C333.7 251.651 334.7 249.651 333.2 247.951L333.3 248.051Z" fill="black"/>
<path d="M358.5 494.951L335.7 487.251L302.2 475.451L273 293.951L230.3 317.851L280.3 490.251C281.9 495.351 286.7 498.751 292 498.751H357.3C359.3 498.751 360.2 496.151 358.6 494.951H358.5Z" fill="black"/>
<path d="M119.8 266.451L112.9 225.951" stroke="black" stroke-width="4" stroke-linecap="round"/>
<path d="M693.7 313.651L630.9 304.051" stroke="black" stroke-width="4" stroke-linecap="round"/>
<path d="M714.6 289.151L683.2 284.351L681.2 284.051" stroke="black" stroke-width="4" stroke-linecap="round"/>
<path d="M222.9 262.951L209.9 274.751C204.9 279.251 198.5 283.651 191.9 282.251C189.2 281.751 181.7 278.251 181.7 278.251L169.4 295.251" stroke="black" stroke-width="4" stroke-linecap="round"/>
<path d="M215.8 271.251L231.6 315.951L271.1 292.751L264.8 242.051C263.2 232.351 257.9 223.551 250 217.551L226.9 199.851L167.3 162.351C166.9 162.051 166.4 161.851 166 161.551C148.4 151.451 126 160.151 118.8 179.151L110.9 200.051C103.4 219.851 94.2 239.051 83.4 257.251L77.6 266.951C50.5 266.951 28.8 289.551 29.9 316.651L37.4 495.951" stroke="black" stroke-width="4" stroke-linecap="round"/>
<path d="M165.5 352.951L208.1 495.851" stroke="black" stroke-width="4" stroke-linecap="round"/>
<path d="M186.6 204.151C194.9 210.951 207.2 209.651 213.8 201.051L241.8 164.851L211.6 141.551L183.6 177.751C177.3 185.851 178.6 197.551 186.6 204.151Z" fill="black"/>
<path d="M452.8 253.051L457.8 187.651" stroke="black" stroke-width="4" stroke-miterlimit="10"/>
<path d="M616.5 143.551V129.851C616.5 129.651 616.4 129.451 616.2 129.351C613.4 128.351 595.4 121.351 596.3 100.351C597.2 79.8514 596.3 63.4514 596.3 63.4514C596.3 63.4514 604.1 56.0514 602.4 47.1514C600.8 38.4514 610.9 71.7514 644.5 72.0514C645.9 72.0514 647 73.1514 647.1 74.5514C647.2 78.1514 648.2 84.3514 653.7 85.8514C653.7 85.8514 661.7 80.4514 665.2 86.4514C668.7 92.3514 662.6 100.651 654.6 99.0514V143.751" stroke="black" stroke-width="4" stroke-miterlimit="10"/>
<path d="M250.4 119.451C246.7 103.751 250 91.3513 264.7 80.1513C279.4 69.0513 286.3 90.5513 286.3 90.5513C286.3 90.5513 293.1 84.0513 300.5 83.2513C307.8 82.4513 313.1 91.7513 324.3 92.6513C338.8 93.9513 346.9 100.151 343.1 112.051C338.1 128.151 320.9 125.651 320.9 125.651C320.9 125.651 327 128.451 329.2 136.251C331.5 144.651 331.4 151.851 325.5 155.251C317.6 159.851 306.8 155.651 303.1 151.051C303.1 151.051 300.7 153.251 295.6 152.851C291.8 152.651 283.4 147.851 280.8 138.451C278.2 129.051 250.3 119.251 250.3 119.251L250.4 119.451Z" fill="white"/>
<path d="M218.2 130.851C218.2 130.851 224.6 138.951 233.6 140.151C242.6 141.451 252.1 133.651 265.3 133.951C278.5 134.251 282.6 140.251 282.6 140.251V119.851L269 107.551L232.1 100.151L218.2 130.851Z" fill="white"/>
<path d="M221.3 139.351C221.9 125.351 212.6 125.151 208.5 128.151C204.6 131.051 203.1 137.351 206.3 140.751C209.5 144.151 213.7 146.751 215.4 147.051C217.1 147.351 221.3 139.451 221.3 139.451V139.351Z" fill="black"/>
<path d="M179.8 172.551L178.2 174.751C170.6 184.851 171.9 199.151 181.2 207.751C191.1 216.851 206.6 216.351 215.9 206.551L221.8 198.751" stroke="#FF0077" stroke-width="4"/>
<path d="M201.2 161.351C190.1 163.051 179.4 158.151 181 145.151C180.8 146.651 173.8 143.451 173 142.851C170.6 140.851 169.2 137.451 169.3 134.351C169.4 131.251 172 126.751 175.6 125.151C167.5 125.151 159.8 119.251 157.2 111.551C154.4 103.351 157.3 93.8514 163.4 87.9514C169.6 81.9514 176.2 82.1514 183.9 81.3514C181 79.9514 178.9 77.2514 176.8 74.8514C174.7 72.4514 173.1 70.0514 171.9 67.2514C169 60.6514 169.3 53.4514 171.9 46.7514C178.4 30.1514 196.2 34.3514 210.1 41.8514L221.9 47.5514C221.4 44.5514 221.2 40.3514 222.7 36.8514C225.7 29.6514 232.5 25.1514 242.3 26.4514C251.5 27.7514 255.5 34.2514 255.5 34.2514C255.5 34.2514 250.1 15.2514 267.6 7.25145C280.6 1.25145 288.8 9.45144 292.3 25.6514C295 38.2514 306.2 42.8514 306.4 51.1514C306.6 59.6514 300.3 68.2514 300.3 68.2514C300.3 68.2514 325.2 72.7514 315.4 90.7514C317.9 92.0514 320.8 93.1514 324.2 93.3514C338.7 94.6514 346.8 100.851 343 112.751C341.5 117.651 338.3 121.651 333.6 123.951C329.7 125.851 325.3 126.451 321 126.351C323.3 127.251 325.2 128.651 326.9 130.351C330.8 134.451 333 140.251 332 145.851C330.2 155.151 321.6 156.951 313.6 157.251C313.1 157.251 312.4 157.251 312.1 157.751C311.9 157.951 311.9 158.251 311.9 158.551C311.6 161.051 311.9 164.451 310.1 166.351C308.8 167.651 306.9 168.051 305.1 167.751C301.9 167.251 299.3 165.051 296.3 164.051C295.3 163.751 294.2 163.551 293.2 163.851C289.9 164.951 290.2 170.051 287.4 172.051C284.7 173.951 280.8 171.951 277.6 172.651C274.4 173.351 272.5 176.651 269.7 178.351C264.1 181.851 257 177.851 253.4 173.151" stroke="black" stroke-width="4" stroke-linejoin="round"/>
<path d="M439.7 496.851V495.751C439.7 490.251 444.2 485.751 449.7 485.751H486.2C489.3 485.751 492.1 483.851 493.3 480.951L527.7 398.051C529.4 393.951 533.4 391.351 537.8 391.351H671.8C675.4 391.351 677.8 394.951 676.5 398.251L651.2 469.951" stroke="white" stroke-width="4" stroke-miterlimit="10" stroke-linecap="round"/>
<path d="M394.9 208.851L393.9 230.451L384.6 239.951L386.1 206.451L394.9 208.851Z" fill="black"/>
<path d="M385.7 213.151C379.1 212.951 375.9 215.851 375.7 222.451C375.5 229.051 378.4 232.251 385 232.451" fill="white"/>
<path d="M385.7 213.151C379.1 212.951 375.9 215.851 375.7 222.451C375.5 229.051 378.4 232.251 385 232.451" stroke="black" stroke-width="4"/>
<path d="M295.6 495.851L291.7 490.151L259.4 396.351L292.8 324.151C294.3 321.251 296.9 318.951 299.9 317.751L352.5 297.851L381.1 281.051L377.2 332.851L372.9 454.151" fill="black"/>
<path d="M286.2 367.051L302.2 475.451L345.8 487.251C349.9 488.351 353.3 491.251 355.1 495.051" stroke="white" stroke-width="4" stroke-miterlimit="10" stroke-linecap="round"/>
<path d="M406 271.451L427.7 295.251L435.7 288.151L438.2 272.851L406 271.451Z" fill="black"/>
<path d="M787.9 497.451H2" stroke="black" stroke-width="4" stroke-miterlimit="10" stroke-linecap="round"/>
</svg>
