<svg width="681" height="485" viewBox="0 0 681 485" fill="none" xmlns="http://www.w3.org/2000/svg">
<path d="M549.175 103.46C559.668 103.46 568.175 94.9536 568.175 84.4602C568.175 73.9668 559.668 65.4602 549.175 65.4602C538.682 65.4602 530.175 73.9668 530.175 84.4602C530.175 94.9536 538.682 103.46 549.175 103.46Z" fill="white" stroke="black" stroke-width="4"/>
<path d="M655.575 482.66H48.4751" stroke="black" stroke-width="4" stroke-miterlimit="10" stroke-linecap="round"/>
<path d="M330.275 262.461L321.075 481.161L419.175 481.26L412.075 262.561C411.975 258.961 408.975 256.061 405.375 256.061H336.975C333.375 256.061 330.475 258.861 330.275 262.461Z" fill="black"/>
<path d="M400.975 375.86H339.275C336.175 375.86 333.675 373.26 333.775 370.16L336.975 277.76C337.075 274.76 339.475 272.46 342.475 272.46H399.575C402.575 272.46 405.075 274.86 405.075 277.86L406.375 370.26C406.375 373.36 403.975 375.86 400.875 375.86H400.975Z" fill="white"/>
<path d="M380.875 246.66H360.975V256.06H380.875V246.66Z" fill="black"/>
<path d="M323.875 120.66L415.975 115.46C418.875 115.26 421.375 117.66 421.275 120.56L420.175 207.46C419.875 229.16 402.175 246.66 380.475 246.66H360.075C338.375 246.66 320.775 229.26 320.375 207.66L319.075 125.86C319.075 123.16 321.175 120.86 323.875 120.76V120.66Z" fill="black"/>
<path d="M391.975 181.761C381.175 181.761 381.175 172.061 370.275 172.061C359.375 172.061 359.475 181.761 348.575 181.761C337.675 181.761 337.375 172.061 326.475 172.061L326.875 187.061L327.275 205.361C327.575 224.061 342.775 239.061 361.475 239.061H379.075C397.875 239.061 413.075 223.961 413.275 205.261L413.575 184.461V172.061C402.775 172.061 402.775 181.761 391.875 181.761H391.975Z" fill="white" stroke="black" stroke-width="4"/>
<path d="M44.975 111.16C44.875 111.06 43.675 110.36 43.575 110.26L33.875 103.16C32.775 102.26 31.075 102.46 30.175 103.66C29.275 104.76 29.475 106.46 30.575 107.36L34.475 110.26L19.875 116.06C17.775 116.86 15.475 116.96 13.375 116.16L2.975 112.56C2.275 112.26 1.375 112.16 0.675 112.66C-0.225 113.36 -0.225 114.66 0.675 115.46L9.975 121.06C11.975 122.26 14.275 122.96 16.675 123.06L38.475 123.36L46.075 138.46L59.675 129.86L44.975 111.16Z" fill="black"/>
<path d="M174.075 76.9603H136.875V42.0603L158.275 66.7603L174.075 64.6603V76.9603Z" fill="black"/>
<path d="M156.075 0.160245C168.875 -1.33976 180.475 7.86024 181.975 20.6602L186.275 57.1602C186.675 60.6602 184.175 63.8602 180.675 64.2602L159.575 66.7602C149.675 67.9602 138.575 59.2602 137.475 49.2602L135.575 25.1602C134.575 12.6602 143.675 1.56024 156.175 0.160245H156.075Z" fill="black"/>
<path d="M141.775 41.3603C139.275 32.9603 133.175 30.0603 129.975 32.6603C126.775 35.3603 128.275 42.5603 134.275 43.7603C140.275 44.9603 141.775 41.3603 141.775 41.3603Z" fill="black"/>
<path d="M262.375 138.96C262.975 125.76 263.375 116.96 263.375 116.96C263.375 116.96 262.975 106.06 258.175 99.6599C256.375 97.2599 252.575 98.06 251.875 101.06L243.875 137.56" fill="black"/>
<path d="M258.175 97.4601L269.975 91.0601C273.075 89.3601 276.875 91.6601 276.775 95.1601L276.575 114.06C276.575 115.66 275.775 117.06 274.375 117.96L248.075 128.86L258.175 97.4601Z" fill="black"/>
<path d="M257.775 78.5601H280.975C281.375 78.5601 281.675 78.8601 281.675 79.3601L278.875 114.66H259.875L257.075 79.3601C257.075 78.9601 257.375 78.5601 257.775 78.5601Z" fill="black"/>
<path d="M261.775 112.56L260.275 94.2603H278.575L277.075 112.56H261.775Z" fill="white"/>
<path d="M276.375 96.2603L275.175 110.66H263.575L262.375 96.2603H276.275M280.675 92.2603H258.075L259.875 114.66H278.875L280.675 92.2603Z" fill="black"/>
<path d="M252.975 99.1602L263.475 89.8602C264.775 88.7602 266.775 88.8602 267.875 90.2602C268.775 91.4602 268.775 93.0602 267.775 94.1602L255.775 107.06L252.775 103.96C251.475 102.56 251.575 100.46 252.975 99.1602Z" fill="black"/>
<path d="M242.475 429.46L218.675 428.96L226.775 464.16H249.675L242.475 429.46Z" fill="black"/>
<path d="M249.575 466.06L283.175 477.36L283.775 482.66H232.875L229.075 466.06H249.575Z" fill="#FF0077" stroke="black" stroke-width="4"/>
<path d="M140.475 466.06L126.575 473.66C123.375 475.36 121.775 479.06 122.675 482.56H159.775V475.36L156.875 466.26L140.475 466.06Z" fill="#FF0077" stroke="black" stroke-width="4"/>
<path d="M158.475 465.06V424.56L136.875 429.46L139.975 465.06H158.475Z" fill="black"/>
<path d="M240.475 131.66L229.675 167.26L216.575 108.46C212.075 93.7604 198.575 83.6604 183.175 83.6604H172.175V76.9604H138.875V83.6604H129.375C111.275 83.7604 102.975 96.3604 99.0751 109.66L80.9751 159.46L52.6751 124.06L34.4751 142.86L71.5751 194.26C81.6751 205.96 98.4751 205.46 104.775 191.26L120.675 158.36L125.275 189.16H204.475L206.075 197.06C208.875 211.46 223.575 220.16 237.575 215.66C245.875 212.96 252.175 206.06 253.975 197.56L268.275 131.56H240.675L240.475 131.66Z" fill="white" stroke="black" stroke-width="4"/>
<path d="M205.575 429.46H254.775L206.275 189.36H123.375C118.175 194.56 111.475 207.36 112.775 224.66C116.875 277.06 124.275 429.56 124.275 429.56H174.875L165.075 251.06" fill="black"/>
<path d="M157.875 86.3604L153.775 164.36C153.775 164.96 153.875 165.56 154.175 166.06L162.875 178.76C163.775 180.16 165.775 180.26 166.775 178.96L175.075 166.26C175.575 165.56 175.775 164.66 175.575 163.86L160.675 86.3604H157.775H157.875Z" fill="#FF0077" stroke="black" stroke-width="4"/>
<path d="M177.675 43.3604L166.475 47.7604L166.675 48.1604C167.875 51.2604 171.375 52.7604 174.475 51.5604C176.375 50.7604 177.775 49.1604 178.175 47.2604C178.975 49.0604 180.675 50.3604 182.675 50.6604C185.975 51.1604 189.075 48.9604 189.575 45.6604V45.2604L177.775 43.4604L177.675 43.3604Z" fill="white"/>
<path d="M591.275 135.56C618.775 143.66 630.775 123.96 632.175 109.46C634.675 82.5602 609.775 71.7602 609.775 71.7602C609.775 71.7602 628.375 57.4602 614.075 43.3602C606.775 36.0602 589.075 37.5602 589.075 37.5602C589.075 37.5602 583.475 18.4602 566.875 17.0602C550.275 15.7602 544.375 23.8602 541.875 29.4602C539.275 35.1602 540.575 44.7602 540.575 44.7602L555.775 60.1602L591.575 135.56H591.275Z" fill="white" stroke="black" stroke-width="4"/>
<path d="M588.775 450.46L591.375 482.26H623.375L622.875 478.46C622.375 476.36 620.575 474.86 618.475 474.56L613.475 473.96L611.475 450.36H588.775V450.46Z" fill="#FF0077" stroke="black" stroke-width="4"/>
<path d="M523.275 453.96L517.275 482.26H480.875V477.86C480.875 476.06 482.175 474.66 483.775 474.36L495.175 472.66L500.375 453.86H523.275V453.96Z" fill="#FF0077" stroke="black" stroke-width="4"/>
<path d="M678.575 129.46C677.775 120.46 671.775 112.76 663.275 110.16L641.275 103.36L620.275 96.86L573.075 82.96L545.875 92.16C541.975 93.46 538.775 96.56 537.275 100.46L524.175 134.16C520.975 142.46 523.575 151.36 531.375 155.26L473.175 442.76L588.675 182.46C589.275 181.56 595.375 175.46 595.375 175.46L586.475 163.26C585.575 161.96 585.475 160.36 586.175 158.96L602.875 127.56L625.175 132.16L641.075 135.06C642.675 135.36 643.475 137.26 642.575 138.66L611.775 183.66L620.275 194.06L671.275 148.16C676.475 143.46 679.175 136.56 678.575 129.46Z" fill="#FF0077" stroke="black" stroke-width="4"/>
<path d="M555.775 79.3603C555.775 79.3603 555.775 100.96 555.775 101.86C555.775 102.76 556.475 109.26 567.275 107.16C578.075 105.06 581.175 94.1602 581.175 94.1602V61.2603L564.575 79.3603H555.775Z" fill="black"/>
<path d="M559.875 298.16L574.775 444.16H622.675V263.36C622.675 202.06 596.775 174.06 596.775 174.06L524.975 188.06L470.875 444.16C470.875 444.16 535.575 444.16 535.675 444.16" fill="black"/>
<path d="M547.875 31.6602L581.475 31.1602L581.175 67.2602C581.175 74.3602 575.475 80.1601 568.275 80.1601H552.275C545.475 80.1601 540.075 74.7602 540.075 67.9602V39.5602C540.075 35.1602 543.575 31.5602 547.975 31.5602L547.875 31.6602Z" fill="black"/>
<path d="M542.275 38.1603C542.275 38.1603 542.275 42.7603 550.275 39.0603C558.175 35.4603 558.275 31.4603 558.275 31.4603C558.275 31.4603 558.575 34.4603 562.575 35.8603C564.875 36.6603 567.375 34.9603 567.375 34.9603C567.375 34.9603 566.475 45.4603 573.975 50.5603C581.475 55.6603 584.975 47.7603 584.975 47.7603C584.975 47.7603 585.775 36.4603 581.475 29.7603C577.075 23.0603 557.675 24.1603 552.575 25.8603C545.475 28.2603 542.675 33.6603 542.675 33.6603L542.375 38.1603H542.275Z" fill="white"/>
<path d="M577.675 54.1603C582.475 48.7603 586.475 52.1603 586.875 54.1603C587.775 58.4603 582.875 60.7603 580.075 61.6603C577.275 62.4603 574.675 61.6603 574.675 61.6603L577.675 54.1603Z" fill="black"/>
<path d="M540.875 64.1601C537.475 64.1601 535.075 59.7601 535.075 53.7601C535.075 47.7601 537.575 43.3601 540.875 43.3601C544.175 43.3601 546.675 47.7601 546.675 53.7601C546.675 59.7601 544.175 64.1601 540.875 64.1601Z" fill="white"/>
<path d="M540.875 45.3601C542.975 45.3601 544.675 49.1601 544.675 53.7601C544.675 58.3601 542.975 62.1601 540.875 62.1601C538.775 62.1601 537.075 58.3601 537.075 53.7601C537.075 49.1601 538.775 45.3601 540.875 45.3601ZM540.875 41.3601C536.275 41.3601 533.075 46.4601 533.075 53.7601C533.075 61.0601 536.275 66.1601 540.875 66.1601C545.475 66.1601 548.675 61.0601 548.675 53.7601C548.675 46.4601 545.475 41.3601 540.875 41.3601Z" fill="black"/>
<path d="M613.375 185.66L611.775 183.66L609.075 187.46C607.775 189.36 606.775 191.46 606.075 193.66L603.075 203.36C602.675 204.46 603.075 205.66 604.075 206.26C605.175 206.86 606.675 206.46 607.175 205.26L610.475 198.16C610.475 198.16 612.175 201.96 613.975 206.86C615.775 211.76 617.975 220.96 617.975 220.96C617.975 220.96 620.975 220.96 620.375 216.26C619.775 211.56 617.975 197.56 617.975 197.56L620.275 194.16L613.375 185.76V185.66Z" fill="black" stroke="black" stroke-width="4"/>
<path d="M554.975 65.3602C550.575 65.3602 547.175 60.2602 547.175 53.7602C547.175 47.2602 550.575 42.1602 554.975 42.1602C559.375 42.1602 562.775 47.2602 562.775 53.7602C562.775 60.2602 559.375 65.3602 554.975 65.3602Z" fill="white"/>
<path d="M554.975 44.1602C558.175 44.1602 560.775 48.4602 560.775 53.7602C560.775 59.0602 558.175 63.3602 554.975 63.3602C551.775 63.3602 549.175 59.0602 549.175 53.7602C549.175 48.4602 551.775 44.1602 554.975 44.1602ZM554.975 40.1602C549.375 40.1602 545.175 45.9602 545.175 53.7602C545.175 61.5602 549.375 67.3602 554.975 67.3602C560.575 67.3602 564.775 61.5602 564.775 53.7602C564.775 45.9602 560.575 40.1602 554.975 40.1602Z" fill="black"/>
<path d="M602.975 127.56L595.375 125.86C591.975 125.16 588.375 126.36 586.075 128.96L585.075 130.06" fill="#FF0077"/>
<path d="M602.975 127.56L595.375 125.86C591.975 125.16 588.375 126.36 586.075 128.96L585.075 130.06" stroke="black" stroke-width="4" stroke-linecap="round"/>
<path d="M559.575 281.66L556.775 241.06C556.175 233.06 549.575 226.86 541.575 226.86" stroke="white" stroke-width="4" stroke-miterlimit="10" stroke-linecap="round"/>
<path d="M158.475 79.3601L155.075 83.16C154.375 83.96 154.275 85.0601 154.875 85.8601L158.275 91.0601C158.975 92.1601 160.675 92.26 161.475 91.16L165.475 85.96C166.175 85.06 166.075 83.8601 165.275 83.0601L161.775 79.3601C160.875 78.4601 159.375 78.4601 158.475 79.3601Z" fill="#FF0077" stroke="black" stroke-width="4"/>
<path d="M229.175 466.16L226.075 452.06H245.175L248.075 466.16H229.175Z" fill="white"/>
<path d="M243.575 454.06L245.675 464.16H230.875L228.575 454.06H243.575ZM246.775 450.06H223.575L227.675 468.16H250.575L246.775 450.06Z" fill="black"/>
<path d="M141.975 466.16L140.775 452.06H156.475V466.16H141.975Z" fill="white"/>
<path d="M154.475 454.06V464.16H143.875L143.075 454.06H154.575M158.475 450.06H138.675L140.175 468.16H158.475V450.06Z" fill="black"/>
<path d="M204.375 189.36L191.375 124.06" stroke="black" stroke-width="4" stroke-linecap="round"/>
<path d="M358.675 319.56H381.875C382.275 319.56 382.575 319.86 382.575 320.36L379.775 355.66H360.775L357.975 320.36C357.975 319.96 358.275 319.56 358.675 319.56Z" fill="black"/>
<path d="M362.675 353.56L361.175 335.16H379.375L377.875 353.56H362.675Z" fill="white"/>
<path d="M377.175 337.16L375.975 351.56H364.375L363.175 337.16H377.075M381.575 333.16H358.975L360.775 355.56H379.775L381.575 333.16Z" fill="black"/>
<path d="M347.975 353.76H392.575" stroke="black" stroke-width="4" stroke-miterlimit="10" stroke-linecap="round"/>
<path d="M525.775 452.06L529.175 437.56L501.875 438.26L498.875 451.96L525.775 452.06Z" fill="black"/>
<path d="M586.875 450.46L585.275 435.86L611.975 436.66L613.475 450.56L586.875 450.46Z" fill="black"/>
</svg>
