<svg width="599" height="297" viewBox="0 0 599 297" fill="none" xmlns="http://www.w3.org/2000/svg">
<path d="M363.8 225.267H261.1V285.067H363.8V225.267Z" fill="black"/>
<path d="M483.7 10.3667H141.3C135.777 10.3667 131.3 14.8439 131.3 20.3667V215.367C131.3 220.89 135.777 225.367 141.3 225.367H483.7C489.223 225.367 493.7 220.89 493.7 215.367V20.3667C493.7 14.8439 489.223 10.3667 483.7 10.3667Z" fill="black"/>
<path d="M596.8 294.066H2.20001" stroke="black" stroke-width="4" stroke-miterlimit="10" stroke-linecap="round"/>
<path d="M481 193.666V24.4663H144.7L145.6 193.666H481Z" fill="white"/>
<path d="M261.1 167.467C292.801 167.467 318.5 141.768 318.5 110.066C318.5 78.3654 292.801 52.6665 261.1 52.6665C229.399 52.6665 203.7 78.3654 203.7 110.066C203.7 141.768 229.399 167.467 261.1 167.467Z" fill="white" stroke="black" stroke-width="4"/>
<path d="M261.1 110.066V52.6665C292.7 52.6665 318.5 78.6665 318.5 110.066C318.5 130.366 307.3 149.966 289.2 160.066L261.1 110.066Z" fill="#FF0077" stroke="black" stroke-width="4"/>
<path d="M261.1 144.267C279.988 144.267 295.3 128.955 295.3 110.067C295.3 91.1786 279.988 75.8667 261.1 75.8667C242.212 75.8667 226.9 91.1786 226.9 110.067C226.9 128.955 242.212 144.267 261.1 144.267Z" fill="white" stroke="black" stroke-width="4"/>
<path d="M28.6 160.266C33.5153 160.266 37.5 156.282 37.5 151.366C37.5 146.451 33.5153 142.466 28.6 142.466C23.6847 142.466 19.7 146.451 19.7 151.366C19.7 156.282 23.6847 160.266 28.6 160.266Z" fill="black"/>
<path d="M130.8 262.967C135.715 262.967 139.7 258.982 139.7 254.067C139.7 249.151 135.715 245.167 130.8 245.167C125.885 245.167 121.9 249.151 121.9 254.067C121.9 258.982 125.885 262.967 130.8 262.967Z" fill="black"/>
<path d="M152.3 136.566C164.892 136.566 175.1 126.358 175.1 113.766C175.1 101.174 164.892 90.9663 152.3 90.9663C139.708 90.9663 129.5 101.174 129.5 113.766C129.5 126.358 139.708 136.566 152.3 136.566Z" fill="white" stroke="black" stroke-width="4"/>
<path d="M135.3 69.2664L120.2 54.2664C112.6 46.6664 100.2 46.6664 92.6 54.2664C85 61.8664 85 74.2664 92.6 81.8664L107.7 96.8664C99.7 115.866 103.4 138.666 118.9 154.166L192.6 80.2664C177.1 64.7664 154.3 61.1664 135.3 69.2664Z" fill="black" stroke="black" stroke-width="4"/>
<path d="M165.4 292.066H95.9L97.7 287.466C98.6 285.166 100.8 283.566 103.3 283.466L157.3 280.366C160.4 280.166 163.1 282.266 163.8 285.266L165.4 292.066Z" fill="black"/>
<path d="M595.3 40.3667C595.3 40.3667 572.7 41.3667 557.3 57.6667C541.9 73.9667 543.3 94.1667 543.3 94.1667C543.3 94.1667 564.2 97.0667 580.1 78.7667C596 60.4667 595.3 40.3667 595.3 40.3667Z" fill="#FF0077" stroke="black" stroke-width="4"/>
<path d="M467.7 2.1665C467.7 2.1665 467.7 30.0665 487.1 49.7665C506.5 69.4665 531.4 68.8665 531.4 68.8665C531.4 68.8665 536 43.2665 514.3 22.8665C492.6 2.46651 470.2 2.36646 470.2 2.36646L467.7 2.1665Z" fill="#FF0077" stroke="black" stroke-width="4"/>
<path d="M493.7 292.966L464.2 189.666C463.1 185.866 466 182.066 470 182.166L587 185.066C590.7 185.066 593.5 188.666 592.6 192.366L568.7 293.066H493.7V292.966Z" fill="black"/>
<path d="M323.4 217.266C320.1 217.266 317.3 214.566 317.3 211.166C317.3 207.766 318.3 207.266 319.9 206.166C318.5 205.466 317 205.066 315.3 205.066C309.8 205.066 305.3 209.566 305.3 215.066C305.3 220.566 309.8 225.066 315.3 225.066C320.8 225.066 324.3 221.466 325.2 216.766C324.6 216.966 324 217.066 323.4 217.066V217.266Z" fill="white"/>
<path d="M244 281.767H380.9C384.3 281.767 387 284.467 387 287.867V293.067H238V287.867C238 284.467 240.7 281.767 244.1 281.767H244Z" fill="black"/>
<path d="M96.3 85.5664L28.6 151.366L130.8 254.066V282.466" stroke="black" stroke-width="4" stroke-miterlimit="10"/>
<path d="M15.8 228.667C6.3 228.667 2 233.067 2 242.467C2 251.967 6.4 256.267 15.8 256.267" stroke="black" stroke-width="4"/>
<path d="M15.5 263.966C15.5 276.166 22.1 286.766 31.8 292.566H65.6C75.4 286.766 81.9 276.166 81.9 263.966V217.566H15.5V227.466C15.4 227.466 15.5 245.566 15.5 245.566V264.066V263.966Z" fill="black"/>
<path d="M543.3 191.567V94.1667L595.3 40.3667" stroke="black" stroke-width="4" stroke-miterlimit="10"/>
<path d="M531 191.567V68.8667L469.2 3.8667" stroke="black" stroke-width="4" stroke-miterlimit="10"/>
<path d="M570.9 47.4663V64.4663H590.3" stroke="black" stroke-width="4" stroke-miterlimit="10"/>
<path d="M558.2 55.8667V78.8667H579.7" stroke="black" stroke-width="4" stroke-miterlimit="10"/>
<path d="M518.8 27.6665V53.8665H490.1" stroke="black" stroke-width="4" stroke-miterlimit="10"/>
<path d="M354.1 77.0663V161.966H458.1C458.1 161.966 454.2 117.866 416.4 117.866C378.6 117.866 395 98.0663 384.1 86.3663C373.2 74.7663 354 77.0663 354 77.0663H354.1Z" fill="black"/>
<path d="M407.3 158.967V52.6665" stroke="black" stroke-width="4" stroke-linecap="round"/>
<path d="M458.2 161.967V52.6665" stroke="black" stroke-width="4"/>
<path d="M356.1 158.967V52.6665" stroke="black" stroke-width="4" stroke-linecap="round"/>
<path d="M433.5 48.9667C433.5 48.9667 434.1 85.5667 459.8 111.267C485.6 136.867 518.4 135.567 518.4 135.567C518.4 135.567 524 101.867 495.1 75.2667C466.2 48.7667 433.5 48.8667 433.5 48.8667V48.9667Z" fill="#FF0077" stroke="black" stroke-width="4"/>
<path d="M518.4 186.666V135.566L434.4 51.5664" stroke="black" stroke-width="4" stroke-miterlimit="10"/>
<path d="M458.2 53.6665V76.7665H438.3" stroke="black" stroke-width="4" stroke-miterlimit="10"/>
<path d="M485.8 69.5664V101.966C485.8 101.966 453.3 100.366 451.8 101.966" stroke="black" stroke-width="4" stroke-miterlimit="10"/>
<path d="M494.8 8.2666V30.5666H473.5" stroke="black" stroke-width="4" stroke-miterlimit="10"/>
</svg>
