<svg width="582" height="387" viewBox="0 0 582 387" fill="none" xmlns="http://www.w3.org/2000/svg">
<path d="M165.2 186.005L104.9 183.104L206.3 363.105L233.9 351.304L165.2 186.005Z" fill="black"/>
<path d="M173.2 28.9043C184.8 28.2043 189.6 33.3043 183.5 43.5043C177.4 53.7043 169.9 48.1043 169.9 48.1043L173.1 28.9043H173.2Z" fill="black"/>
<path d="M180.6 39.3047L185.6 86.6047L150.3 74.4047L165.8 35.8047L180.6 39.3047Z" fill="black"/>
<path d="M231 384.005L223.7 366.605L236.3 361.605L261.1 360.805C264.5 360.705 267.7 362.805 269 366.005L270.1 368.705L231.1 384.105L231 384.005Z" fill="#FF0077" stroke="black" stroke-width="4" stroke-miterlimit="10"/>
<path d="M231.1 349.805L236.3 361.505L223.7 366.605L218.5 354.305L231.1 349.805Z" fill="white" stroke="black" stroke-width="4" stroke-miterlimit="10"/>
<path d="M101.2 288.004L119.3 277.104L126.3 288.804L131 313.204C131.6 316.604 130.1 320.004 127.2 321.804L124.7 323.304L103.901 291.905L101.2 288.004Z" fill="#FF0077" stroke="black" stroke-width="4" stroke-miterlimit="10"/>
<path d="M138.8 280.704L126.2 288.804L119.3 277.204L130.5 270.004L138.8 280.704Z" fill="white" stroke="black" stroke-width="4" stroke-miterlimit="10"/>
<path d="M158.8 75.7047L157.6 86.6047L135.9 84.1047L138.2 70.3047" fill="black"/>
<path d="M83.9004 108.504H71.8004C71.8004 108.504 53.8004 115.504 58.8004 127.804C62.2004 136.204 69.7004 141.204 69.7004 141.204L88.1004 132.004L83.9004 108.504Z" fill="white" stroke="black" stroke-width="4" stroke-miterlimit="10"/>
<path d="M71.7004 108.504C71.7004 108.504 71.0004 108.804 69.8004 109.504L80.3004 136.404L88.0004 134.404V132.004L87.1004 126.704L73.7004 108.504H71.8004H71.7004Z" fill="black"/>
<path d="M316 121.305L513 70.8047L580.4 121.305L418.4 237.905L316 121.305Z" fill="black"/>
<path d="M368.9 7.30457L567.9 2.00457C575 1.80457 580.5 8.20457 579.2 15.3046L556.1 138.805L418.4 237.905L331.5 139.005L358.3 16.0046C359.5 11.1046 363.8 7.50457 368.9 7.40457V7.30457Z" fill="white" stroke="black" stroke-width="4" stroke-miterlimit="10"/>
<path d="M345.1 73.5044L348.6 54.5044H359.8C360.5 54.5044 367.3 60.5044 370.6 63.6044C373.9 66.7044 371.1 65.8044 370 66.1044L345 73.5044H345.1Z" fill="black"/>
<path d="M567.9 2.10467L368.9 7.40467C363.8 7.50467 359.5 11.1047 358.3 16.0047L356 26.6047L578.2 21.2047L579.3 15.4047C580.6 8.40467 575.1 2.00467 568 2.10467H567.9Z" fill="black"/>
<path d="M370.4 20.5046C372.554 20.5046 374.3 18.7585 374.3 16.6046C374.3 14.4507 372.554 12.7046 370.4 12.7046C368.246 12.7046 366.5 14.4507 366.5 16.6046C366.5 18.7585 368.246 20.5046 370.4 20.5046Z" fill="white"/>
<path d="M384 20.5046C386.154 20.5046 387.9 18.7585 387.9 16.6046C387.9 14.4507 386.154 12.7046 384 12.7046C381.846 12.7046 380.1 14.4507 380.1 16.6046C380.1 18.7585 381.846 20.5046 384 20.5046Z" fill="#FF0077"/>
<path d="M414.6 233.505L316 121.305L275.8 319.005C274.6 324.805 279 330.205 284.9 330.205H546.6C551.3 330.205 555.3 326.705 555.9 322.005L580.4 121.305L414.5 233.505H414.6Z" fill="black"/>
<path d="M305.7 54.7045C304.4 55.1045 303.8 56.5045 304.2 57.8045L318.1 94.6045C318.6 95.8045 319.9 96.4045 321.1 96.0045C322.4 95.6045 323 94.2045 322.5 92.9045L308.6 56.1045C308.1 54.9045 306.8 54.3045 305.6 54.7045H305.7Z" fill="black"/>
<path d="M314.1 55.6045L349.5 55.8045L345.3 73.2045L327.1 90.0045L314.1 55.6045Z" fill="white"/>
<path d="M317 57.6045H347C347 57.7045 343.5 72.1045 343.5 72.1045L327.9 86.4045L317 57.5045M311.2 53.6045L326.3 93.5045L347.1 74.3045L352.1 53.8045L311.2 53.6045Z" fill="black"/>
<path d="M316 97.8044L131.8 162.304L30.6004 198.104C18.6004 202.304 5.50038 196.104 1.30038 184.104C-2.89962 172.104 3.40037 158.904 15.5004 154.804L300.4 56.5044L316 97.8044Z" fill="black"/>
<path d="M24.4004 164.704L251.3 86.6045" stroke="white" stroke-width="4" stroke-miterlimit="10" stroke-linecap="round"/>
<path d="M263.6 81.9046L280 76.2046" stroke="white" stroke-width="4" stroke-miterlimit="10" stroke-linecap="round"/>
<path d="M218.1 154.505L171 150.604C170.4 150.604 169.9 150.204 169.5 149.804L161.7 138.704C161.1 137.804 161.3 136.604 162.2 135.904L187 117.604C187.3 117.304 187.8 117.204 188.2 117.204C188.6 117.204 188.6 117.204 188.7 117.204C189.3 117.404 189.8 117.804 190 118.304L197.9 136.904L247.2 118.204L258 108.104C258.4 107.804 258.9 107.604 259.4 107.604H262.2C262.8 107.604 263.3 107.804 263.7 108.304C264.1 108.704 264.3 109.304 264.2 109.904L263.8 113.804L280.1 108.505C280.3 108.505 280.5 108.505 280.7 108.505C281.5 108.505 282.3 109.004 282.6 109.804L283.5 112.204C283.8 113.104 283.5 114.104 282.7 114.604L219.4 154.404C219.1 154.604 218.7 154.704 218.3 154.704C217.9 154.704 218.2 154.704 218.1 154.704V154.505Z" fill="white"/>
<path d="M262.2 109.604L261.4 116.604L280.7 110.304L281.6 112.704L218.3 152.505L171.2 148.604L163.4 137.505L188.2 119.204L196.8 139.505L248.3 120.005L259.4 109.704H262.2M262.2 105.604H259.4C258.4 105.604 257.4 106.004 256.7 106.704L246.2 116.505L199.1 134.404L192 117.604C191.5 116.504 190.6 115.604 189.4 115.304C189.1 115.304 188.7 115.204 188.3 115.204C187.5 115.204 186.6 115.505 185.9 116.005L161.1 134.304C159.4 135.604 159 138.004 160.2 139.804L168 150.904C168.7 151.904 169.8 152.504 170.9 152.604L218 156.505C218.1 156.505 218.2 156.505 218.3 156.505C219.1 156.505 219.8 156.304 220.4 155.904L283.7 116.104C285.3 115.104 286 113.104 285.3 111.304L284.4 108.904C283.8 107.304 282.3 106.304 280.7 106.304C279.1 106.304 279.9 106.305 279.5 106.505L266.1 110.904V110.104C266.3 109.004 266 107.805 265.2 107.005C264.4 106.205 263.4 105.704 262.2 105.704V105.604Z" fill="black"/>
<path d="M191.6 127.004L163.4 137.604L168 144.104L168.9 145.404L193.3 131.204L191.6 127.004Z" fill="black"/>
<path d="M194 127.805C194 127.805 186.2 107.605 176.5 97.8046C166.8 87.9046 157.1 84.8046 157.1 84.8046C151.6 82.6046 144 81.6046 137.5 81.1046C129.8 80.6046 122.9 82.5046 115 85.5046L72.8004 100.405C70.4004 101.205 69.5004 104.105 71.0004 106.205L87.6004 129.705L103.2 125.005C98.5004 145.505 100.1 161.205 100.1 161.205L155.1 142.105L194 127.805Z" fill="#FF0077" stroke="black" stroke-width="4" stroke-miterlimit="10"/>
<path d="M165.1 25.8047C175 27.6047 178.3 32.4047 179.4 38.7047L176.9 62.3047C175.9 73.9047 165.6 78.7047 155.7 76.9047C145.8 75.1047 139.3 65.6047 141.1 55.7047L143.9 40.4047C145.7 30.5047 155.2 24.0047 165.1 25.8047Z" fill="white" stroke="black" stroke-width="4" stroke-miterlimit="10"/>
<path d="M180.6 37.8045C180.6 37.8045 175.1 42.5045 169.1 44.8045C164.5 46.5045 152 47.2045 152 47.2045L154.7 76.8045L119.8 64.1045C119.8 64.1045 129.4 48.4045 136 34.0045C145.4 13.5045 164.1 17.4045 173.4 24.7045C179.8 29.7045 180.5 37.8045 180.5 37.8045H180.6Z" fill="black"/>
<path d="M156.4 49.4046C156.1 44.4046 151 39.4046 148 44.2046C145.3 48.6046 151.2 53.3046 153.6 52.8046C156.1 52.3046 156.3 49.4046 156.3 49.4046H156.4Z" fill="white"/>
<path d="M189.3 31.8044C185.9 29.3044 182.9 28.5044 180.2 29.4044C178.2 30.1044 177.1 31.6044 177.1 31.6044L174.5 29.7044C174.5 29.6044 176.8 26.6044 180.9 26.0044C184.2 25.5044 187.7 26.6044 191.2 29.3044L189.3 31.9044V31.8044Z" fill="black"/>
<path d="M137.7 283.905L265 207.505C276.1 200.805 281.2 187.405 277.4 175.105C274.2 164.705 265.1 157.005 254.3 155.605L142.9 146.405L100.1 161.305C100.1 161.305 98.6004 194.005 127.1 201.305C155.6 208.505 207.5 196.605 207.5 196.605L117.9 259.505L137.7 284.105V283.905Z" fill="black"/>
<path d="M359.8 66.9048C371.2 64.8048 384.3 65.4048 394.5 74.7048C419.9 97.8048 395.1 143.505 407.6 169.905C413.3 181.905 427.3 186.405 440.1 184.205C449 182.705 457.2 178.205 464.2 172.505C486.7 154.405 503.9 127.105 504.2 97.5048C504.2 95.9048 504.2 94.2048 504.1 92.6048C503.6 84.1048 501.4 75.2048 495.2 69.3048C485.1 59.7048 464.7 60.4048 456.9 72.7048C450.7 82.6048 452.5 97.9048 458.9 107.205C464.7 115.705 474.4 120.605 484.2 123.805C494.3 127.105 504.9 129.005 515.4 128.505C525.9 128.005 536.5 124.805 545.2 118.805" stroke="black" stroke-width="4" stroke-miterlimit="10" stroke-linecap="round"/>
<path d="M284.5 320.004L546.1 140.004" stroke="white" stroke-width="4" stroke-miterlimit="10" stroke-linecap="round"/>
<path d="M422.1 237.104L542.2 320.404" stroke="white" stroke-width="4" stroke-miterlimit="10" stroke-linecap="round"/>
</svg>
