<svg width="351" height="236" viewBox="0 0 351 236" fill="none" xmlns="http://www.w3.org/2000/svg">
<path d="M139.114 32.4653C139.114 32.4653 120.868 33.2312 108.446 46.2701C96.0236 59.3089 97.1203 75.4113 97.1203 75.4113C97.1203 75.4113 114.005 77.709 126.824 63.1383C139.643 48.5677 139.114 32.4653 139.114 32.4653Z" fill="#FF0077" stroke="black" stroke-width="4"/>
<path d="M35.9913 2.0166C35.9913 2.0166 36.048 24.2461 51.6846 39.9936C67.3211 55.7411 87.4577 55.1993 87.4577 55.1993C87.4577 55.1993 91.1636 34.7631 73.6174 18.4739C56.09 2.18472 35.9913 2.0166 35.9913 2.0166Z" fill="#FF0077" stroke="black" stroke-width="4"/>
<path d="M57.0556 234.063L33.2132 151.627C32.3245 148.582 34.688 145.556 37.9023 145.63L132.421 147.928C135.446 148.003 137.64 150.805 136.94 153.719L117.654 234.063H57.0556Z" fill="black"/>
<path d="M97.1191 153.14V75.4118L139.113 32.4658" stroke="black" stroke-width="4" stroke-miterlimit="10"/>
<path d="M87.193 153.14V55.1993L35.9913 2.0166" stroke="black" stroke-width="4" stroke-miterlimit="10"/>
<path d="M119.43 38.1069V51.7435H135.104" stroke="black" stroke-width="4" stroke-miterlimit="10"/>
<path d="M77.3622 22.3408V43.244H54.1437" stroke="black" stroke-width="4" stroke-miterlimit="10"/>
<path d="M8.40546 39.3584C8.40546 39.3584 8.85923 68.593 29.6954 89.0666C50.5315 109.54 77.0021 108.494 77.0021 108.494C77.0021 108.494 81.521 81.5572 58.1891 60.4111C34.8571 39.2463 8.40546 39.3584 8.40546 39.3584Z" fill="#FF0077" stroke="black" stroke-width="4"/>
<path d="M77.0028 149.254V108.475L9.08679 41.3945" stroke="black" stroke-width="4" stroke-miterlimit="10"/>
<path d="M50.683 55.7412V81.576C50.683 81.576 24.4582 80.3245 23.1914 81.576" stroke="black" stroke-width="4" stroke-miterlimit="10"/>
<path d="M57.9442 6.85449V24.6008H40.6816" stroke="black" stroke-width="4" stroke-miterlimit="10"/>
<path d="M137.714 89.9818L283.378 53.1069L333.275 89.9818L213.458 175.127L137.714 89.9818Z" fill="black"/>
<path d="M176.853 6.7052L324.011 6.77992C329.286 6.63048 333.351 11.3379 332.406 16.4563L315.332 102.722L213.477 175.108L149.192 102.853L169.007 12.9818C169.877 9.37648 173.11 6.77992 176.853 6.68652V6.7052Z" fill="white" stroke="black" stroke-width="4" stroke-miterlimit="10"/>
<path d="M324.011 6.7798L176.853 6.70508C173.091 6.79848 169.876 9.39504 169.007 13.0003L167.305 20.734H331.631L332.425 16.4749C333.37 11.3378 329.305 6.64904 324.03 6.79848L324.011 6.7798Z" fill="black"/>
<path d="M177.951 16.3443C179.538 16.3443 180.825 15.0731 180.825 13.5049C180.825 11.9368 179.538 10.6655 177.951 10.6655C176.363 10.6655 175.077 11.9368 175.077 13.5049C175.077 15.0731 176.363 16.3443 177.951 16.3443Z" fill="white"/>
<path d="M187.99 16.3443C189.577 16.3443 190.864 15.0731 190.864 13.5049C190.864 11.9368 189.577 10.6655 187.99 10.6655C186.402 10.6655 185.116 11.9368 185.116 13.5049C185.116 15.0731 186.402 16.3443 187.99 16.3443Z" fill="#FF0077"/>
<path d="M315.143 234.063L332.992 92.2798C333.105 91.3832 332.084 90.7667 331.328 91.2711L210.622 171.933L139.132 91.57C138.546 90.9162 137.469 91.1964 137.28 92.0557L107.992 234.437" fill="#FF0077"/>
<path d="M315.143 234.063L332.992 92.2798C333.105 91.3832 332.084 90.7667 331.328 91.2711L210.622 171.933L139.132 91.57C138.546 90.9162 137.469 91.1964 137.28 92.0557L107.992 234.437" stroke="black" stroke-width="4"/>
<path d="M170.122 50.2115C178.536 48.6984 188.273 49.1468 195.817 55.909C214.574 72.7586 196.252 106.14 205.517 125.456C209.733 134.254 220.095 137.486 229.586 135.861C236.166 134.74 242.198 131.452 247.397 127.305C264.055 114.042 276.799 94.1289 276.988 72.5158C276.988 71.3203 276.988 70.106 276.893 68.9105C276.534 62.7086 274.87 56.1892 270.313 51.9114C262.826 44.869 247.757 45.4294 242.009 54.4146C237.395 61.6252 238.794 72.8147 243.521 79.633C247.813 85.8161 254.998 89.4028 262.202 91.7565C269.633 94.1849 277.479 95.5859 285.288 95.175C293.097 94.764 300.906 92.5037 307.334 88.0951" stroke="black" stroke-width="4" stroke-miterlimit="10" stroke-linecap="round"/>
<path d="M120.5 232.517L331.328 91.271" stroke="black" stroke-width="4" stroke-miterlimit="10" stroke-linecap="round"/>
<path d="M232.5 187.017L294.5 233.017" stroke="black" stroke-width="4" stroke-miterlimit="10" stroke-linecap="round"/>
<path d="M2 233.517H348.5" stroke="black" stroke-width="4" stroke-linecap="round"/>
</svg>
