<svg width="277" height="258" viewBox="0 0 277 258" fill="none" xmlns="http://www.w3.org/2000/svg">
<path d="M274.165 205.72C274.165 199.68 265.416 194.22 250.006 189.839C245.319 188.503 240.021 187.279 234.162 186.167C211.32 181.819 180.002 179.209 143.755 179.209C110.174 179.209 60.2026 179.838 53.4927 183.316C41.6942 189.437 62.0807 195.879 41.4534 197.216C-8.16456 200.437 1.16188 215.142 6.04181 218.717C16.4438 226.335 51.5343 230.185 112.582 232.987C114.781 233.084 115.246 236.144 113.191 236.901C108.328 238.672 105.583 240.718 105.583 242.876C105.583 249.85 134.156 256.405 169.375 255.487C220.02 254.182 237.116 246.435 237.116 239.478C237.116 237.915 235.687 236.434 233.071 235.049C228.143 232.439 225.494 228.413 230.984 227.527C261.837 222.534 274.181 214.224 274.181 205.72H274.165Z" fill="#FF0077" stroke="black" stroke-width="4"/>
<path d="M98.4556 156.403C100.671 151.781 102.902 147.191 104.828 142.44C109.227 131.6 188.654 163.087 205.316 169.82C207.692 170.786 209.779 172.413 211.095 174.619C212.813 177.486 213.84 182.06 210.196 190.999C206.007 201.307 228.592 207.668 215.012 212.742C209.554 214.787 170.451 220.714 144.028 219.345C113.721 217.783 77.8123 212.5 73.0768 204.415C68.9674 197.393 87.2832 200.292 87.3955 190.886C87.6042 173.331 90.7505 173.588 94.0573 166.937C94.282 166.486 94.3944 165.986 94.5549 165.551" fill="#FF0077"/>
<path d="M98.4556 156.403C100.671 151.781 102.902 147.191 104.828 142.44C109.227 131.6 188.654 163.087 205.316 169.82C207.692 170.786 209.779 172.413 211.095 174.619C212.813 177.486 213.84 182.06 210.196 190.999C206.007 201.307 228.592 207.668 215.012 212.742C209.554 214.787 170.451 220.714 144.028 219.345C113.721 217.783 77.8123 212.5 73.0768 204.415C68.9674 197.393 87.2832 200.292 87.3955 190.886C87.6042 173.331 90.7505 173.588 94.0573 166.937C94.282 166.486 94.3944 165.986 94.5549 165.551" stroke="black" stroke-width="4"/>
<path d="M93.9448 154.052C92.9656 154.567 91.9222 155.147 91.4407 156.146C91.1357 156.79 91.6012 157.628 91.1999 158.223C89.4983 160.8 90.7344 164.972 92.9656 165.519C94.8438 165.987 100.221 166.244 101.955 165.342C103.689 164.44 104.395 159.931 105.968 158.787C106.739 158.223 107.573 157.676 108.52 157.628C109.467 157.579 110.527 158.223 110.559 159.174C110.559 159.512 110.463 159.834 110.559 160.156C110.72 160.752 111.442 160.994 112.052 161.09C116.659 161.718 121.491 158.755 123.032 154.358C123.224 153.794 123.385 153.182 123.24 152.603C123.016 151.685 122.133 151.089 121.266 150.67C118.072 149.124 114.428 144.952 110.88 144.662C107.862 144.421 109.082 142.037 106.369 143.648C103.785 145.194 96.6095 152.667 93.9288 154.068L93.9448 154.052Z" fill="#FF0077"/>
<path d="M105.037 138.623C105.037 138.623 96.8343 150.46 93.4312 154.745C92.0025 156.548 90.5739 158.449 90.4133 160.849C90.2689 163.103 91.9223 165.874 93.9288 166.888C94.4585 167.162 95.0364 167.339 95.6946 167.388C106.45 168.29 109.179 155.985 111.875 154.519C112.855 153.988 114.235 153.504 114.973 154.358C116.065 155.614 114.717 160.865 119.966 163.216C124.107 165.068 128.136 160.124 132.117 156.275" stroke="black" stroke-width="4" stroke-linecap="round"/>
<path d="M155.458 177.76C155.458 177.76 154.077 180.723 153.355 182.189C152.632 183.655 152.199 185.442 152.905 186.924C153.852 188.905 156.549 189.469 158.636 188.76C160.723 188.051 162.328 186.441 163.917 184.927C164.624 184.25 165.587 183.88 166.454 184.347C167.995 185.168 166.742 189.195 166.293 191.047C165.426 194.655 163.436 198.375 164.72 201.838C165.442 203.787 167.208 205.301 169.231 205.72C171.253 206.138 173.468 205.43 174.897 203.932C177 201.709 177.16 198.327 177.193 195.267C177.225 193.044 177.257 190.806 177.273 188.583C177.305 186.65 177.385 184.54 178.653 183.075C180.307 181.174 184.753 178.774 184.753 178.774" stroke="black" stroke-width="4" stroke-linecap="round"/>
<path d="M206.119 123.419L213.262 9.30852C213.824 0.337552 202.138 -3.54396 197.258 4.00969L135.055 100.258C119.42 104.671 108.312 117.814 100.992 140.056L101.168 140.12C104.636 136.094 122.759 139.686 157.881 151.314C193.02 162.959 209.698 170.899 210.084 176.214L210.276 176.278C217.709 153.714 216.44 136.368 206.103 123.419H206.119Z" fill="black"/>
</svg>
