<svg width="629" height="342" viewBox="0 0 629 342" fill="none" xmlns="http://www.w3.org/2000/svg">
<path d="M456.49 36.1396H50.6401C44.8301 36.1396 40.1201 40.8496 40.1201 46.6596V292.43C40.1201 298.24 44.8301 302.95 50.6401 302.95H456.49C462.3 302.95 467.01 298.24 467.01 292.43V46.6596C467.01 40.8496 462.3 36.1396 456.49 36.1396Z" fill="black"/>
<path d="M50.9301 42.2095H456.2C458.86 42.2095 461.01 44.3695 461.01 47.0195V282.759H46.1201V47.0195C46.1201 44.3595 48.2801 42.2095 50.9301 42.2095Z" fill="white" stroke="black" stroke-width="4" stroke-miterlimit="10"/>
<path d="M220.68 41.4897H286.44V48.2097C286.44 50.3897 284.67 52.1597 282.49 52.1597H224.63C222.45 52.1597 220.68 50.3897 220.68 48.2097V41.4897Z" fill="black"/>
<path d="M281.92 313.87V318.55C281.92 321.05 279.68 323.09 276.92 323.09H230.2C227.44 323.09 225.2 321.06 225.2 318.55V313.87H22.08C20.52 313.87 19.25 315.14 19.25 316.7V331.39C19.25 337.12 24.37 341.76 30.68 341.76H476.45C482.76 341.76 487.88 337.12 487.88 331.39V316.7C487.88 315.14 486.61 313.87 485.05 313.87H281.93H281.92Z" fill="black"/>
<path d="M196.15 75.2402H5C2.23858 75.2402 0 77.4788 0 80.2402V245.1C0 247.862 2.23858 250.1 5 250.1H196.15C198.911 250.1 201.15 247.862 201.15 245.1V80.2402C201.15 77.4788 198.911 75.2402 196.15 75.2402Z" fill="black"/>
<path d="M54.8599 172.84C74.6299 186.76 90.8799 222.47 108.53 221.87C123.44 221.36 133.32 205.75 148.74 201.57C141.14 193.5 149.78 162.47 125.55 164.69C111.68 165.96 108.82 175.11 95.0899 174.06C72.5199 172.33 77.4799 129.55 54.4099 128.37C34.6999 127.37 40.9099 155.76 35.7899 168.23C41.3299 167.16 47.8699 167.92 54.8599 172.83V172.84Z" fill="#FF0077" stroke="black" stroke-width="4"/>
<path d="M171.18 205.451C165.62 200.501 158.55 197.151 149.93 197.661C144.65 197.971 139.4 200.971 135.25 203.561C127.49 208.391 118.83 217.391 108.53 217.741C90.87 218.351 74.63 182.631 54.86 168.711C47.88 163.791 41.34 163.041 35.79 164.111C25.64 166.071 18.84 174.161 18.84 174.161V229.191C18.84 232.231 21.71 234.691 25.26 234.691H175.52C181.37 234.691 185.43 228.861 183.4 223.381C182.87 221.951 182.47 220.901 182.35 220.651C179.76 215.361 176.05 209.801 171.17 205.461L171.18 205.451Z" fill="white" stroke="black" stroke-width="4"/>
<path d="M15.25 97.3803C19.0055 97.3803 22.05 94.3358 22.05 90.5803C22.05 86.8247 19.0055 83.7803 15.25 83.7803C11.4944 83.7803 8.44995 86.8247 8.44995 90.5803C8.44995 94.3358 11.4944 97.3803 15.25 97.3803Z" fill="#FF0077"/>
<path d="M35.06 97.3803C38.8155 97.3803 41.86 94.3358 41.86 90.5803C41.86 86.8247 38.8155 83.7803 35.06 83.7803C31.3045 83.7803 28.26 86.8247 28.26 90.5803C28.26 94.3358 31.3045 97.3803 35.06 97.3803Z" fill="white"/>
<path d="M610.72 339.83H440.06" stroke="black" stroke-width="4" stroke-miterlimit="10" stroke-linecap="round"/>
<path d="M526.75 339.829L499.28 246.25C498.26 242.69 500.99 239.17 504.69 239.26L613.61 239.37C617.1 239.46 619.62 242.73 618.81 246.12L596.58 339.84H526.75V339.829Z" fill="black"/>
<path d="M560.35 244.93C554.68 225.56 554.2 184.98 559.78 159.47" stroke="black" stroke-width="4" stroke-miterlimit="10"/>
<path d="M561.94 145.53C563.71 134.1 569.99 123.7 579.65 117.33C586.94 112.52 596.74 109.5 609.18 112.79C609.18 112.79 630.03 116.76 626.13 129.16C623.67 136.98 613.6 148.74 594.71 147.45C575.82 146.16 571.95 144.93 565.45 150.44C561.91 153.44 559.77 159.49 559.77 159.49L561.93 145.54L561.94 145.53Z" fill="#FF0077" stroke="black" stroke-width="4" stroke-miterlimit="10"/>
<path d="M555.89 197.1C556.1 183.25 566.46 172.24 579.34 167.42C583.55 165.84 588.18 164.32 593.13 165.08C604.73 166.86 610.98 175.33 609.06 181.29C607.91 184.87 603.81 187.54 596.17 187.32C576 186.75 568.49 178.02 558.49 185.77" fill="#FF0077"/>
<path d="M555.89 197.1C556.1 183.25 566.46 172.24 579.34 167.42C583.55 165.84 588.18 164.32 593.13 165.08C604.73 166.86 610.98 175.33 609.06 181.29C607.91 184.87 603.81 187.54 596.17 187.32C576 186.75 568.49 178.02 558.49 185.77" stroke="black" stroke-width="4" stroke-miterlimit="10"/>
<path d="M609.05 181.29C609.05 181.29 579.34 167.41 564.55 181.39" stroke="black" stroke-width="4" stroke-miterlimit="10"/>
<path d="M556.66 183.29C557.35 169.38 545.41 154.35 531.02 148.96C526.32 147.2 521.15 145.5 515.63 146.35C502.68 148.34 495.7 157.8 497.85 164.45C499.14 168.44 503.71 171.43 512.24 171.19C534.76 170.55 547.05 159.78 553.92 170.25" fill="#FF0077"/>
<path d="M556.66 183.29C557.35 169.38 545.41 154.35 531.02 148.96C526.32 147.2 521.15 145.5 515.63 146.35C502.68 148.34 495.7 157.8 497.85 164.45C499.14 168.44 503.71 171.43 512.24 171.19C534.76 170.55 547.05 159.78 553.92 170.25" stroke="black" stroke-width="4" stroke-miterlimit="10"/>
<path d="M497.85 164.45C497.85 164.45 531.03 148.95 547.54 164.56" stroke="black" stroke-width="4" stroke-miterlimit="10"/>
<path d="M556.66 217.44C555.32 206.75 547.34 194.5 535.82 190.19C532.06 188.78 527.92 187.42 523.5 188.1C513.13 189.69 507.55 197.259 509.26 202.589C510.29 205.789 513.95 208.179 520.78 207.979C538.81 207.469 548.73 199.14 553.25 206.66" fill="#FF0077"/>
<path d="M556.66 217.44C555.32 206.75 547.34 194.5 535.82 190.19C532.06 188.78 527.92 187.42 523.5 188.1C513.13 189.69 507.55 197.259 509.26 202.589C510.29 205.789 513.95 208.179 520.78 207.979C538.81 207.469 548.73 199.14 553.25 206.66" stroke="black" stroke-width="4" stroke-miterlimit="10"/>
<path d="M509.27 202.59C509.27 202.59 535.83 190.19 549.05 202.68" stroke="black" stroke-width="4" stroke-miterlimit="10"/>
<path d="M557.05 225.57C557.41 213.84 568.03 205.04 579.22 202.14C582.87 201.19 586.88 200.33 590.95 201.4C600.49 203.91 604.97 211.54 602.84 216.36C601.56 219.25 597.9 221.12 591.53 220.27C574.72 218.01 568.08 208.19 560.1 215.53" fill="#FF0077"/>
<path d="M557.05 225.57C557.41 213.84 568.03 205.04 579.22 202.14C582.87 201.19 586.88 200.33 590.95 201.4C600.49 203.91 604.97 211.54 602.84 216.36C601.56 219.25 597.9 221.12 591.53 220.27C574.72 218.01 568.08 208.19 560.1 215.53" stroke="black" stroke-width="4" stroke-miterlimit="10"/>
<path d="M602.84 216.35C602.84 216.35 579.22 202.13 565.63 212.51" stroke="black" stroke-width="4" stroke-miterlimit="10"/>
<path d="M626.13 129.15C626.13 129.15 584.45 114.64 562 150.71" stroke="black" stroke-width="4" stroke-miterlimit="10"/>
<path d="M203.85 238.48L219.69 254.81C220.36 255.52 220.72 256.46 220.69 257.44C220.66 258.41 220.25 259.34 219.55 260.01L214.08 265.38C213.37 266.04 212.44 266.39 211.47 266.38C210.5 266.36 209.58 265.97 208.9 265.29L193.11 248.95L181.92 261.37C179.91 263.6 176.23 262.8 175.34 259.93L159.16 207.8C158.97 207.14 158.96 206.44 159.14 205.78C159.32 205.12 159.67 204.52 160.17 204.04C160.67 203.57 161.28 203.24 161.96 203.09C162.63 202.94 163.33 202.99 163.98 203.21L215.02 221.48C217.83 222.49 218.5 226.17 216.21 228.09L203.86 238.49L203.85 238.48Z" fill="white" stroke="black" stroke-width="4" stroke-linecap="round" stroke-linejoin="round"/>
<path d="M264.287 89.0935C264.287 82.8141 259.196 77.7236 252.917 77.7236C246.638 77.7236 241.547 82.8141 241.547 89.0935V238.63C241.547 244.91 246.638 250 252.917 250C259.196 250 264.287 244.91 264.287 238.63V89.0935Z" fill="white" stroke="black" stroke-width="4" stroke-miterlimit="10"/>
<path d="M241.547 225.438H264.287V241.354C264.287 246.127 260.414 250 255.64 250H250.194C245.42 250 241.547 246.127 241.547 241.354V225.438Z" fill="black"/>
<path d="M252.917 232.718C260.603 232.718 266.834 226.487 266.834 218.8C266.834 211.114 260.603 204.883 252.917 204.883C245.231 204.883 239 211.114 239 218.8C239 226.487 245.231 232.718 252.917 232.718Z" fill="#FF0077" stroke="black" stroke-width="4" stroke-miterlimit="10"/>
<path d="M321.012 89.093C321.012 82.8136 315.921 77.7231 309.642 77.7231C303.363 77.7231 298.272 82.8136 298.272 89.093V238.63C298.272 244.909 303.363 250 309.642 250C315.921 250 321.012 244.909 321.012 238.63V89.093Z" fill="white" stroke="black" stroke-width="4" stroke-miterlimit="10"/>
<path d="M300.996 95.6685H318.288C319.79 95.6685 321.012 96.8903 321.012 98.3918V238.63C321.012 244.905 315.917 250 309.642 250C303.367 250 298.272 244.905 298.272 238.63V98.3918C298.272 96.8903 299.494 95.6685 300.996 95.6685Z" fill="black"/>
<path d="M309.642 102.834C317.328 102.834 323.559 96.6034 323.559 88.9172C323.559 81.2309 317.328 75 309.642 75C301.956 75 295.725 81.2309 295.725 88.9172C295.725 96.6034 301.956 102.834 309.642 102.834Z" fill="#FF0077" stroke="black" stroke-width="4" stroke-miterlimit="10"/>
<path d="M377.747 89.0935C377.747 82.8141 372.657 77.7236 366.377 77.7236C360.098 77.7236 355.008 82.8141 355.008 89.0935V238.63C355.008 244.91 360.098 250 366.377 250C372.657 250 377.747 244.91 377.747 238.63V89.0935Z" fill="white" stroke="black" stroke-width="4" stroke-miterlimit="10"/>
<path d="M355.008 183.521H377.747V241.354C377.747 246.127 373.874 250 369.101 250H363.654C358.88 250 355.008 246.127 355.008 241.354V183.521Z" fill="black"/>
<path d="M366.377 202.15C374.064 202.15 380.295 195.919 380.295 188.233C380.295 180.546 374.064 174.315 366.377 174.315C358.691 174.315 352.46 180.546 352.46 188.233C352.46 195.919 358.691 202.15 366.377 202.15Z" fill="#FF0077" stroke="black" stroke-width="4" stroke-miterlimit="10"/>
<path d="M518.28 2H410.19C407.4 2 405.14 4.15 405.14 6.81V111.32C405.14 113.98 407.4 116.13 410.19 116.13H518.28C521.07 116.13 523.33 113.98 523.33 111.32V6.81C523.33 4.15 521.07 2 518.28 2Z" fill="white" stroke="black" stroke-width="4" stroke-miterlimit="10"/>
<path d="M463.73 32.1201H423.03C421.925 32.1201 421.03 33.0155 421.03 34.1201V47.1501C421.03 48.2547 421.925 49.1501 423.03 49.1501H463.73C464.835 49.1501 465.73 48.2547 465.73 47.1501V34.1201C465.73 33.0155 464.835 32.1201 463.73 32.1201Z" fill="#FF0077" stroke="black" stroke-width="4" stroke-miterlimit="10"/>
<path d="M521.35 2.8999H406.31V17.7199H521.35V2.8999Z" fill="black"/>
<path d="M486.25 57.4502H423.03C421.925 57.4502 421.03 58.3456 421.03 59.4502V72.4802C421.03 73.5848 421.925 74.4802 423.03 74.4802H486.25C487.355 74.4802 488.25 73.5848 488.25 72.4802V59.4502C488.25 58.3456 487.355 57.4502 486.25 57.4502Z" fill="#FF0077" stroke="black" stroke-width="4" stroke-miterlimit="10"/>
<path d="M465.23 82.79H423.03C421.925 82.79 421.03 83.6855 421.03 84.79V97.82C421.03 98.9246 421.925 99.82 423.03 99.82H465.23C466.335 99.82 467.23 98.9246 467.23 97.82V84.79C467.23 83.6855 466.335 82.79 465.23 82.79Z" fill="#FF0077" stroke="black" stroke-width="4" stroke-miterlimit="10"/>
<path d="M412.92 12.7901C414.98 12.7901 416.65 11.1201 416.65 9.06008C416.65 7.00006 414.98 5.33008 412.92 5.33008C410.86 5.33008 409.19 7.00006 409.19 9.06008C409.19 11.1201 410.86 12.7901 412.92 12.7901Z" fill="#FF0077"/>
<path d="M423.41 12.7901C425.47 12.7901 427.14 11.1201 427.14 9.06008C427.14 7.00006 425.47 5.33008 423.41 5.33008C421.35 5.33008 419.68 7.00006 419.68 9.06008C419.68 11.1201 421.35 12.7901 423.41 12.7901Z" fill="white"/>
</svg>
