<svg width="626" height="437" viewBox="0 0 626 437" fill="none" xmlns="http://www.w3.org/2000/svg">
<path d="M415.79 2H84.5V16.82H415.79V2Z" fill="black"/>
<path d="M91.1001 11.8902C93.1601 11.8902 94.8301 10.2202 94.8301 8.16018C94.8301 6.10015 93.1601 4.43018 91.1001 4.43018C89.0401 4.43018 87.3701 6.10015 87.3701 8.16018C87.3701 10.2202 89.0401 11.8902 91.1001 11.8902Z" fill="#FF0077"/>
<path d="M101.59 11.8902C103.65 11.8902 105.32 10.2202 105.32 8.16018C105.32 6.10015 103.65 4.43018 101.59 4.43018C99.5301 4.43018 97.8601 6.10015 97.8601 8.16018C97.8601 10.2202 99.5301 11.8902 101.59 11.8902Z" fill="white"/>
<path d="M415.79 77.6099H84.5V263.59H415.79V77.6099Z" fill="white" stroke="black" stroke-width="4" stroke-miterlimit="10"/>
<path d="M415.49 16.8198H84.5V77.6598H415.49V16.8198Z" fill="#FF0077" stroke="black" stroke-width="4"/>
<path d="M410.79 2H89.5C86.7386 2 84.5 4.23858 84.5 7V259.06C84.5 261.821 86.7386 264.06 89.5 264.06H410.79C413.551 264.06 415.79 261.821 415.79 259.06V7C415.79 4.23858 413.551 2 410.79 2Z" stroke="black" stroke-width="4"/>
<path d="M405.18 220.56L370.52 249.76L341.89 263.65C334.2 267.38 328.54 274.3 326.41 282.57L286.94 435.69L430.64 436.32L405.17 220.56H405.18Z" fill="black"/>
<path d="M446.65 216.43C450.36 216.43 461.88 222.4 461.88 222.4C461.88 222.4 464.67 232.28 465.03 242.82C465.77 264.49 470.69 433.21 470.69 433.21H410.96C410.96 433.21 403.05 250.55 404.24 236.95C405.43 223.35 411.26 218.37 420.01 216.42C428.75 214.47 446.66 216.42 446.66 216.42L446.65 216.43Z" fill="white"/>
<path d="M432.07 248.01L444.38 261.64L432.76 279.27L419.08 261.53L432.07 248.01Z" fill="black"/>
<path d="M436.39 271.33L463.28 433.22H409.37L428.95 267.06L436.39 271.33Z" fill="black"/>
<path d="M366.38 422.84C365.21 424.06 363.27 424.21 361.93 423.12C360.52 421.97 360.3 419.9 361.45 418.49L373.42 403.74C374.1 402.03 375.4 400.62 377.11 399.85L394.14 392.14C396.44 391.09 401.05 389.4 403.58 389.26L446.66 382.32L454.59 391.17L461.94 410.84L429.61 412.87L426.07 413.19L402.6 427.09C400.94 427.98 398.83 427.53 397.68 425.96C396.43 424.24 396.8 421.84 398.52 420.58L407.18 414.25C408.12 413.56 408.42 412.13 408.47 411.55C408.73 408.79 407.29 404.03 402.4 403.43C401.51 403.32 400.6 403.4 399.73 403.62L381.13 408.15L376.38 424.77C375.85 426.63 374.52 427.87 372.58 427.47C370.55 427.05 369.32 425.29 369.72 423.25" fill="white"/>
<path d="M455.15 169.81L459.56 224.4L432.07 248.01L406.6 225.55L406.84 196.01L438.79 164.99L455.15 169.81Z" fill="white" stroke="black" stroke-width="4" stroke-miterlimit="10"/>
<path d="M409.26 198.84L403.62 194.89L437.37 162.11L455.68 178.31" fill="#FF0077"/>
<path d="M439.07 117.54L395.16 121.06C388.01 121.63 383.29 135.48 383.86 142.63L386.75 178.63C388.12 195.7 403.07 208.43 420.14 207.06L446.08 204.98C453.23 204.41 458.56 198.15 457.99 190.99L453.06 129.44C452.49 122.29 446.23 116.96 439.07 117.53V117.54Z" fill="white"/>
<path d="M392.38 105.24L438.92 101.51C446.5 100.9 453.14 106.55 453.74 114.13L457.58 160.19C457 160.35 456.38 160.59 455.76 160.88C455.81 160.68 455.87 160.49 455.9 160.27C456.08 159.07 455.77 157.82 455.11 156.81C455.96 155.41 456.07 153.58 455.37 152.09C455.38 150.55 454.66 149.05 452.88 148.17C451.74 147.61 450.59 147.09 449.4 146.65C449.06 146.52 448.73 146.46 448.4 146.43C448.09 146.32 447.77 146.26 447.44 146.23C447.07 145.28 446.41 144.4 445.26 143.62C441.04 140.76 432.81 142.3 430.65 135.35C429.39 131.31 428.33 121.46 428.33 121.46C428.33 121.46 427.59 128.14 417.53 130.78C407.47 133.41 402.44 133.38 392.6 134.82C387.2 135.61 384.55 139.23 383.82 141.92L383.68 140.38L381.94 120.45C381.33 112.87 384.81 105.85 392.39 105.24H392.38Z" fill="black"/>
<path d="M422.92 180.18C442.75 180.26 448.35 166.21 448.35 166.21C449 166.11 449.57 165.19 450.2 164.99C450.41 165.09 448.56 165.48 448.79 165.56C451.25 166.46 453.29 165.17 454.32 163.26C454.91 162.76 455.36 162.11 455.65 161.31L459.5 198.23C460.26 205.52 454.83 211.99 447.52 212.51L414.69 214.43C400.49 215.26 388.31 204.41 387.5 190.2L387.04 182.13L394.45 181.73L422.93 180.18H422.92Z" fill="black"/>
<path d="M311.8 328.68L351.8 425.15H397.05C400.38 425.15 403.08 427.85 403.08 431.18V434.16H355.53H346.1H182.73L149.2 345.46C146.56 338.48 151.65 330.99 159.12 330.89L311.8 328.68Z" fill="black"/>
<path d="M546.67 433.22H453.24L446.65 382.32L474.44 377.6" fill="black"/>
<path d="M389.5 190.36L384.56 125.02" stroke="black" stroke-width="4" stroke-miterlimit="10"/>
<path d="M402.59 434.16V433.04C402.59 427.51 398.11 423.04 392.59 423.04H356.08C352.96 423.04 350.14 421.16 348.94 418.27L312.1 329.4" stroke="white" stroke-width="4" stroke-miterlimit="10" stroke-linecap="round"/>
<path d="M447.45 146.24L448.42 167.77L457.76 177.25L456.23 143.85L447.45 146.24Z" fill="black"/>
<path d="M456.63 150.52C463.22 150.27 466.39 153.22 466.64 159.81C466.89 166.4 463.94 169.57 457.35 169.82" fill="white"/>
<path d="M456.63 150.52C463.22 150.27 466.39 153.22 466.64 159.81C466.89 166.4 463.94 169.57 457.35 169.82" stroke="black" stroke-width="4"/>
<path d="M546.67 433.22H568.53C594.19 433.22 611.51 407 601.45 383.4L549.48 261.55C547.97 258.61 545.43 256.33 542.33 255.16L489.69 235.29L461.09 218.46L465.03 270.27L469.28 391.6" fill="black"/>
<path d="M423.29 212.13L450.61 230.74L459.56 224.4V207.17L423.29 212.13Z" fill="black"/>
<path d="M98.4099 434.77H623.02" stroke="black" stroke-width="4" stroke-miterlimit="10" stroke-linecap="round"/>
<path d="M409.37 390.72L551.55 364.93" stroke="white" stroke-width="4" stroke-miterlimit="10" stroke-linecap="round"/>
<path fill-rule="evenodd" clip-rule="evenodd" d="M160.31 40.7298C157.66 39.0098 154.23 38.8498 151.51 40.4598C150.28 41.1898 149.24 42.1798 148.51 43.4198C146.69 46.4898 147.23 50.1698 148.83 53.2098C151.5 58.2898 157.01 62.0598 161.89 64.4898C162.2 64.6498 162.57 64.6498 162.88 64.4898C167.76 62.0598 173.27 58.2898 175.94 53.2098C177.53 50.1698 178.07 46.4898 176.25 43.4198C175.52 42.1798 174.47 41.1898 173.24 40.4598C170.52 38.8498 167.1 39.0098 164.45 40.7298L162.38 42.0698L160.31 40.7298Z" fill="white" stroke="black" stroke-width="4" stroke-miterlimit="10"/>
<path d="M347.4 41.7202H329.28C326.005 41.7202 323.35 44.3752 323.35 47.6502V56.3002C323.35 59.5753 326.005 62.2302 329.28 62.2302H347.4C350.675 62.2302 353.33 59.5753 353.33 56.3002V47.6502C353.33 44.3752 350.675 41.7202 347.4 41.7202Z" fill="white" stroke="black" stroke-width="4"/>
<path d="M324.99 43.72L341.73 29.04" stroke="black" stroke-width="4" stroke-miterlimit="10" stroke-linecap="round"/>
<path d="M207.43 39.52H234.36C236.6 39.52 238.43 41.34 238.43 43.59V60.32C238.43 62.56 236.61 64.39 234.36 64.39H207.43C205.19 64.39 203.36 62.57 203.36 60.32V43.59C203.36 41.35 205.18 39.52 207.43 39.52Z" fill="white"/>
<path d="M234.35 41.52C235.49 41.52 236.42 42.44 236.42 43.59V60.32C236.42 61.46 235.5 62.39 234.35 62.39H207.42C206.28 62.39 205.35 61.47 205.35 60.32V43.59C205.35 42.45 206.27 41.52 207.42 41.52H234.35ZM234.35 37.52H207.42C204.08 37.52 201.35 40.24 201.35 43.59V60.32C201.35 63.66 204.07 66.39 207.42 66.39H234.35C237.69 66.39 240.42 63.67 240.42 60.32V43.59C240.42 40.25 237.7 37.52 234.35 37.52Z" fill="black"/>
<path d="M220.89 41.3101V63.5801" stroke="black" stroke-width="4" stroke-miterlimit="10" stroke-linecap="round"/>
<path d="M125.07 219.53H7C4.23858 219.53 2 221.768 2 224.53V325.86C2 328.621 4.23858 330.86 7 330.86H125.07C127.831 330.86 130.07 328.621 130.07 325.86V224.53C130.07 221.768 127.831 219.53 125.07 219.53Z" fill="white" stroke="black" stroke-width="4"/>
<path d="M36.93 281.67C49.52 290.53 59.86 313.27 71.1 312.89C80.59 312.56 86.88 302.62 96.7 299.97C91.86 294.83 97.36 275.08 81.93 276.49C73.1 277.3 71.28 283.12 62.53 282.46C48.16 281.36 51.32 254.12 36.63 253.37C24.08 252.73 28.03 270.81 24.77 278.75C28.3 278.07 32.46 278.55 36.91 281.68L36.93 281.67Z" fill="#FF0077" stroke="black" stroke-width="4"/>
<path d="M110.99 302.43C107.45 299.28 102.95 297.15 97.46 297.47C94.1 297.67 90.76 299.58 88.12 301.22C83.18 304.3 77.66 310.02 71.11 310.25C59.87 310.64 49.53 287.9 36.94 279.03C32.49 275.9 28.33 275.42 24.8 276.1C18.34 277.35 14.01 282.5 14.01 282.5V317.54C14.01 319.47 15.84 321.04 18.09 321.04H113.76C117.48 321.04 120.07 317.33 118.78 313.84C118.44 312.93 118.19 312.26 118.11 312.1C116.46 308.73 114.1 305.19 110.99 302.43Z" fill="black"/>
<path d="M130.07 219.53H2V236.93H130.07V219.53Z" fill="black"/>
<path d="M10.63 231.84C13.0214 231.84 14.96 229.901 14.96 227.51C14.96 225.118 13.0214 223.18 10.63 223.18C8.23865 223.18 6.30005 225.118 6.30005 227.51C6.30005 229.901 8.23865 231.84 10.63 231.84Z" fill="#FF0077"/>
<path d="M23.2499 231.84C25.6413 231.84 27.5799 229.901 27.5799 227.51C27.5799 225.118 25.6413 223.18 23.2499 223.18C20.8585 223.18 18.9199 225.118 18.9199 227.51C18.9199 229.901 20.8585 231.84 23.2499 231.84Z" fill="white"/>
<path d="M277.32 40.59L288.98 48.89C291.08 50.39 291.08 53.51 288.98 55L277.32 63.3C274.84 65.07 271.39 63.3 271.39 60.24V43.63C271.39 40.58 274.84 38.8 277.32 40.57V40.59Z" fill="white" stroke="black" stroke-width="4" stroke-miterlimit="10"/>
<path d="M172.12 106.54C172.12 101.161 167.759 96.7998 162.38 96.7998C157.001 96.7998 152.64 101.161 152.64 106.54V234.65C152.64 240.029 157.001 244.39 162.38 244.39C167.759 244.39 172.12 240.029 172.12 234.65V106.54Z" fill="white" stroke="black" stroke-width="4" stroke-miterlimit="10"/>
<path d="M152.64 179.55H172.12V234.65C172.12 240.03 167.76 244.39 162.38 244.39C157 244.39 152.64 240.03 152.64 234.65V179.55Z" fill="black"/>
<path d="M162.38 191.48C168.969 191.48 174.31 186.138 174.31 179.55C174.31 172.961 168.969 167.62 162.38 167.62C155.791 167.62 150.45 172.961 150.45 179.55C150.45 186.138 155.791 191.48 162.38 191.48Z" fill="#FF0077" stroke="black" stroke-width="4" stroke-miterlimit="10"/>
<path d="M230.63 106.54C230.63 101.161 226.269 96.7998 220.89 96.7998C215.511 96.7998 211.15 101.161 211.15 106.54V234.65C211.15 240.029 215.511 244.39 220.89 244.39C226.269 244.39 230.63 240.029 230.63 234.65V106.54Z" fill="white" stroke="black" stroke-width="4" stroke-miterlimit="10"/>
<path d="M211.15 223.34H230.63V234.65C230.63 240.03 226.27 244.39 220.89 244.39C215.51 244.39 211.15 240.03 211.15 234.65V223.34Z" fill="black"/>
<path d="M220.89 229.59C227.479 229.59 232.82 224.249 232.82 217.66C232.82 211.071 227.479 205.73 220.89 205.73C214.301 205.73 208.96 211.071 208.96 217.66C208.96 224.249 214.301 229.59 220.89 229.59Z" fill="#FF0077" stroke="black" stroke-width="4" stroke-miterlimit="10"/>
<path d="M289.14 106.54C289.14 101.161 284.779 96.7998 279.4 96.7998C274.021 96.7998 269.66 101.161 269.66 106.54V234.65C269.66 240.029 274.021 244.39 279.4 244.39C284.779 244.39 289.14 240.029 289.14 234.65V106.54Z" fill="white" stroke="black" stroke-width="4" stroke-miterlimit="10"/>
<path d="M269.66 112.18H289.14V234.65C289.14 240.03 284.78 244.39 279.4 244.39C274.02 244.39 269.66 240.03 269.66 234.65V112.18Z" fill="black"/>
<path d="M279.4 120.66C285.989 120.66 291.33 115.319 291.33 108.73C291.33 102.141 285.989 96.7998 279.4 96.7998C272.811 96.7998 267.47 102.141 267.47 108.73C267.47 115.319 272.811 120.66 279.4 120.66Z" fill="#FF0077" stroke="black" stroke-width="4" stroke-miterlimit="10"/>
<path d="M347.65 106.54C347.65 101.161 343.289 96.7998 337.91 96.7998C332.531 96.7998 328.17 101.161 328.17 106.54V234.65C328.17 240.029 332.531 244.39 337.91 244.39C343.289 244.39 347.65 240.029 347.65 234.65V106.54Z" fill="white" stroke="black" stroke-width="4" stroke-miterlimit="10"/>
<path d="M328.17 187.43H347.65V234.64C347.65 240.02 343.29 244.38 337.91 244.38C332.53 244.38 328.17 240.02 328.17 234.64V187.43Z" fill="black"/>
<path d="M337.91 203.4C344.499 203.4 349.84 198.059 349.84 191.47C349.84 184.881 344.499 179.54 337.91 179.54C331.321 179.54 325.98 184.881 325.98 191.47C325.98 198.059 331.321 203.4 337.91 203.4Z" fill="#FF0077" stroke="black" stroke-width="4" stroke-miterlimit="10"/>
<path d="M278.73 262.7L300.4 285.04C301.31 286.01 301.8 287.3 301.77 288.63C301.73 289.96 301.17 291.23 300.21 292.15L292.72 299.5C291.75 300.4 290.47 300.89 289.15 300.86C287.83 300.84 286.57 300.3 285.63 299.37L264.03 277.01L248.72 294C245.97 297.05 240.94 295.95 239.72 292.02L217.58 220.69C217.32 219.79 217.31 218.83 217.55 217.92C217.79 217.01 218.28 216.19 218.96 215.54C219.64 214.89 220.48 214.44 221.4 214.24C222.32 214.04 223.27 214.1 224.16 214.4L294 239.4C297.85 240.78 298.76 245.81 295.63 248.45L278.73 262.68V262.7Z" fill="white" stroke="black" stroke-width="4" stroke-linecap="round" stroke-linejoin="round"/>
</svg>
