<svg width="303" height="335" viewBox="0 0 303 335" fill="none" xmlns="http://www.w3.org/2000/svg">
<path d="M282.527 111.126C294.181 132.343 300.834 156.7 300.898 182.601C301.087 264.481 234.503 331.732 152.6 332.355C69.532 332.977 2 265.844 2 182.944C2 101.732 66.8239 35.6446 147.572 33.587C149.693 33.5328 151.453 35.2294 151.453 37.3592V181.951L277.337 109.655C279.169 108.599 281.507 109.267 282.527 111.126Z" fill="#FF0077" stroke="black" stroke-width="4" stroke-miterlimit="10"/>
<path d="M151.454 46.7988C76.2397 46.7988 15.2704 107.751 15.2704 182.944C15.2704 258.136 76.2397 319.088 151.454 319.088C226.668 319.088 287.637 258.136 287.637 182.944C287.637 158.144 281.002 134.888 269.411 114.862L151.454 182.944" fill="white"/>
<path d="M151.454 46.7988C76.2397 46.7988 15.2704 107.751 15.2704 182.944C15.2704 258.136 76.2397 319.088 151.454 319.088C226.668 319.088 287.637 258.136 287.637 182.944C287.637 158.144 281.002 134.888 269.411 114.862L151.454 182.944" stroke="black" stroke-width="4" stroke-miterlimit="10"/>
<path d="M124.281 143.525C132.707 143.525 139.537 136.696 139.537 128.273C139.537 119.85 132.707 113.021 124.281 113.021C115.856 113.021 109.025 119.85 109.025 128.273C109.025 136.696 115.856 143.525 124.281 143.525Z" fill="#FF0077" stroke="black" stroke-width="4" stroke-miterlimit="10"/>
<path d="M62.166 250.8C70.5916 250.8 77.4219 243.971 77.4219 235.548C77.4219 227.125 70.5916 220.297 62.166 220.297C53.7404 220.297 46.9102 227.125 46.9102 235.548C46.9102 243.971 53.7404 250.8 62.166 250.8Z" fill="#FF0077" stroke="black" stroke-width="4" stroke-miterlimit="10"/>
<path d="M112.348 293.035C120.774 293.035 127.604 286.206 127.604 277.783C127.604 269.36 120.774 262.532 112.348 262.532C103.923 262.532 97.0924 269.36 97.0924 277.783C97.0924 286.206 103.923 293.035 112.348 293.035Z" fill="#FF0077" stroke="black" stroke-width="4" stroke-miterlimit="10"/>
<path d="M252.134 212.454C260.56 212.454 267.39 205.626 267.39 197.203C267.39 188.78 260.56 181.951 252.134 181.951C243.709 181.951 236.878 188.78 236.878 197.203C236.878 205.626 243.709 212.454 252.134 212.454Z" fill="#FF0077" stroke="black" stroke-width="4" stroke-miterlimit="10"/>
<path d="M183.058 164.488C185.902 169.398 191.39 172.52 197.429 172.06C205.833 171.41 212.116 164.082 211.466 155.68C211.277 153.262 210.528 151.015 209.363 149.056C200.697 154.372 191.859 159.408 183.058 164.488Z" fill="#FF0077" stroke="black" stroke-width="4" stroke-miterlimit="10"/>
<path d="M188.131 261.476C196.556 261.476 203.386 254.647 203.386 246.224C203.386 237.801 196.556 230.973 188.131 230.973C179.705 230.973 172.875 237.801 172.875 246.224C172.875 254.647 179.705 261.476 188.131 261.476Z" fill="#FF0077" stroke="black" stroke-width="4" stroke-miterlimit="10"/>
<path d="M172.875 285.237C167.757 285.237 163.613 289.38 163.613 294.497C163.613 299.613 167.757 303.756 172.875 303.756C177.994 303.756 182.137 299.613 182.137 294.497C182.137 289.38 177.994 285.237 172.875 285.237ZM172.875 297.818C171.043 297.818 169.553 296.328 169.553 294.497C169.553 292.665 171.043 291.175 172.875 291.175C174.708 291.175 176.197 292.665 176.197 294.497C176.197 296.328 174.708 297.818 172.875 297.818Z" fill="black"/>
<path d="M127.604 226.289C122.486 226.289 118.342 230.431 118.342 235.548C118.342 240.665 122.486 244.807 127.604 244.807C132.723 244.807 136.866 240.665 136.866 235.548C136.866 230.431 132.723 226.289 127.604 226.289ZM127.604 238.869C125.772 238.869 124.282 237.38 124.282 235.548C124.282 233.716 125.772 232.227 127.604 232.227C129.437 232.227 130.926 233.716 130.926 235.548C130.926 237.38 129.437 238.869 127.604 238.869Z" fill="black"/>
<path d="M91.7662 167.503C86.6479 167.503 82.5044 171.645 82.5044 176.762C82.5044 181.879 86.6479 186.021 91.7662 186.021C96.8846 186.021 101.028 181.879 101.028 176.762C101.028 171.645 96.8846 167.503 91.7662 167.503ZM91.7662 180.074C89.9337 180.074 88.4443 178.585 88.4443 176.753C88.4443 174.921 89.9337 173.432 91.7662 173.432C93.5987 173.432 95.0882 174.921 95.0882 176.753C95.0882 178.585 93.5987 180.074 91.7662 180.074Z" fill="black"/>
<path d="M97.0918 85.8665C91.9734 85.8665 87.83 90.0087 87.83 95.1257C87.83 100.243 91.9734 104.385 97.0918 104.385C102.21 104.385 106.354 100.243 106.354 95.1257C106.354 90.0087 102.21 85.8665 97.0918 85.8665ZM97.0918 98.4467C95.2593 98.4467 93.7698 96.9577 93.7698 95.1257C93.7698 93.2937 95.2593 91.8046 97.0918 91.8046C98.9243 91.8046 100.414 93.2937 100.414 95.1257C100.414 96.9577 98.9243 98.4467 97.0918 98.4467Z" fill="black"/>
<path d="M216.16 180.074C211.042 180.074 206.899 184.216 206.899 189.333C206.899 194.45 211.042 198.592 216.16 198.592C221.279 198.592 225.422 194.45 225.422 189.333C225.422 184.216 221.279 180.074 216.16 180.074ZM216.16 192.654C214.328 192.654 212.838 191.165 212.838 189.333C212.838 187.501 214.328 186.012 216.16 186.012C217.993 186.012 219.482 187.501 219.482 189.333C219.482 191.165 217.993 192.654 216.16 192.654Z" fill="black"/>
<path d="M50.6389 175.832C59.0645 175.832 65.8948 169.004 65.8948 160.581C65.8948 152.158 59.0645 145.329 50.6389 145.329C42.2133 145.329 35.3831 152.158 35.3831 160.581C35.3831 169.004 42.2133 175.832 50.6389 175.832Z" fill="#FF0077" stroke="black" stroke-width="4" stroke-miterlimit="10"/>
<path d="M151.453 182.944V48.8477" stroke="black" stroke-width="4" stroke-miterlimit="10" stroke-linecap="round"/>
<path d="M151.453 182.944L22.022 108.238" stroke="black" stroke-width="4" stroke-miterlimit="10" stroke-linecap="round"/>
<path d="M151.453 182.944L22.022 257.649" stroke="black" stroke-width="4" stroke-miterlimit="10" stroke-linecap="round"/>
<path d="M151.453 182.944V332.355" stroke="black" stroke-width="4" stroke-miterlimit="10" stroke-linecap="round"/>
<path d="M151.453 182.944L280.875 257.649" stroke="black" stroke-width="4" stroke-miterlimit="10" stroke-linecap="round"/>
<path d="M294.727 70.2825C269.063 28.3723 225.007 3.28241 172.569 2.00092C170.537 1.9558 168.858 3.5712 168.858 5.60173V142.698C168.858 146.547 173.025 148.953 176.358 147.029L295.139 78.4662C296.899 77.4554 297.468 75.1903 296.412 73.4576L294.727 70.2825Z" fill="#FF0077" stroke="black" stroke-width="4" stroke-miterlimit="10"/>
<path d="M286.816 83.276C263.264 42.5842 219.257 15.2126 168.858 15.2126V142.699C168.858 146.547 173.024 148.953 176.358 147.029L286.816 83.276Z" fill="white" stroke="black" stroke-width="4" stroke-miterlimit="10"/>
<path d="M225.855 118.373C223.138 114.212 218.444 111.469 213.109 111.469C204.686 111.469 197.853 118.301 197.853 126.721C197.853 129.112 198.413 131.359 199.397 133.372L225.855 118.373Z" fill="#FF0077" stroke="black" stroke-width="4" stroke-miterlimit="10"/>
<path d="M224.447 77.0221C232.872 77.0221 239.703 70.1938 239.703 61.7706C239.703 53.3474 232.872 46.519 224.447 46.519C216.021 46.519 209.191 53.3474 209.191 61.7706C209.191 70.1938 216.021 77.0221 224.447 77.0221Z" fill="#FF0077" stroke="black" stroke-width="4" stroke-miterlimit="10"/>
<path d="M197.285 79.9282C192.166 79.9282 188.023 84.0705 188.023 89.1874C188.023 94.3044 192.166 98.4467 197.285 98.4467C202.403 98.4467 206.546 94.3044 206.546 89.1874C206.546 84.0705 202.403 79.9282 197.285 79.9282ZM197.285 92.4995C195.452 92.4995 193.963 91.0104 193.963 89.1784C193.963 87.3464 195.452 85.8574 197.285 85.8574C199.117 85.8574 200.607 87.3464 200.607 89.1784C200.607 91.0104 199.117 92.4995 197.285 92.4995Z" fill="black"/>
</svg>
