<svg width="321" height="245" viewBox="0 0 321 245" fill="none" xmlns="http://www.w3.org/2000/svg">
<g clip-path="url(#clip0_556_484)">
<path d="M318.56 102.28V110.11C318.56 116.18 313.86 121.16 307.9 121.62C307.6 121.64 307.3 121.65 307.01 121.65H13.54C13.24 121.65 12.94 121.64 12.66 121.62C6.69999 121.17 2.00999 116.19 2.00999 110.11V102.28C2.00999 97.28 5.19999 93.02 9.63999 91.43C10.86 90.99 12.17 90.75 13.54 90.75H307.03C308.22 90.75 309.38 90.93 310.47 91.26C315.17 92.72 318.58 97.1 318.58 102.28H318.56Z" fill="white" stroke="black" stroke-width="4" stroke-linecap="round" stroke-linejoin="round"/>
<path d="M121.75 90.7499H117.96C118.97 90.3399 119.86 89.8499 120.44 89.3999C120.85 89.8699 121.29 90.3199 121.75 90.7499Z" fill="#FF0077" stroke="black" stroke-width="4" stroke-linecap="round" stroke-linejoin="round"/>
<path d="M97.91 74.3501C95.65 74.3501 93.83 76.1801 93.83 78.4401C93.83 80.7001 95.66 86.0501 97.91 86.0501C100.16 86.0501 101.99 80.6901 101.99 78.4401C101.99 76.1901 100.16 74.3501 97.91 74.3501Z" fill="#FF0077" stroke="black" stroke-width="4" stroke-linecap="round" stroke-linejoin="round"/>
<path d="M115.09 89.4C114.51 89.85 113.61 90.34 112.61 90.75H106.61C105.59 88.85 108.39 84.37 110.04 83C110.31 82.78 110.6 82.6 110.9 82.46C111.85 84.96 113.28 87.37 115.09 89.41V89.4Z" fill="#FF0077" stroke="black" stroke-width="4" stroke-linecap="round" stroke-linejoin="round"/>
<path d="M90.51 90.5501C90.48 90.6201 90.43 90.6801 90.38 90.7501H82.21C82.09 90.7001 81.97 90.6501 81.87 90.5901C79.88 89.5301 79.12 87.0601 80.18 85.0701C81.24 83.0901 83.71 82.3301 85.7 83.3801C87.69 84.4401 91.57 88.5701 90.52 90.5601L90.51 90.5501Z" fill="#FF0077" stroke="black" stroke-width="4" stroke-linecap="round" stroke-linejoin="round"/>
<path d="M116.2 65.51C122.6 63.28 130.83 67.38 131.03 67.47C130.86 67.23 126.84 61.66 124.7 55.17C124.67 55.07 124.63 54.96 124.6 54.86C122.37 47.87 122.41 39.92 131.78 36.44C131.16 34.64 129.9 32.96 127.6 31.75C125.62 30.7 123.76 30.17 122.03 29.98C120.58 29.83 119.23 29.92 117.99 30.2C112.39 31.41 108.95 36.02 108.7 36.34C108.87 35.83 112.41 25.68 113.02 16.62C113.19 13.96 113.12 11.38 112.63 9.16995C112.03 6.45995 110.82 4.29995 108.69 3.17995C95.25 -3.88005 83.44 22.8 83.44 22.8C83.44 22.8 71.81 3.90995 58.91 16.44C49.2 25.87 52.78 35.11 55.13 39.09" fill="white"/>
<path d="M116.2 65.51C122.6 63.28 130.83 67.38 131.03 67.47C130.86 67.23 126.84 61.66 124.7 55.17C124.67 55.07 124.63 54.96 124.6 54.86C122.37 47.87 122.41 39.92 131.78 36.44C131.16 34.64 129.9 32.96 127.6 31.75C125.62 30.7 123.76 30.17 122.03 29.98C120.58 29.83 119.23 29.92 117.99 30.2C112.39 31.41 108.95 36.02 108.7 36.34C108.87 35.83 112.41 25.68 113.02 16.62C113.19 13.96 113.12 11.38 112.63 9.16995C112.03 6.45995 110.82 4.29995 108.69 3.17995C95.25 -3.88005 83.44 22.8 83.44 22.8C83.44 22.8 71.81 3.90995 58.91 16.44C49.2 25.87 52.78 35.11 55.13 39.09" stroke="black" stroke-width="4" stroke-linecap="round" stroke-linejoin="round"/>
<path d="M137.74 13.6C129.43 9.33001 119.67 10.82 113.04 16.63C112.43 25.69 108.9 35.85 108.72 36.35C108.96 36.02 112.41 31.42 118.01 30.21C116.59 29.41 115.22 28.19 114.62 27.34C113.47 25.7 113.88 23.43 115.53 22.29C117.17 21.14 119.43 21.55 120.58 23.19C121.53 24.57 122.66 28.17 122.04 29.98C123.77 30.16 125.63 30.7 127.61 31.75C129.91 32.96 131.18 34.64 131.79 36.44C131.85 36.41 131.91 36.39 131.96 36.37C133.06 35.97 134.15 35.69 135.21 35.52C136.54 34.22 138.72 33.07 139.97 32.8C141.92 32.38 143.86 33.61 144.29 35.57C144.37 35.94 144.39 36.3 144.36 36.65C145.96 37.32 147.48 38.19 148.91 39.22C151.69 29.32 147.25 18.49 137.74 13.6ZM135.47 25.92C134.56 27.7 130.93 31.19 129.15 30.28C127.37 29.37 128.11 24.38 129.03 22.6C129.95 20.82 132.13 20.12 133.92 21.04C135.7 21.96 136.4 24.14 135.48 25.93L135.47 25.92Z" fill="#FF0077" stroke="black" stroke-width="4" stroke-linecap="round" stroke-linejoin="round"/>
<path d="M135.47 25.9199C136.39 24.1399 135.69 21.9499 133.91 21.0299C132.13 20.1099 129.94 20.8099 129.02 22.5899C128.1 24.3699 127.36 29.3499 129.14 30.2699C130.92 31.1899 134.55 27.6999 135.46 25.9099L135.47 25.9199Z" fill="#FF0077" stroke="black" stroke-width="4" stroke-linecap="round" stroke-linejoin="round"/>
<path d="M144.36 36.65C141.56 35.49 138.5 34.98 135.21 35.52C136.54 34.22 138.72 33.07 139.97 32.8C141.92 32.38 143.86 33.61 144.29 35.57C144.37 35.94 144.39 36.3 144.36 36.65Z" fill="#FF0077" stroke="black" stroke-width="4" stroke-linecap="round" stroke-linejoin="round"/>
<path d="M120.58 23.1901C119.44 21.5501 117.17 21.1401 115.53 22.2901C113.89 23.4301 113.47 25.6901 114.62 27.3401C115.22 28.1901 116.58 29.4101 118.01 30.2101C119.25 29.9301 120.6 29.8401 122.05 29.9901C122.66 28.1701 121.54 24.5701 120.59 23.2001L120.58 23.1901Z" fill="#FF0077" stroke="black" stroke-width="4" stroke-linecap="round" stroke-linejoin="round"/>
<path d="M267.02 84.25C266.82 86.58 266.6 88.77 266.35 90.75H253.81C254.14 89.58 254.42 88.37 254.65 87.12C255.57 82.19 255.61 77.43 254.91 73.32C254.36 70.03 253.33 67.15 251.91 64.92C250.27 62.31 248.08 60.58 245.48 60.09C237.89 58.67 229.68 68.47 227.16 81.98C226.59 85.01 226.36 87.97 226.42 90.76H203.58C207.2 81.4 226.94 33.91 252.95 39.27C259.98 40.72 263.83 46.99 265.78 55.01C266.28 57.05 266.65 59.21 266.93 61.43C267.87 68.98 267.62 77.25 267.03 84.25H267.02Z" fill="white" stroke="black" stroke-width="4" stroke-linecap="round" stroke-linejoin="round"/>
<path d="M254.64 87.12C254.4 88.36 254.13 89.58 253.8 90.75H226.41C226.35 87.97 226.58 85.01 227.15 81.97C229.68 68.47 237.88 58.67 245.47 60.08C248.07 60.57 250.25 62.3 251.9 64.91C253.32 67.14 254.35 70.02 254.9 73.31C255.61 77.43 255.57 82.18 254.64 87.11V87.12Z" fill="#FF0077" stroke="black" stroke-width="4" stroke-linecap="round" stroke-linejoin="round"/>
<path d="M305.76 90.74C305.9 90.74 292.85 90.74 292.85 90.74C293.08 89.12 293.19 87.54 293.19 86.03C293.19 79.05 290.8 73.55 286.35 71.82C280.3 69.47 272.36 74.84 267.03 84.23C267.63 77.23 267.86 68.96 266.93 61.41C276.43 53.58 287.19 48.6 297.37 52.67C297.42 52.68 297.46 52.7 297.51 52.72H297.52C309.41 57.58 309.1 75.22 305.77 90.73L305.76 90.74Z" fill="white" stroke="black" stroke-width="4" stroke-linecap="round" stroke-linejoin="round"/>
<path d="M293.19 86.0399C293.19 87.5499 293.08 89.1299 292.85 90.7499H266.35C266.6 88.7699 266.83 86.5799 267.02 84.2499C272.35 74.8599 280.29 69.4899 286.34 71.8399C290.8 73.5699 293.18 79.0599 293.18 86.0499L293.19 86.0399Z" fill="#FF0077" stroke="black" stroke-width="4" stroke-linecap="round" stroke-linejoin="round"/>
<path d="M201.44 73.6399C197.38 80.8399 194.34 86.4199 192.06 90.7499H116.4C115.94 90.3199 115.5 89.8699 115.09 89.3999C113.28 87.3699 111.84 84.9599 110.9 82.4499C109.09 77.6999 109.03 72.5999 111.55 69.0199C111.83 68.5999 112.16 68.2199 112.52 67.8399C113.61 66.7199 114.87 65.9699 116.21 65.5099C122.61 63.2799 130.84 67.3799 131.04 67.4699C130.87 67.2299 126.85 61.6499 124.71 55.1699C124.68 55.0699 124.64 54.9599 124.61 54.8599C122.38 47.8699 122.42 39.9199 131.79 36.4399C131.84 36.4099 131.91 36.3899 131.96 36.3699C133.06 35.9699 134.15 35.6899 135.21 35.5199C138.5 34.9899 141.55 35.4899 144.36 36.6499C145.96 37.3199 147.48 38.1899 148.91 39.2199C149.56 39.6699 150.17 40.1599 150.78 40.6799C153.17 42.7099 155.27 45.0899 157.01 47.4199C160.87 52.5799 163.02 57.4299 163.02 57.4299C163.02 57.4299 165.2 47.1499 180.64 51.2299C191.92 54.2099 198.65 66.9999 201.45 73.6599H201.44V73.6399Z" fill="white" stroke="black" stroke-width="4" stroke-linecap="round" stroke-linejoin="round"/>
<path d="M78.63 90.7601C78.96 90.2501 100.59 42.4001 85.68 38.1101C81.94 37.0401 78.61 37.5501 75.72 38.9301C66.97 43.0901 62.24 55.2001 62.24 55.2001C62.24 55.2001 49.89 9.39005 27.87 20.4701C6.16 31.4001 26.43 54.2701 26.99 54.9001C26.47 54.6801 13.95 49.6401 6.84 54.9001C-8.06 65.9401 15.31 77.3901 24.73 90.7501C25.95 90.3101 74.42 90.7501 75.79 90.7501" fill="white"/>
<path d="M78.63 90.7601C78.96 90.2501 100.59 42.4001 85.68 38.1101C81.94 37.0401 78.61 37.5501 75.72 38.9301C66.97 43.0901 62.24 55.2001 62.24 55.2001C62.24 55.2001 49.89 9.39005 27.87 20.4701C6.16 31.4001 26.43 54.2701 26.99 54.9001C26.47 54.6801 13.95 49.6401 6.84 54.9001C-8.06 65.9401 15.31 77.3901 24.73 90.7501C25.95 90.3101 74.42 90.7501 75.79 90.7501" stroke="black" stroke-width="4" stroke-linecap="round" stroke-linejoin="round"/>
<path d="M229.7 42.4199C221.46 46.6899 212 55.0399 202.98 70.9199C202.45 71.8599 201.94 72.7599 201.45 73.6299C197.39 80.8299 194.35 86.4099 192.07 90.7399H203.58C207.2 81.3799 226.94 33.8899 252.94 39.2499C252.94 39.2499 242.9 35.5899 229.7 42.4099V42.4199Z" fill="black" stroke="black" stroke-width="4" stroke-linecap="round" stroke-linejoin="round"/>
<path d="M297.36 52.65C297.36 52.65 297.35 52.67 297.35 52.68C287.18 48.61 276.42 53.6 266.91 61.42C266.64 59.2 266.26 57.04 265.77 55C283.46 45.71 295.91 51.87 297.36 52.65Z" fill="black" stroke="black" stroke-width="4" stroke-linecap="round" stroke-linejoin="round"/>
<path d="M297.36 52.65C295.91 51.87 283.46 45.71 265.76 55C263.81 46.97 259.95 40.71 252.93 39.26C252.93 39.26 242.89 35.6 229.69 42.42C230.98 38.71 231.54 33.86 227.01 31.37C228.4 24.66 232.65 11.75 244.76 12.44C254.39 12.98 251.11 23.86 251.11 23.86C251.11 23.86 275.09 -3.53 286.71 10.27C296.18 21.51 273.57 35.99 272.98 36.36C273.57 36.18 291.41 30.57 297.5 41.15C299.55 44.72 298.88 48.92 297.36 52.65Z" fill="white" stroke="black" stroke-width="4" stroke-linecap="round" stroke-linejoin="round"/>
<path d="M229.7 42.4201C221.46 46.6901 212 55.0401 202.98 70.9201C202.45 71.8601 201.94 72.7601 201.45 73.6301C198.65 66.9701 191.92 54.1901 180.64 51.2001C165.2 47.1201 163.02 57.4001 163.02 57.4001C163.02 57.4001 160.87 52.5501 157.01 47.3901C157.42 38.4001 160.17 21.6101 175.01 21.6101C185.34 21.6101 184.09 35.3201 184.09 35.3201C184.09 35.3201 189.91 2.63006 206.97 4.99006C223.48 7.27006 206.88 36.2501 205.77 38.1601C206.59 37.0001 214.87 25.7801 226.4 31.0501C226.62 31.1501 226.82 31.2601 227.02 31.3601C231.55 33.8501 231 38.7001 229.7 42.4101V42.4201Z" fill="white" stroke="black" stroke-width="4" stroke-linecap="round" stroke-linejoin="round"/>
<path d="M35.34 42.72C35.34 42.72 56.05 63.57 65.33 90.75" stroke="black" stroke-width="4" stroke-linecap="round" stroke-linejoin="round"/>
<path d="M103.09 17.3999C103.09 17.3999 95.91 29.2999 90.97 42.7399" stroke="black" stroke-width="4" stroke-linecap="round" stroke-linejoin="round"/>
<path d="M147.7 59.0601C147.7 59.0601 160.51 69.9801 168.84 90.7501" stroke="black" stroke-width="4" stroke-linecap="round" stroke-linejoin="round"/>
<path d="M200.02 22.4099C200.02 22.4099 191.58 34.0299 187.39 54.4099" stroke="black" stroke-width="4" stroke-linecap="round" stroke-linejoin="round"/>
<path d="M271.63 21.6299C271.63 21.6299 255.63 31.8799 251.36 38.8399" stroke="black" stroke-width="4" stroke-linecap="round" stroke-linejoin="round"/>
<path d="M307.91 121.62C307.61 121.64 307.31 121.65 307.02 121.65H13.54C13.24 121.65 12.94 121.64 12.66 121.62L304.88 147.92L307.92 121.62H307.91Z" fill="black" stroke="black" stroke-width="4" stroke-linecap="round" stroke-linejoin="round"/>
<path d="M12.65 121.62L18.54 172.65C23.16 212.66 56.67 242.84 96.49 242.84H224.08C263.91 242.84 297.42 212.66 302.03 172.65L304.88 147.93L12.65 121.62Z" fill="#FF0077" stroke="black" stroke-width="4" stroke-linecap="round" stroke-linejoin="round"/>
<path d="M111.55 69.02C107.64 66.45 102.95 64.95 97.91 64.95C84.17 64.95 73.03 76.09 73.03 89.82C73.03 90.13 73.03 90.44 73.05 90.76H82.2C82.08 90.71 81.96 90.66 81.86 90.6C79.87 89.54 79.11 87.07 80.17 85.08C81.23 83.1 83.7 82.34 85.69 83.39C87.68 84.45 91.56 88.58 90.51 90.56C90.48 90.63 90.43 90.69 90.38 90.76H106.61C105.59 88.86 108.39 84.38 110.04 83.01C110.31 82.79 110.6 82.61 110.9 82.47C109.09 77.72 109.03 72.62 111.55 69.04V69.02ZM97.91 86.05C95.65 86.05 93.83 80.69 93.83 78.44C93.83 76.19 95.66 74.35 97.91 74.35C100.16 74.35 101.99 76.18 101.99 78.44C101.99 80.7 100.16 86.05 97.91 86.05Z" fill="#FF0077" stroke="black" stroke-width="4" stroke-linecap="round" stroke-linejoin="round"/>
</g>
<defs>
<clipPath id="clip0_556_484">
<rect width="320.56" height="244.84" fill="white"/>
</clipPath>
</defs>
</svg>
