<svg width="267" height="426" viewBox="0 0 267 426" fill="none" xmlns="http://www.w3.org/2000/svg">
<g clip-path="url(#clip0_340_252)">
<path d="M2 423.1H264.17" stroke="black" stroke-width="4" stroke-linecap="round" stroke-linejoin="round"/>
<path d="M176.3 347.66L176.21 347.43C174.84 344.11 173.29 340.35 171.72 336.11C159.61 303.57 166.72 283.15 172.99 265.13C176.06 256.32 178.95 248.01 179.43 239.1V237.15H179.55V215.87H179.59V211.59V128.15L179.57 127.21C179.13 106.99 166.55 92.9901 155.39 80.5701C150.88 75.5601 146.63 70.8201 143.5 66.0601C140.02 60.7601 138.38 56.1001 138.36 51.3901C140.71 49.8401 142.12 47.2501 142.12 44.4401C142.12 41.6301 140.66 38.9401 138.21 37.4001V10.6001C138.21 5.09011 133.73 0.610107 128.22 0.610107H88.35C82.84 0.610107 78.35 5.09011 78.35 10.6101V37.3901C75.9 38.9201 74.44 41.5501 74.44 44.4301C74.44 47.3101 75.85 49.8301 78.2 51.3801C78.18 56.0901 76.54 60.7501 73.06 66.0501C69.94 70.8101 65.69 75.5301 61.19 80.5401L61.1 80.6401C50.32 92.6401 38.1 106.24 37.06 125.63L36.93 128L37.1 128.02V237.16H37.18C37.3 246.81 40.4 255.72 43.68 265.15C49.95 283.16 57.06 303.58 44.95 336.12C43.34 340.44 41.77 344.25 40.39 347.61L40.36 347.67C36.13 357.94 33.07 365.36 33.37 375.62H33.38C33.53 378.06 35.24 398.66 47.73 411.45C54.25 418.13 62.48 421.52 72.17 421.52C77.82 421.52 84.91 419.62 89.86 411.68C94.09 416.17 99.78 419.62 108.32 419.62C116.86 419.62 122.55 416.16 126.78 411.68C131.73 419.62 138.82 421.52 144.47 421.52C154.17 421.52 162.39 418.13 168.92 411.45C181.42 398.66 183.12 378.06 183.27 375.62H183.28C183.59 365.36 180.53 357.94 176.3 347.67V347.66Z" fill="black"/>
<path d="M138.25 38.78V11.99C138.25 6.48 133.77 2 128.26 2H88.39C82.88 2 78.39 6.48 78.39 12V38.78" fill="#FF0077"/>
<path d="M138.25 38.78V11.99C138.25 6.48 133.77 2 128.26 2H88.39C82.88 2 78.39 6.48 78.39 12V38.78" stroke="black" stroke-width="4" stroke-linecap="round" stroke-linejoin="round"/>
<path d="M39.31 212.07V234.35H95.48C86.91 229.39 79.8 221.25 70.62 215.22C56.15 205.71 43.52 209.53 39.31 212.08V212.07Z" fill="#FF0077" stroke="black" stroke-width="4" stroke-linecap="round" stroke-linejoin="round"/>
<path d="M39.31 167.65C39.36 171.1 39.31 203.41 39.31 212.07C43.52 209.52 56.15 205.7 70.62 215.21C79.81 221.25 86.91 229.38 95.48 234.34H129.35C130.37 234.25 154.3 234.34 164.92 234.34H177.04V177.64C155.61 181.63 135.9 203.02 108.18 207.59C82.35 211.84 46.72 175.83 39.32 167.64L39.31 167.65Z" fill="white" stroke="black" stroke-width="4" stroke-linecap="round" stroke-linejoin="round"/>
<path d="M39.31 167.66C46.71 175.85 82.34 211.86 108.17 207.61C135.89 203.05 155.6 181.66 177.03 177.66C177.03 177.66 177.03 125.81 177.03 125.63H39.31C39.31 125.35 39.31 167.66 39.31 167.66Z" fill="#FF0077" stroke="black" stroke-width="4" stroke-linecap="round" stroke-linejoin="round"/>
<path d="M90.55 414.32L82.58 398.37" stroke="white" stroke-width="4" stroke-linecap="round" stroke-linejoin="round"/>
<path d="M126.7 414.32L134.68 398.37" stroke="white" stroke-width="4" stroke-linecap="round" stroke-linejoin="round"/>
<path d="M236.78 224.9V416.24C236.78 420.02 233.72 423.08 229.94 423.08H124.15C120.37 423.08 117.31 420.02 117.31 416.24V224.9C117.31 221.13 120.37 218.06 124.15 218.06H229.94C233.72 218.06 236.78 221.12 236.78 224.9Z" fill="white" stroke="black" stroke-width="4" stroke-linecap="round" stroke-linejoin="round"/>
<path d="M218.53 275.21C215.99 270.88 214.94 265.86 215.22 260.86C215.34 258.58 214.71 256.72 213.29 255.81C211.84 254.89 209.84 255.12 207.79 256.24C203.4 258.64 198.44 259.86 193.45 259.58C177.68 258.68 160.99 269.51 152.68 287.53C142.39 309.89 148.91 334.85 167.25 343.29C185.59 351.72 208.8 340.44 219.1 318.08C226.04 303.02 225.33 286.79 218.53 275.22V275.21Z" fill="#FF0077" stroke="black" stroke-width="4" stroke-linecap="round" stroke-linejoin="round"/>
<path d="M180.6 352.32C159.65 352.32 142.67 335.35 142.67 314.41C142.67 303.58 147.22 293.81 154.51 286.91L147.83 279.73C138.62 288.43 132.87 300.75 132.87 314.41C132.87 340.76 154.24 362.12 180.61 362.12C193.04 362.12 204.35 357.37 212.85 349.6L206.18 342.43C199.44 348.58 190.46 352.33 180.62 352.33L180.6 352.32Z" fill="#FF0077" stroke="black" stroke-width="4" stroke-linecap="round" stroke-linejoin="round"/>
<path d="M154.5 286.91C147.21 293.81 142.66 303.58 142.66 314.41C142.66 317.31 143 320.12 143.61 322.83L178.36 312.55L154.5 286.91Z" fill="white" stroke="black" stroke-width="4" stroke-linecap="round" stroke-linejoin="round"/>
<path d="M206.16 342.42L178.36 312.55L170.8 351.04C173.92 351.87 177.2 352.32 180.59 352.32C190.44 352.32 199.41 348.57 206.15 342.42H206.16Z" fill="white" stroke="black" stroke-width="4" stroke-linecap="round" stroke-linejoin="round"/>
<path d="M178.37 312.55L143.62 322.83C146.74 336.54 157.28 347.44 170.82 351.04L178.38 312.55H178.37Z" fill="white" stroke="black" stroke-width="4" stroke-linecap="round" stroke-linejoin="round"/>
<path d="M128.31 215.06C128.31 212.85 130.1 211.06 132.31 211.06H221.31C223.52 211.06 225.31 212.85 225.31 215.06V218.06H128.31V215.06Z" fill="black"/>
</g>
<defs>
<clipPath id="clip0_340_252">
<rect width="266.17" height="425.1" fill="white"/>
</clipPath>
</defs>
</svg>
