<svg width="468" height="425" viewBox="0 0 468 425" fill="none" xmlns="http://www.w3.org/2000/svg">
<path d="M394.259 193.101H29.4C23.8381 193.101 19.3294 197.619 19.3294 203.193V412.008C19.3294 417.582 23.8381 422.101 29.4 422.101H394.259C399.821 422.101 404.329 417.582 404.329 412.008V203.193C404.329 197.619 399.821 193.101 394.259 193.101Z" stroke="black" stroke-width="4"/>
<path d="M457.329 32.2808H121.129C115.607 32.2808 111.129 36.7579 111.129 42.2808V249.181C111.129 254.704 115.607 259.181 121.129 259.181H457.329C462.852 259.181 467.329 254.704 467.329 249.181V42.2808C467.329 36.7579 462.852 32.2808 457.329 32.2808Z" fill="black"/>
<path d="M151.429 46.8809H131.229C128.468 46.8809 126.229 49.1194 126.229 51.8809V63.9809C126.229 66.7423 128.468 68.9809 131.229 68.9809H151.429C154.191 68.9809 156.429 66.7423 156.429 63.9809V51.8809C156.429 49.1194 154.191 46.8809 151.429 46.8809Z" fill="white"/>
<path d="M165.029 50.681L158.929 56.781C158.329 57.381 158.329 58.481 158.929 59.081L165.029 65.181C166.029 66.181 167.829 65.481 167.829 63.981V51.681C167.829 50.281 166.029 49.481 165.029 50.481V50.681Z" fill="white"/>
<path d="M261.11 131.358C263.414 131.358 265.439 132.413 266.735 134.271H266.736L275.147 145.885L275.166 145.783L275.17 145.76L275.175 145.736C275.547 143.876 276.946 142.038 279.054 141.586L279.261 141.541H279.431C279.447 141.539 279.475 141.534 279.519 141.526C279.615 141.51 279.906 141.458 280.224 141.458L280.465 141.463C282.943 141.578 285.033 143.455 285.302 146.003C285.461 147.52 285.8 150.17 286.134 153.828C286.382 155.982 286.63 157.967 286.878 159.784C287.494 164.1 288.158 168.18 286.984 172.196L293.416 194.834L293.527 195.226L293.476 195.629C293.464 195.728 293.458 195.805 293.453 195.862C293.476 195.941 293.497 196.027 293.513 196.119C293.576 196.509 293.515 196.827 293.473 196.992C293.433 197.153 293.379 197.291 293.348 197.368C293.06 198.09 292.536 198.548 292.111 198.816C291.679 199.09 291.213 199.254 290.799 199.337L290.787 199.34L275.263 202.345L275.074 202.381H273.72L273.507 202.167C273.087 202.052 272.642 201.845 272.239 201.479C271.541 200.911 271.082 200.089 270.918 199.271L270.911 199.238L270.906 199.205L267.379 177.887C266.442 177.281 265.164 176.406 263.848 175.342C262.145 173.964 260.26 172.175 259.002 170.147V170.148C257.695 168.075 256.742 165.897 256.09 164.179C255.762 163.315 255.506 162.557 255.317 161.978C255.224 161.69 255.145 161.441 255.086 161.257C255.056 161.162 255.032 161.088 255.013 161.028C255.003 160.999 254.995 160.977 254.989 160.96C254.984 160.945 254.982 160.938 254.981 160.937L254.973 160.917L250.884 149.648L250.885 149.647C249.573 146.183 250.1 142.278 252.085 139.202L252.094 139.189L252.101 139.177L255.273 134.419C256.608 132.375 258.861 131.358 261.11 131.358ZM293.244 195.386C293.24 195.379 293.236 195.373 293.233 195.367C293.236 195.372 293.239 195.378 293.244 195.386Z" fill="black" stroke="white" stroke-width="4"/>
<path d="M420.129 10.981C439.978 10.981 459.03 28.3215 459.03 49.8813C459.03 60.7159 453.963 70.6966 446.579 78.1851C439.201 85.667 429.363 90.8137 419.543 91.8696C419.093 91.9181 418.857 91.9967 418.677 92.0835C418.471 92.1832 418.231 92.3458 417.795 92.7075C416.927 93.4289 415.566 94.7062 412.976 96.519L412.953 96.5356L412.929 96.5513L409.128 99.0513L406.03 101.09V90.5571C405.816 89.3976 405.719 88.5226 405.645 87.8306C405.565 87.076 405.518 86.6731 405.412 86.2808C405.242 85.6579 404.872 84.8903 403.408 83.0298C403.104 83.053 402.734 83.0806 402.33 83.0806C397.353 83.0806 393.006 81.2222 389.769 77.8862C386.841 74.8682 384.903 70.7291 384.134 65.8599C382.467 65.5511 380.954 65.3814 379.53 65.3813C375.225 65.3813 373.178 66.7899 372.17 67.938C371.638 68.5446 371.326 69.1571 371.143 69.6294C371.052 69.8644 370.994 70.0636 370.956 70.2095C370.937 70.2828 370.922 70.3454 370.91 70.4009C370.907 70.4136 370.901 70.4322 370.897 70.4517L370.613 72.6401L370.316 74.9136L368.103 74.3101L365.903 73.7104L365.87 73.7007C362.897 72.8336 357.629 69.3309 357.629 62.0806C357.63 57.2312 359.359 52.7504 362.447 50.2974L362.75 50.0659C367.45 46.595 373.903 44.5679 381.764 43.8198C384.691 25.1215 400.862 10.981 420.129 10.981Z" fill="#FF0077" stroke="black" stroke-width="4"/>
<path d="M387.778 3.59375L388.169 3.79004L388.6 4.00488C397.569 8.62449 401.237 19.7191 396.739 28.8662L396.738 28.8672L393.605 35.2256C398.484 34.9423 403.602 35.41 409.016 37.4521L410.796 38.083L410.819 38.0908L410.84 38.0986C419.856 41.5338 425.789 46.3788 429.439 52.1592C433.078 57.9217 434.329 64.4251 434.329 70.9805C434.329 77.9191 431.292 82.9786 428.309 86.2578C426.82 87.8946 425.332 89.1028 424.213 89.9053C423.653 90.3072 423.18 90.6101 422.841 90.8164C422.671 90.9195 422.534 90.9991 422.436 91.0547C422.387 91.0823 422.347 91.1041 422.318 91.1201C422.303 91.1281 422.29 91.1346 422.281 91.1396C422.276 91.1421 422.272 91.1447 422.269 91.1465C422.267 91.1474 422.265 91.1487 422.264 91.1494L422.262 91.1504C422.261 91.1507 422.252 91.1348 421.329 89.3809L422.26 91.1514L418.737 93.0039L419.354 89.0723L419.355 89.0654C419.356 89.0583 419.357 89.0458 419.36 89.0283C419.365 88.9928 419.373 88.936 419.383 88.8594C419.403 88.7061 419.433 88.4722 419.465 88.166C419.53 87.5532 419.608 86.6502 419.658 85.5176C419.757 83.2488 419.742 80.0735 419.283 76.4648C418.36 69.2217 415.671 60.4129 408.727 53.5898L408.724 53.5859C399.85 44.8272 389.906 43.0928 382.113 43.542C378.202 43.7674 374.843 44.5443 372.464 45.2656C371.277 45.6257 370.339 45.9701 369.706 46.2207C369.39 46.3459 369.151 46.4474 368.994 46.5156C368.917 46.5496 368.86 46.5756 368.824 46.5918C368.807 46.5998 368.794 46.6052 368.787 46.6084L368.782 46.6104L367.373 47.2803L366.381 46.0752L367.926 44.8037L366.378 46.0713C366.378 46.0706 366.376 46.0677 366.375 46.0664C366.373 46.0638 366.371 46.0613 366.368 46.0586C366.364 46.053 366.359 46.0471 366.354 46.041C366.344 46.029 366.334 46.0159 366.324 46.002C366.302 45.974 366.28 45.9419 366.255 45.9062C366.206 45.8348 366.151 45.7461 366.095 45.6416C365.983 45.4337 365.862 45.1501 365.788 44.7998C365.631 44.0494 365.724 43.1524 366.268 42.2559C366.558 41.777 366.965 41.32 367.504 40.8799C358.195 39.1403 351.488 30.4754 352.416 20.7529V18.2178L354.604 18.4229L369.139 19.7881H369.14C372.023 20.0293 374.671 20.9761 376.98 22.3887C377.274 20.7636 377.804 19.1646 378.594 17.6357L385.087 4.49512L385.979 2.69043L387.778 3.59375Z" fill="white" stroke="black" stroke-width="4"/>
<path d="M462.429 248.281L462.629 146.181C462.629 137.881 455.929 131.181 447.629 131.181H412.529L413.629 120.381H381.229C381.229 120.481 378.129 131.181 378.129 131.181H353.829C342.529 131.181 332.429 137.981 328.129 148.481C321.729 164.081 308.429 199.981 303.929 211.981C303.529 213.081 301.929 212.981 301.729 211.781L294.029 190.581L268.729 197.981L274.629 254.781L456.929 253.981C460.129 253.981 462.629 251.381 462.629 248.281H462.429Z" fill="white"/>
<path d="M403.129 77.6807C404.229 74.3807 407.329 72.0807 410.829 72.4807C413.229 72.7807 415.229 74.2807 415.829 76.8807C416.929 81.6807 411.529 89.5807 405.329 86.7807C401.529 85.0807 402.129 80.6807 403.129 77.5807V77.6807Z" fill="black"/>
<path d="M356.229 164.081L346.629 178.781C342.129 185.681 340.329 193.981 341.429 202.081C341.929 205.781 341.629 209.581 340.529 213.181L333.829 234.681" fill="white"/>
<path d="M356.229 164.081L346.629 178.781C342.129 185.681 340.329 193.981 341.429 202.081C341.929 205.781 341.629 209.581 340.529 213.181L333.829 234.681" stroke="black" stroke-width="4" stroke-miterlimit="10" stroke-linecap="round"/>
<path d="M430.729 163.081L425.529 223.581C425.029 229.281 420.229 233.681 414.529 233.681H369.429" fill="white"/>
<path d="M430.729 163.081L425.529 223.581C425.029 229.281 420.229 233.681 414.529 233.681H369.429" stroke="black" stroke-width="4" stroke-miterlimit="10" stroke-linecap="round"/>
<path d="M415.03 92.3809H415.23C416.504 92.3809 417.799 92.7016 418.935 93.2695C422.435 95.0196 424.977 99.1466 425.214 104.04L425.23 104.516C425.316 111.658 420.67 116.914 415.485 117.081H415.329C410.39 117.081 405.721 112.308 405.352 105.609L405.329 104.955C405.336 100.371 407.228 96.2483 410.3 94.002C411.798 92.9202 413.395 92.3809 415.03 92.3809Z" stroke="#FF0077" stroke-width="4"/>
<path d="M385.029 112.381C373.829 112.381 367.629 105.881 367.329 96.481L366.929 76.481" fill="black"/>
<path d="M385.029 112.381C373.829 112.381 367.629 105.881 367.329 96.481L366.929 76.481" stroke="white" stroke-width="4" stroke-linecap="round"/>
<path d="M179.205 227.014L179.937 271.482L136.572 269.98L136.155 206.585L179.205 227.014Z" fill="white" stroke="black" stroke-width="3.32369"/>
<path d="M134.329 171.733C134.329 165.309 139.538 160.101 145.962 160.101H181.565C188.041 160.101 193.27 165.389 193.197 171.864L192.608 224.269C192.516 232.487 185.828 239.101 177.609 239.101H145.962C139.538 239.101 134.329 233.892 134.329 227.468V171.733Z" fill="white"/>
<path d="M254.337 413.267C259.075 418.609 265.828 421.734 272.985 421.734H273.309C286.009 421.734 296.673 411.755 297.681 399.055L307.357 282.229L353.019 247.353C354.632 246.244 355.45 244.04 354.845 242.427C353.838 239.743 351.298 238.881 348.08 240.599L344.648 242.427L347.677 238.281C348.584 236.769 348.685 235.156 347.979 233.846C347.274 232.636 345.862 231.83 344.149 231.83C342.536 231.83 341.024 232.535 340.117 233.846L331.792 241.984L333.162 234.148C333.565 232.334 332.456 230.419 330.743 229.814C330.339 229.612 330.944 229.612 329.533 229.612C328.122 229.612 326.811 230.419 326.207 231.729L319.554 245.438C317.639 246.244 312.7 248.562 310.079 252.191C309.272 253.3 308.365 254.812 307.458 256.626L292.137 256.929C284.98 257.03 281.956 261.465 281.351 264.085L280.948 265.597L260.829 359.881L247.329 332.381L226.315 381.012L254.337 413.267Z" fill="white" stroke="black" stroke-width="4" stroke-miterlimit="4.62023"/>
<path d="M88.7977 328.526L89.7049 423.421L233.343 422.534L230.218 298.791C229.815 281.957 216.512 267.244 199.679 266.942L160.262 270.994L120.952 268.551L88.7977 328.526Z" fill="#FF0077"/>
<path d="M225.833 283.519L251.822 344.413L229.444 408.622L208.075 340.18L225.833 283.519Z" fill="#FF0077"/>
<path d="M87.7579 353.99L57.712 391.48C56.2276 393.333 57.3798 396.093 59.7403 396.34L117.325 402.356L117.341 402.358L117.358 402.359C120.455 402.633 123.382 403.536 126.15 404.994L149.116 421.864H25.3194C19.0376 421.864 13.968 420.992 10.2081 419.135C6.53006 417.318 4.0446 414.535 2.85654 410.449C0.986865 404.019 2.40191 397.82 4.95517 392.335C7.5226 386.82 11.1224 382.26 13.4483 379.056L13.4561 379.045L13.464 379.033L52.295 323.949L87.7579 353.99Z" fill="white" stroke="black" stroke-width="4"/>
<path d="M190.534 285.547L190.03 255.509L180.891 251.47L180.523 258.101L161.368 272.099L135.196 259.34L134.389 252.687H131.466L123.503 255.711L122.697 280.608L190.534 285.547Z" fill="#FF0077"/>
<path d="M168.11 126.381C168.659 126.381 169.15 126.381 169.588 126.381L169.589 126.382C169.661 126.405 169.722 126.42 169.761 126.429C169.84 126.446 169.906 126.457 169.944 126.462L169.966 126.465L169.99 126.468C177.601 127.374 180.249 131.68 180.874 134.491L181.334 136.561L183.373 135.981C191.888 133.564 197.037 134.524 200.275 136.797C203.556 139.1 205.397 143.106 206.472 147.99C206.862 151.639 206.348 154.668 204.799 157.122C203.238 159.596 200.458 161.755 195.801 163.307L194.218 163.835L194.454 165.487C194.682 167.089 194.685 168.832 194.279 170.305C193.883 171.738 193.145 172.794 191.93 173.385L191.911 173.395C191.147 173.776 190.343 173.989 189.479 173.989C187.542 173.989 185.77 172.924 184.549 171.985L183.488 171.168L182.328 171.84C180.604 172.838 177.323 174.292 173.251 174.292C170.131 174.292 167.181 173.408 164.363 171.592C160.211 168.883 158.544 165.506 157.841 162.959L157.026 160.004L154.65 161.94C151.939 164.149 147.796 167.399 144.775 169.352C140.768 171.793 137.92 172.915 136.327 173.357L134.827 173.773L134.863 175.33L135.334 195.882L131.363 197.364L126.434 169.095L126.432 169.082L126.334 168.474C125.461 162.377 127.962 156.172 132.826 152.271L133.32 151.89L154.368 136.582L154.808 136.262L155.026 135.762C155.999 133.524 159.856 126.381 168.11 126.381ZM170.467 126.443C170.449 126.445 170.446 126.445 170.466 126.443L170.467 126.442V126.443Z" fill="#FF0077" stroke="black" stroke-width="4"/>
<path d="M140.063 200.044C137.039 196.718 131.648 196.416 129.935 200.044C128.221 203.673 131.697 211.233 137.14 210.124C142.583 209.016 140.063 200.044 140.063 200.044Z" fill="white"/>
<path d="M135.949 195.846C124.53 194.004 126.74 210.212 135.95 209.844L135.95 252.207" stroke="black" stroke-width="4"/>
<path d="M164.791 212.256C170.799 212.151 175.571 206.471 175.45 199.569C175.33 192.667 170.362 187.157 164.355 187.262C158.348 187.367 153.575 193.047 153.696 199.949C153.816 206.851 158.784 212.361 164.791 212.256Z" fill="white" stroke="black" stroke-width="4" stroke-miterlimit="10"/>
<path d="M40.042 340.078L71.8526 375.244L109.895 329.897L120.782 266.495C120.782 266.495 90.3404 269.418 74.1118 291.191C57.8833 312.862 40.042 340.078 40.042 340.078Z" fill="#FF0077"/>
<path d="M177.944 422.977L165.131 284.781L169.365 279.641L160.998 269.258L153.035 279.842L157.269 285.184L147.714 422.977H177.944Z" fill="black"/>
<path d="M150.91 240.848C150.204 240.404 150.519 239.314 151.352 239.314H179.196V258.667L150.91 240.848Z" fill="black"/>
<path d="M261.339 357.364L255.227 386.624" stroke="black" stroke-width="4" stroke-miterlimit="10" stroke-linecap="round"/>
<path d="M90.5442 399.924V354.895C90.5442 353.887 89.3347 353.484 88.7299 354.29L71.2917 374.349L40.4281 340.517L74.2149 291.19C81.0692 281.312 91.4514 274.357 103.144 271.837L123.707 267.301V256.919C123.606 256.919 135.95 251.476 135.95 251.476V259.035L161.103 271.131L180.155 258.128V251.476" stroke="black" stroke-width="4" stroke-miterlimit="10"/>
<path d="M178.8 250.588L190.536 254.601L191.141 266.495H202.43C210.494 266.495 217.953 270.93 221.884 277.986L252.628 343.404L231.763 398.642V422.534" stroke="black" stroke-width="4" stroke-miterlimit="10"/>
<path d="M231.763 347.839V402.069" stroke="black" stroke-width="4" stroke-miterlimit="10" stroke-linecap="round"/>
<path d="M151.329 237.439C150.412 237.439 149.668 238.183 149.668 239.101C149.668 240.018 150.412 240.762 151.329 240.762V239.101V237.439ZM151.329 239.101V240.762H173.329V239.101V237.439H151.329V239.101ZM193.329 219.101H194.991V172.101H193.329H191.668V219.101H193.329ZM173.329 239.101V240.762C185.293 240.762 194.991 231.064 194.991 219.101H193.329H191.668C191.668 229.228 183.457 237.439 173.329 237.439V239.101Z" fill="black"/>
<path d="M191.458 211.762C196.968 211.666 201.337 205.993 201.217 199.091C201.096 192.189 196.532 186.672 191.021 186.768C185.511 186.864 181.141 192.538 181.262 199.439C181.382 206.341 185.947 211.859 191.458 211.762Z" fill="white" stroke="black" stroke-width="4" stroke-miterlimit="10"/>
<path d="M266.829 421.94L106.331 421.94" stroke="black" stroke-width="4"/>
</svg>
