<svg width="526" height="435" viewBox="0 0 526 435" fill="none" xmlns="http://www.w3.org/2000/svg">
<g clip-path="url(#clip0_556_515)">
<path d="M518.89 358.54H6.7C2.99969 358.54 0 361.537 0 365.235C0 368.933 2.99969 371.93 6.7 371.93H518.89C522.59 371.93 525.59 368.933 525.59 365.235C525.59 361.537 522.59 358.54 518.89 358.54Z" fill="black"/>
<path d="M518.89 177.49H6.7C2.99969 177.49 0 180.487 0 184.185C0 187.883 2.99969 190.88 6.7 190.88H518.89C522.59 190.88 525.59 187.883 525.59 184.185C525.59 180.487 522.59 177.49 518.89 177.49Z" fill="black"/>
<path d="M195.16 278.56C195.16 255.19 209.93 231.93 220.88 214.8C236.14 190.93 218.58 134.52 245.4 134.52C291.47 134.52 358.86 201.77 358.86 257.7C358.86 313.63 321.51 358.96 275.44 358.96C229.37 358.96 195.16 334.49 195.16 278.57V278.56Z" fill="black" stroke="black" stroke-width="4" stroke-linecap="round" stroke-linejoin="round"/>
<path d="M81.9 97.8H75.04C73.57 97.8 72.38 98.99 72.38 100.46V130.3C74.5 125.34 77.97 121.23 80.55 115.92C84.61 107.55 82.98 100.24 81.89 97.8H81.9Z" fill="#FF0077" stroke="black" stroke-width="4" stroke-linecap="round" stroke-linejoin="round"/>
<path d="M100.88 97.8C99.41 97.83 85.61 97.8 81.9 97.8C82.99 100.23 84.62 107.54 80.56 115.92C77.98 121.23 74.51 125.35 72.39 130.3V149.9C72.43 150.49 72.39 164.33 72.39 170.48V174.84C72.39 176.31 73.58 177.5 75.05 177.5H96.61C94.91 165.1 85.77 153.7 83.82 137.65C82 122.71 97.39 102.09 100.88 97.81V97.8Z" fill="white" stroke="black" stroke-width="4" stroke-linecap="round" stroke-linejoin="round"/>
<path d="M116.17 97.8H100.88C97.38 102.08 82 122.7 83.82 137.65C85.77 153.69 94.91 165.09 96.61 177.5H116.18C117.65 177.5 118.84 176.31 118.84 174.84V100.46C118.84 99 117.65 97.8 116.18 97.8H116.17Z" fill="#FF0077" stroke="black" stroke-width="4" stroke-linecap="round" stroke-linejoin="round"/>
<path d="M77.9901 92.9299H112.93C114.2 92.9299 115.24 93.9599 115.24 95.2399C115.24 96.5099 114.21 97.5499 112.93 97.5499H77.9901C76.7201 97.5499 75.6801 96.5199 75.6801 95.2399C75.6801 93.9699 76.7101 92.9299 77.9901 92.9299Z" fill="black"/>
<path d="M27.0899 97.8H20.2299C18.7599 97.8 17.5699 98.99 17.5699 100.46V130.3C19.6899 125.34 23.1599 121.23 25.7399 115.92C29.7999 107.55 28.1699 100.24 27.0799 97.8H27.0899Z" fill="#FF0077" stroke="black" stroke-width="4" stroke-linecap="round" stroke-linejoin="round"/>
<path d="M46.0599 97.8C44.5899 97.83 30.7899 97.8 27.0799 97.8C28.1699 100.23 29.7999 107.54 25.7399 115.92C23.1599 121.23 19.6899 125.35 17.5699 130.3V149.9C17.6099 150.49 17.5699 164.33 17.5699 170.48V174.84C17.5699 176.31 18.7599 177.5 20.2299 177.5H41.7899C40.0899 165.1 30.9499 153.7 28.9999 137.65C27.1799 122.71 42.5699 102.09 46.0599 97.81V97.8Z" fill="white" stroke="black" stroke-width="4" stroke-linecap="round" stroke-linejoin="round"/>
<path d="M61.3499 97.8H46.0599C42.5599 102.08 27.1799 122.7 28.9999 137.65C30.9499 153.69 40.0899 165.09 41.7899 177.5H61.3599C62.8299 177.5 64.0199 176.31 64.0199 174.84V100.46C64.0199 99 62.8299 97.8 61.3599 97.8H61.3499Z" fill="#FF0077" stroke="black" stroke-width="4" stroke-linecap="round" stroke-linejoin="round"/>
<path d="M23.17 92.9299H58.11C59.38 92.9299 60.42 93.9599 60.42 95.2399C60.42 96.5099 59.39 97.5499 58.11 97.5499H23.17C21.9 97.5499 20.86 96.5199 20.86 95.2399C20.86 93.9699 21.89 92.9299 23.17 92.9299Z" fill="black"/>
<path d="M230.68 311.15C213.29 310.8 197.37 302.59 186.99 288.63L113.3 179.3C110.47 175.85 108.43 171.92 107.21 167.63L98.1799 135.66C95.7599 134.75 89.9299 132.33 87.2599 129.19C85.4699 127.08 85.1199 124.25 86.3399 121.62C87.0099 120.16 88.0599 119 89.2199 118.35C89.0199 116.27 89.4799 114.5 90.5799 113.08C91.7899 111.52 93.5199 110.76 95.0199 110.38C94.5499 108.42 94.7499 105.93 96.8799 103.59C98.2699 102.06 100.16 101.25 102.35 101.25C103.63 101.25 104.84 101.52 105.81 101.84C106.88 99.2299 109.03 96.4299 112.63 96.4299C113.52 96.4299 114.45 96.6099 115.4 96.9699C118.37 98.0899 124.65 101.59 134.08 107.36C139.47 110.66 143 116.15 143.77 122.42L148.08 157.71C148.54 161.49 150.28 165.06 152.97 167.76L153.03 167.82L218.06 245.46C220.23 248.05 223.4 249.53 226.78 249.53C227.02 249.53 227.26 249.53 227.51 249.51L305.07 244.55L295.33 310.26L230.74 311.16H230.71L230.68 311.15Z" fill="white"/>
<path d="M112.62 98.4399C113.24 98.4399 113.93 98.5599 114.68 98.8499C118.26 100.2 126.71 105.21 133.02 109.07C137.86 112.03 141.08 117.03 141.77 122.66L146.08 157.95C146.6 162.2 148.52 166.14 151.54 169.17L216.51 246.74C219.06 249.78 222.82 251.53 226.76 251.53C227.04 251.53 227.33 251.53 227.61 251.5L302.7 246.7L293.57 308.28L230.71 309.15C214.07 308.81 198.52 300.79 188.58 287.43L114.89 178.1C112.23 174.87 110.26 171.12 109.12 167.08L99.81 134.12C99.81 134.12 91.73 131.37 88.76 127.89C85.86 124.49 89.02 119.74 91.32 119.74C91.37 119.74 91.42 119.74 91.47 119.74C89.57 112.3 96.73 112.02 97.8 112.02C97.89 112.02 97.93 112.02 97.93 112.02C97.93 112.02 95.1 108.47 98.32 104.92C99.48 103.65 100.93 103.24 102.31 103.24C104.77 103.24 107.02 104.54 107.02 104.54C107.02 104.54 108.24 98.4199 112.59 98.4199M112.62 94.4399C108.75 94.4399 106.22 96.8599 104.73 99.5099C103.98 99.3599 103.18 99.2599 102.35 99.2599C99.58 99.2599 97.18 100.29 95.4 102.25C93.34 104.52 92.72 106.91 92.81 109.02C91.45 109.58 90.08 110.47 89 111.86C88.11 113.01 87.21 114.79 87.18 117.32C86.1 118.18 85.18 119.37 84.52 120.79C82.97 124.15 83.42 127.78 85.74 130.5C88.41 133.63 93.56 136 96.53 137.18L105.29 168.18C106.57 172.71 108.72 176.85 111.69 180.5L185.28 289.67L185.33 289.75L185.38 289.82C195.97 304.07 212.89 312.79 230.63 313.15H230.7H230.77L293.63 312.28L297.03 312.23L297.53 308.86L306.66 247.28L307.39 242.39L302.45 242.71L227.36 247.51C227.16 247.52 226.96 247.53 226.76 247.53C223.98 247.53 221.36 246.31 219.58 244.18L154.61 166.61L154.5 166.48L154.38 166.36C152 163.98 150.46 160.82 150.06 157.48L145.75 122.19C144.91 115.32 141.04 109.29 135.12 105.67C125.6 99.8399 119.2 96.2899 116.11 95.1199C114.94 94.6799 113.77 94.4499 112.63 94.4499L112.62 94.4399Z" fill="black"/>
<path d="M283.74 288.21C284.62 294.86 284.37 296.33 287.48 310.78L240.36 311.25L239.62 249.34L294.63 245L296.09 246.69C291.69 251.7 280.87 266.5 283.75 288.21H283.74Z" fill="#FF0077" stroke="black" stroke-width="4" stroke-linecap="round" stroke-linejoin="round"/>
<path d="M405.8 31.66L402.71 22.2H372.47L369.39 31.66C367.96 36.05 365.16 39.87 361.4 42.54C355.72 46.59 352.35 53.15 352.35 60.13V180.67H422.84V60.13C422.84 53.15 419.46 46.59 413.79 42.54C410.03 39.86 407.24 36.04 405.8 31.66Z" fill="#FF0077" stroke="black" stroke-width="4" stroke-linecap="round" stroke-linejoin="round"/>
<path d="M371.77 59.47H403.43C405.511 59.47 407.201 61.1603 407.201 63.2502V145.27C407.201 147.36 405.511 149.05 403.43 149.05H371.77C369.689 149.05 368 147.36 368 145.27V63.2502C368 61.1604 369.689 59.4702 371.77 59.47Z" fill="white" stroke="black" stroke-width="4"/>
<path d="M402.32 5H372.87V22.2H402.32V5Z" fill="black" stroke="black" stroke-width="4" stroke-linecap="round" stroke-linejoin="round"/>
<path d="M224.85 432.37H523.3" stroke="black" stroke-width="4" stroke-linecap="round" stroke-linejoin="round"/>
<path d="M320.24 180.41C315.11 189.07 306.95 187.17 306.95 187.17C306.95 187.17 296.92 224.52 306.74 253.05L289.27 261.53L278.97 249.58L279.05 249.48L279.1 249.42L279.21 249.28C279.51 248.9 280.09 248.19 280.81 247.26C280.88 247.17 280.95 247.09 281.02 246.99C281.61 246.24 282.29 245.37 283.03 244.44C283.18 244.24 283.34 244.04 283.49 243.84C285.5 241.27 287.77 238.33 289.39 236.13C289.47 236.03 289.54 235.93 289.61 235.83C291.08 233.84 291.94 232.54 291.44 232.88C287.51 235.54 282.97 237.43 277.98 238.29C276.63 238.54 275.29 238.67 273.95 238.76C273.67 238.77 273.39 238.79 273.1 238.8H272.93C272.13 238.82 271.34 238.82 270.54 238.79C270.2 238.77 269.85 238.75 269.51 238.73C269.17 238.71 268.82 238.67 268.48 238.64C267.55 238.55 266.62 238.41 265.71 238.24C265.3 238.17 264.27 237.95 264.17 237.91C263.79 237.82 259.85 236.64 258.34 236C255.2 234.65 252.29 232.85 249.69 230.67C248.42 229.6 247.23 228.44 246.11 227.2C241.9 222.5 238.92 216.61 237.75 209.96L232.88 165.65L232.51 162.29C230.97 149.16 239.24 136.61 245.39 132.35C245.39 132.35 259.43 169.92 301.88 173.71C304.16 168.53 308.5 164.38 313.92 165.62H313.99C320.7 167.16 323.7 174.49 320.22 180.43L320.24 180.41Z" fill="white" stroke="black" stroke-width="4" stroke-linecap="round" stroke-linejoin="round"/>
<path d="M272.93 238.8C272.13 238.83 271.33 238.82 270.54 238.79C271.34 238.82 272.13 238.83 272.93 238.8Z" fill="white" stroke="black" stroke-width="4" stroke-linecap="round" stroke-linejoin="round"/>
<path d="M500.95 431.09L414.92 432.37L374.07 353.37L435.88 320.23L500.95 431.09Z" fill="white"/>
<path d="M439.5 328.29L385.29 377.93L371.4 354.57L434.58 321.9L439.51 328.29H439.5Z" fill="black" stroke="black" stroke-width="4" stroke-linecap="round" stroke-linejoin="round"/>
<path d="M296.31 432.37C296.31 432.37 280.01 365.75 270.48 321.4C267.37 306.95 264.98 294.87 264.1 288.22C261.22 266.5 272.05 251.71 276.44 246.7L278.96 249.59L283.28 254.59C286.81 258.69 292.66 259.89 297.52 257.53L306.74 253.05C311.39 266.55 325.37 289.18 338.22 291.43C336.58 289.79 416.78 432.36 416.78 432.36H296.32L296.31 432.37Z" fill="#FF0077" stroke="black" stroke-width="4" stroke-linecap="round" stroke-linejoin="round"/>
<path d="M315.713 225C323.471 234.312 322.212 248.142 312.9 255.9C303.588 263.658 289.758 262.399 282 253.087" fill="white"/>
<path d="M315.713 225C323.471 234.312 322.212 248.142 312.9 255.9C303.588 263.658 289.758 262.399 282 253.087" stroke="black" stroke-width="4" stroke-linecap="round" stroke-linejoin="round"/>
<path d="M289.61 235.83C289.54 235.93 289.46 236.03 289.38 236.13C287.76 238.33 285.49 241.27 283.48 243.84C283.33 244.04 283.17 244.24 283.02 244.44C282.29 245.37 281.61 246.24 281.01 246.99C280.94 247.08 280.87 247.17 280.8 247.26C280.08 248.2 279.5 248.91 279.2 249.28L291.43 232.88C291.93 232.53 291.07 233.83 289.6 235.82L289.61 235.83Z" fill="white" stroke="black" stroke-width="4" stroke-linecap="round" stroke-linejoin="round"/>
<path d="M291.43 232.89L280.41 251.38L276.45 246.7L274.99 245.01L269.52 238.72C269.86 238.74 270.2 238.76 270.55 238.78C271.34 238.81 272.14 238.82 272.94 238.79H273.11C273.39 238.79 273.68 238.77 273.96 238.75C275.3 238.66 276.63 238.52 277.99 238.28C282.97 237.42 287.51 235.53 291.45 232.89H291.43Z" fill="black" stroke="black" stroke-width="4" stroke-linecap="round" stroke-linejoin="round"/>
<path d="M483.91 31.66L480.83 22.2H450.59L447.51 31.66C446.08 36.05 443.28 39.87 439.52 42.54C433.84 46.59 430.47 53.15 430.47 60.13V180.67H500.96V60.13C500.96 53.15 497.58 46.59 491.91 42.54C488.15 39.86 485.36 36.04 483.92 31.66H483.91Z" fill="#FF0077" stroke="black" stroke-width="4" stroke-linecap="round" stroke-linejoin="round"/>
<path d="M449.88 59.47H481.539C483.62 59.47 485.31 61.1603 485.31 63.2502V145.27C485.31 147.36 483.62 149.05 481.539 149.05H449.88C447.799 149.05 446.11 147.36 446.11 145.27V63.2502C446.11 61.1603 447.799 59.47 449.88 59.47Z" fill="white" stroke="black" stroke-width="4"/>
<path d="M480.43 5H450.98V22.2H480.43V5Z" fill="black" stroke="black" stroke-width="4" stroke-linecap="round" stroke-linejoin="round"/>
<path d="M72.6099 330.98V359.05H17.5699V330.98C19.5999 332.02 22.6699 332.93 26.4899 333.63C30.2599 340.36 37.1799 344.87 45.0799 344.87C52.9799 344.87 59.8999 340.36 63.6699 333.63C67.4899 332.93 70.5699 332.02 72.5899 330.98H72.6099Z" fill="#FF0077" stroke="black" stroke-width="4" stroke-linecap="round" stroke-linejoin="round"/>
<path d="M72.6099 282.93V330.98C70.5799 332.02 67.5099 332.93 63.6899 333.63C65.4299 330.53 66.4899 326.97 66.6799 323.15C66.7099 322.73 66.7099 322.33 66.7099 321.91C66.7099 309.23 57.0299 298.95 45.0899 298.95C33.1499 298.95 23.4699 309.23 23.4699 321.91C23.4699 322.33 23.4699 322.75 23.4999 323.15C23.6899 326.97 24.7599 330.53 26.4899 333.63C22.6699 332.93 19.5899 332.02 17.5699 330.98V282.94H72.6099V282.93Z" fill="black" stroke="black" stroke-width="4" stroke-linecap="round" stroke-linejoin="round"/>
<path d="M66.71 321.91C66.71 322.32 66.7 322.74 66.68 323.15C66.49 326.97 65.42 330.54 63.69 333.63C59.92 340.36 53 344.87 45.1 344.87C37.2 344.87 30.28 340.36 26.51 333.63C24.77 330.54 23.71 326.96 23.52 323.15C23.5 322.74 23.49 322.32 23.49 321.91C23.49 309.23 33.17 298.95 45.11 298.95C57.05 298.95 66.73 309.23 66.73 321.91H66.71Z" fill="white" stroke="black" stroke-width="4" stroke-linecap="round" stroke-linejoin="round"/>
<path d="M140.57 330.98V359.05H85.53V330.98C87.56 332.02 90.63 332.93 94.45 333.63C98.22 340.36 105.14 344.87 113.04 344.87C120.94 344.87 127.86 340.36 131.63 333.63C135.45 332.93 138.53 332.02 140.56 330.98H140.57Z" fill="#FF0077" stroke="black" stroke-width="4" stroke-linecap="round" stroke-linejoin="round"/>
<path d="M140.57 282.93V330.98C138.54 332.02 135.47 332.93 131.64 333.63C133.38 330.53 134.44 326.97 134.63 323.15C134.66 322.73 134.66 322.33 134.66 321.91C134.66 309.23 124.98 298.95 113.04 298.95C101.1 298.95 91.42 309.23 91.42 321.91C91.42 322.33 91.42 322.75 91.45 323.15C91.64 326.97 92.71 330.53 94.44 333.63C90.62 332.93 87.54 332.02 85.52 330.98V282.94H140.56L140.57 282.93Z" fill="black" stroke="black" stroke-width="4" stroke-linecap="round" stroke-linejoin="round"/>
<path d="M134.68 321.91C134.68 322.32 134.67 322.74 134.65 323.15C134.46 326.97 133.39 330.54 131.66 333.63C127.89 340.36 120.97 344.87 113.07 344.87C105.17 344.87 98.25 340.36 94.48 333.63C92.74 330.54 91.67 326.96 91.49 323.15C91.47 322.74 91.46 322.32 91.46 321.91C91.46 309.23 101.14 298.95 113.08 298.95C125.02 298.95 134.7 309.23 134.7 321.91H134.68Z" fill="white" stroke="black" stroke-width="4" stroke-linecap="round" stroke-linejoin="round"/>
<path d="M107.61 251.98V280.05H52.5699V251.98C54.5999 253.02 57.6699 253.93 61.4899 254.63C65.2599 261.36 72.1799 265.87 80.0799 265.87C87.9799 265.87 94.9099 261.36 98.6699 254.63C102.49 253.93 105.57 253.02 107.6 251.98H107.61Z" fill="#FF0077" stroke="black" stroke-width="4" stroke-linecap="round" stroke-linejoin="round"/>
<path d="M107.61 203.93V251.98C105.58 253.02 102.51 253.93 98.6801 254.63C100.42 251.53 101.48 247.97 101.67 244.15C101.7 243.74 101.7 243.33 101.7 242.91C101.7 230.23 92.0201 219.95 80.0801 219.95C68.1401 219.95 58.4601 230.23 58.4601 242.91C58.4601 243.33 58.4601 243.75 58.4901 244.15C58.6801 247.97 59.7501 251.53 61.4801 254.63C57.6601 253.93 54.5801 253.02 52.5601 251.98V203.93H107.6H107.61Z" fill="black" stroke="black" stroke-width="4" stroke-linecap="round" stroke-linejoin="round"/>
<path d="M101.71 242.91C101.71 243.33 101.7 243.74 101.68 244.15C101.49 247.97 100.42 251.54 98.69 254.63C94.92 261.36 88 265.87 80.1 265.87C72.2 265.87 65.27 261.36 61.51 254.63C59.77 251.54 58.71 247.96 58.52 244.15C58.5 243.73 58.49 243.32 58.49 242.9C58.49 230.22 68.17 219.94 80.11 219.94C92.05 219.94 101.73 230.22 101.73 242.9L101.71 242.91Z" fill="white" stroke="black" stroke-width="4" stroke-linecap="round" stroke-linejoin="round"/>
<path d="M438.33 323.82L500.95 432.37H417.78" stroke="black" stroke-width="4" stroke-linecap="round" stroke-linejoin="round"/>
<path d="M480.71 301.03C467 256.72 432.85 237.7 408.4 228.31C363.65 211.12 358.84 185.74 358.84 185.74C358.84 185.74 372.04 176.93 366.34 150.24C362.48 132.12 348.94 125.35 340.64 122.87C340.67 122.14 340.7 121.42 340.7 120.68C340.7 94.6601 319.61 73.5701 293.59 73.5701C272.21 73.5701 254.17 87.8201 248.41 107.33C244.6 107.02 232.74 107.18 224.54 119.91C210.35 141.94 225.89 159.39 232.88 165.63L232.51 162.27C230.97 149.14 239.25 136.59 245.39 132.33C245.39 132.33 259.43 169.91 301.88 173.68C304.16 168.5 308.51 164.35 313.92 165.6H313.99C320.7 167.14 323.7 174.47 320.22 180.41C315.09 189.08 306.93 187.18 306.93 187.18C306.93 187.18 295.52 220.88 305.34 249.41C309.99 262.91 320.59 284.39 338.21 291.45C337.39 277.27 340.79 255.76 355.36 249.07C386.01 234.98 406.72 254.44 447.48 334.48L475.2 383.97C481.67 375.22 492.42 338.88 480.71 301.04V301.03Z" fill="black" stroke="black" stroke-width="4" stroke-linecap="round" stroke-linejoin="round"/>
<path d="M438.59 320.13L374.07 356.56L341.11 297.83C330.36 278.79 335.75 255.4 353.14 245.58C370.53 235.76 393.34 243.23 404.09 262.26C404.09 262.26 439.52 321.76 438.59 320.12V320.13Z" fill="#FF0077" stroke="black" stroke-width="4" stroke-linecap="round" stroke-linejoin="round"/>
</g>
<defs>
<clipPath id="clip0_556_515">
<rect width="525.59" height="434.37" fill="white"/>
</clipPath>
</defs>
</svg>
