<svg width="448" height="336" viewBox="0 0 448 336" fill="none" xmlns="http://www.w3.org/2000/svg">
<g clip-path="url(#clip0_556_1924)">
<path d="M323.83 267.47L304.78 276.53L326.53 309.41L344.03 313.72L323.84 267.47H323.83Z" fill="white" stroke="black" stroke-width="4"/>
<path d="M172.72 277.54L161.73 258.71L121.49 310.32L132.59 317.03L172.72 277.54Z" fill="white" stroke="black" stroke-width="4"/>
<path d="M361.77 138.92C351.58 108.46 324.07 94.8701 324.07 94.8701L280.29 124.47C280.29 124.47 248.43 143.77 245.61 145.14H244.47V145.71C233.91 151.05 224.52 158.62 216.85 167.72L142.95 248.5L166.4 286.55L249.52 205.7C260.91 226.07 290.68 290.44 290.68 290.44L327.09 269.55L294.87 197.97L323.45 190.56C341.17 190.39 357.07 178.89 362.2 161.89C364.27 155.13 364.64 147.39 361.78 138.94L361.77 138.92Z" fill="black"/>
<path d="M324.07 190.38C368.32 193.14 383.82 161.35 386.25 144.78L399.05 41.2698C401.42 24.3598 388.68 8.57979 370.7 6.09979C352.72 3.61979 336.2 15.2898 333.83 32.2598L327.1 84.3998" stroke="black" stroke-width="4"/>
<path d="M133.88 333.29L68.66 332.73C67.76 332.73 66.97 332 66.97 331.04V328.84C66.97 328.16 67.36 327.54 67.98 327.26L122.09 306.8L135.68 315.03L136.58 330.48C136.69 332.06 135.45 333.35 133.87 333.3L133.88 333.29Z" fill="black"/>
<path d="M240.11 23.6802C240.11 23.6802 265.12 -10.6698 302.42 3.38017C338.71 16.9702 329.51 64.9102 329.51 64.9102L326.37 76.5202L264.44 58.8302L240.11 23.6702C234.73 13.5202 219.61 16.6802 219.61 16.6802C211.95 17.8202 205.16 24.8802 205.16 32.5402V55.6602C205.16 61.3102 209.73 65.8802 215.38 65.8802C226.81 65.8802 236.02 56.6002 236.02 45.2402" fill="black"/>
<path d="M167.31 96.0898C166.92 97.2198 166.24 99.5298 166.01 100.26C166.69 100.65 170.29 101.05 171.14 100.88C173.96 102.4 175.88 103.81 181.12 105.67C185.8 107.3 191.49 108.09 196.11 108.43C198.42 108.6 200.39 108.66 201.8 108.71C202.08 108.71 198.36 105.39 198.58 105.39L211.57 79.6198L212.75 77.5298C212.75 77.5298 230.03 86.3798 230.09 86.5498C230.26 86.8898 230.48 87.4498 230.77 88.0698C231.33 89.3698 232.24 91.1098 233.25 92.9198C234.32 94.7198 235.56 96.5798 236.97 98.0498C243.9 105.04 254.28 100.25 254.28 100.25L255.86 101.55L289.15 128.62L308.18 110.29C320.19 103.53 319.06 101.51 324.08 94.8598C326.62 91.5298 330.56 84.3798 330.56 84.3798C330.5 84.2698 306.81 24.0998 253.56 32.8398C247.25 33.4598 241.78 34.3598 237.89 35.0898C235.97 35.4798 234.4 35.7698 233.32 36.0498C232.81 36.1598 232.36 36.2798 232.14 36.3298C232.03 36.3298 231.97 36.3298 231.86 36.3898L221.21 40.4498L220.87 40.5598H220.36C220.19 40.5598 219.97 40.5598 219.63 40.6198C218.95 40.6798 218.05 40.8498 216.87 41.0098C214.5 41.3998 211.23 42.1398 207.63 43.2598C200.3 45.5698 191.96 49.6898 186.66 56.7898C181.08 64.2298 175.84 75.1098 171.95 84.2398C170.03 88.8098 168.46 92.8598 167.33 95.7998V96.0798L167.31 96.0898Z" fill="#FF0077" stroke="black" stroke-width="4"/>
<path d="M211.61 62.7302C205.96 62.7302 201.39 58.1602 201.39 52.5102V32.5502C201.39 24.8202 205.83 17.0902 214.7 13.8002C223.57 10.5102 234.66 13.5302 240.04 23.6802L232.24 45.1902C232.24 56.6202 222.96 65.8302 211.6 65.8302" fill="black"/>
<path d="M313.31 101.66C313.17 101.38 312.98 101.13 312.77 100.9C305.58 102.12 298.31 102.71 291.16 104.08C290.99 104.25 290.81 104.41 290.6 104.55C290.12 104.99 289.55 105.29 288.9 105.44C288.67 105.52 288.44 105.61 288.21 105.68C287.63 105.87 286.98 105.94 286.39 105.95C285.79 105.95 285.22 105.84 284.67 105.64L288.13 116.49C288.86 118.24 287.45 120.1 285.59 119.82C278.6 118.75 258.86 114.91 248.21 111.58C233.55 107.01 212.92 102.67 207 102.67C201.08 102.67 194.6 105.32 193.3 108.42C192 111.52 195.22 112.25 195.22 112.25C195.22 112.25 211.84 110.72 217.64 114.33C223 117.71 256.11 131.1 263.66 137.53C272.34 144.97 276.48 147.3 308.2 140.02C324.18 136.35 320.51 121.9 313.3 101.66H313.31Z" fill="white"/>
<path d="M331.26 142.48H282.56L366.47 332.9H379.6L295.75 142.48H331.26Z" fill="black"/>
<path d="M260.2 142.48H273.33L216.17 332.9H203.04L260.2 142.48Z" fill="black"/>
<path d="M213.79 75.85L201.39 69.54L207.25 87.63L213.79 75.91V75.85Z" fill="black"/>
<path d="M257.63 43.0898L252.45 71.2298C251.66 73.1498 249.12 73.4798 247.77 71.9098C245.57 69.3198 235.96 60.0298 233.71 57.9998C229.65 54.3898 237.94 46.9998 237.94 46.9998L256.43 47.6298" fill="white"/>
<path d="M257.63 43.0898L252.45 71.2298C251.66 73.1498 249.12 73.4798 247.77 71.9098C245.57 69.3198 235.96 60.0298 233.71 57.9998C229.65 54.3898 237.94 46.9998 237.94 46.9998L256.43 47.6298" stroke="black" stroke-width="4"/>
<path d="M229.37 50.6499V69.4799L223.23 62.9999C222.89 62.7199 222.67 62.3799 222.5 62.0399L229.43 50.6499H229.37Z" fill="black"/>
<path d="M233.39 57.0002V27.6401H221.83C214.44 27.6401 208.39 33.4901 208.18 40.6801V40.8101V40.9401V41.0701V57.3401C208.18 64.1301 213.76 69.7801 220.82 69.7801C227.88 69.7801 233.39 64.3602 233.39 57.5002V57.2101V57.0002Z" fill="white" stroke="black" stroke-width="4"/>
<path d="M205.15 41.6198C205.15 41.6198 214.83 37.9198 218.86 32.2798C223.03 39.5398 228.61 47.5398 236.88 55.1398C245.82 63.4798 255.3 69.1898 258.32 51.1098C261.34 33.0298 265.58 24.2198 268.47 21.7998C271.36 19.3798 240.1 23.6798 240.1 23.6798C240.1 23.6798 227.19 21.8698 220.54 22.8698C210.79 24.4198 207.57 28.1798 206.22 32.8198C205.14 36.5198 205.08 41.5598 205.08 41.5598L205.15 41.6298V41.6198Z" fill="black"/>
<path d="M186.77 99.6799L204.73 103.13L219.5 104.71L214.5 118C217.04 118 202.5 122.5 202.5 124.5C201.82 123.71 203.96 130.82 202.5 131.5L180.08 132.67L177.12 115.74L179.23 100.88L186.79 99.6699L186.77 99.6799Z" fill="white"/>
<path d="M175.54 79.35L97.07 79.53C94.25 79.42 91.83 81.9 91.55 85.17L90.2 134.82C89.97 137.53 91.78 139.89 94.09 139.89H176.9C179.94 139.89 182.42 136.96 182.31 133.35L180.84 85.38C180.73 82.05 178.47 79.4 175.65 79.29L175.54 79.35Z" fill="black"/>
<path d="M142.5 126.75L202.59 127.88C205.13 127.88 207.33 129.57 208.11 131.94L208.62 133.52H140.58L142.44 126.76H142.5V126.75Z" fill="black"/>
<path d="M70.8 142.48H57.67L95.16 332.9H108.29L70.8 142.48Z" fill="black"/>
<path d="M136.2 112.59C132.98 112.59 130.35 109.96 130.35 106.74C130.35 103.52 132.98 100.89 136.2 100.89C139.42 100.89 142.05 103.52 142.05 106.74C142.05 109.96 139.42 112.59 136.2 112.59Z" fill="white"/>
<path d="M286.82 142.91C270.3 139.91 220.36 115.4 217.65 114.33C216.18 116.3 213.08 118.9 210.1 120.19C207.45 121.31 204.91 121.6 203.32 121.66C202.51 121.69 201.95 122.49 202.2 123.26C203.13 126.11 205.02 133.72 205.02 133.72" stroke="black" stroke-width="4"/>
<path d="M286.14 107.64L288.99 115.9C289.72 117.99 287.81 120.07 285.61 119.51C275.91 117.14 215.79 103.76 215.79 103.76C204.84 101.18 198.08 99.6799 190.49 99.0099C183.65 98.3999 177.83 103.93 178.01 110.79L178.55 131.1" stroke="black" stroke-width="4" stroke-linecap="round"/>
<path d="M230.12 334.08C230.12 255.67 272.82 192.13 325.53 192.13C378.24 192.13 420.94 255.67 420.94 334.08" stroke="black" stroke-width="4"/>
<path d="M307.43 76.8002L315.05 102.99C315.05 102.99 305.77 100.71 282.5 107.44C281.03 108 279.34 107.27 278.84 105.81L268.82 70.9402C266.17 56.2702 272.43 51.5502 275.99 48.7202" stroke="black" stroke-width="4" stroke-linecap="round"/>
<path d="M203.04 100.9C189.45 101.58 193.96 113.27 195.54 119.81" stroke="black" stroke-width="4" stroke-linecap="round"/>
<path d="M342 132.9H2.87L0 145.7H345.43L341.99 132.9H342Z" fill="black"/>
<path d="M2.27002 333.41H445.76" stroke="black" stroke-width="4" stroke-linecap="round"/>
<path d="M236.88 62.6399L247.03 58.6399L244.05 49.4899L236.88 47.6299L233.45 53.3899L236.88 62.6399Z" fill="black"/>
<path d="M332.37 333.08L297.25 332.74C296.29 332.74 295.62 331.84 295.84 330.88L296.57 328.06C296.8 327.21 297.47 326.54 298.32 326.37L317.43 321.8L326.34 308.44L340.55 301.34L349.17 319.01L332.32 333.02L332.38 333.08H332.37Z" fill="black"/>
</g>
<defs>
<clipPath id="clip0_556_1924">
<rect width="447.76" height="335.41" fill="white"/>
</clipPath>
</defs>
</svg>
