<svg width="369" height="439" viewBox="0 0 369 439" fill="none" xmlns="http://www.w3.org/2000/svg">
<g clip-path="url(#clip0_556_449)">
<path d="M225.03 149.98C251.004 149.98 272.06 128.924 272.06 102.95C272.06 76.976 251.004 55.9199 225.03 55.9199C199.056 55.9199 178 76.976 178 102.95C178 128.924 199.056 149.98 225.03 149.98Z" fill="black" stroke="black" stroke-width="4" stroke-linecap="round" stroke-linejoin="round"/>
<path d="M145.96 177.23C174.143 177.23 196.99 154.383 196.99 126.2C196.99 98.0168 174.143 75.1699 145.96 75.1699C117.777 75.1699 94.9299 98.0168 94.9299 126.2C94.9299 154.383 117.777 177.23 145.96 177.23Z" fill="black" stroke="black" stroke-width="4" stroke-linecap="round" stroke-linejoin="round"/>
<path d="M203.53 88.6199C220.021 88.6199 233.39 75.2511 233.39 58.7599C233.39 42.2687 220.021 28.8999 203.53 28.8999C187.039 28.8999 173.67 42.2687 173.67 58.7599C173.67 75.2511 187.039 88.6199 203.53 88.6199Z" fill="black" stroke="black" stroke-width="4" stroke-linecap="round" stroke-linejoin="round"/>
<path d="M161.08 102.94C188.954 102.94 211.55 80.3438 211.55 52.47C211.55 24.5962 188.954 2 161.08 2C133.206 2 110.61 24.5962 110.61 52.47C110.61 80.3438 133.206 102.94 161.08 102.94Z" fill="black" stroke="black" stroke-width="4" stroke-linecap="round" stroke-linejoin="round"/>
<path d="M259.74 185.1C280.821 185.1 297.91 168.011 297.91 146.93C297.91 125.849 280.821 108.76 259.74 108.76C238.659 108.76 221.57 125.849 221.57 146.93C221.57 168.011 238.659 185.1 259.74 185.1Z" fill="black" stroke="black" stroke-width="4" stroke-linecap="round" stroke-linejoin="round"/>
<path d="M107.7 177.22C109.9 161.65 121.99 149.39 137.45 146.93L140.92 181.98C153.39 207.02 135.96 225.83 124.98 240.11L100.31 229.31" fill="white"/>
<path d="M107.7 177.22C109.9 161.65 121.99 149.39 137.45 146.93L140.92 181.98C153.39 207.02 144.71 233.09 133.73 247.38L100.32 232.1" stroke="black" stroke-width="4" stroke-linecap="round" stroke-linejoin="round"/>
<path d="M152.66 132.67L154.31 154.52L155 160.05C156 168.03 161.85 174.67 169.72 176.32C174.03 177.22 179.61 177.39 186.79 176.14C211.14 171.88 209.97 152.91 209.97 152.91L208.49 135.11L202.59 83.2399L191.56 64.6499C173.3 71.3299 170.5 48.2799 170.5 48.2799C150.93 56.4399 144.4 40.1899 144.4 40.1899C135.93 48.2999 126.14 51.0799 120.09 52.0399L122.37 72.6799L122.75 75.0999L127.31 104.8C128.32 111.34 131.13 117.17 135.18 121.86C136.25 123.1 137.39 124.26 138.62 125.33C141.13 127.51 143.95 129.33 146.99 130.71C148.45 131.37 149.97 131.94 151.53 132.39C151.91 132.51 152.29 132.6 152.66 132.7C152.76 132.73 152.86 132.75 152.95 132.77C153.35 132.87 153.76 132.96 154.16 133.04C155.05 133.22 155.96 133.38 156.87 133.48C157.21 133.52 157.54 133.55 157.88 133.58C158.21 133.61 158.55 133.64 158.88 133.65C159.99 133.72 161.1 133.73 162.22 133.69C163.53 133.64 164.85 133.52 166.18 133.31C171.08 132.56 175.57 130.8 179.47 128.28" fill="white"/>
<path d="M152.66 132.67L154.31 154.52L155 160.05C156 168.03 161.85 174.67 169.72 176.32C174.03 177.22 179.61 177.39 186.79 176.14C211.14 171.88 209.97 152.91 209.97 152.91L208.49 135.11L202.59 83.2399L191.56 64.6499C173.3 71.3299 170.5 48.2799 170.5 48.2799C150.93 56.4399 144.4 40.1899 144.4 40.1899C135.93 48.2999 126.14 51.0799 120.09 52.0399L122.37 72.6799L122.75 75.0999L127.31 104.8C128.32 111.34 131.13 117.17 135.18 121.86C136.25 123.1 137.39 124.26 138.62 125.33C141.13 127.51 143.95 129.33 146.99 130.71C148.45 131.37 149.97 131.94 151.53 132.39C151.91 132.51 152.29 132.6 152.66 132.7C152.76 132.73 152.86 132.75 152.95 132.77C153.35 132.87 153.76 132.96 154.16 133.04C155.05 133.22 155.96 133.38 156.87 133.48C157.21 133.52 157.54 133.55 157.88 133.58C158.21 133.61 158.55 133.64 158.88 133.65C159.99 133.72 161.1 133.73 162.22 133.69C163.53 133.64 164.85 133.52 166.18 133.31C171.08 132.56 175.57 130.8 179.47 128.28" stroke="black" stroke-width="4" stroke-linecap="round" stroke-linejoin="round"/>
<path d="M307.04 436.16L289.03 320.55C288.45 320.33 285.57 296.52 278.81 269.39C266.7 220.74 246.58 153.13 236.63 132.98L220.57 135.07L225.41 187.87C226.15 195.29 220.78 201.92 213.36 202.73L170.89 207.37C165.1 208.11 159.84 203.95 159.21 198.14L154.98 160.06L154.29 154.53L153.05 144.76L138.14 146.84L137.47 147.66L140.89 204.17H140.91C140.4 205.22 139.92 206.21 139.45 207.14C139.95 208.61 140.02 210.19 139.45 211.68C136.27 219.9 132.87 228.04 130.29 236.47C129.32 239.63 128.38 242.93 127.68 246.28C129.86 248.35 130.74 251.68 130.12 254.68C130.03 255.07 129.96 255.46 129.9 255.86C129.95 255.52 129.99 255.17 130.04 254.83C129.81 255.12 129.93 256.17 129.91 256.59C129.85 257.76 129.85 258.94 129.85 260.12C129.85 261.03 129.7 261.89 129.43 262.69C132.78 269.53 138.26 275.88 148.04 276.76C148.42 276.8 140.91 436.17 140.91 436.17H307.04V436.16Z" fill="#FF0077"/>
<path d="M225.06 187.44C225.76 195.01 220.27 201.75 212.71 202.61L170.89 207.36C165.1 208.1 159.83 203.94 159.21 198.13L154.98 160.05C155.99 168.03 161.83 174.67 169.7 176.32C174.01 177.22 179.59 177.4 186.77 176.14C211.12 171.88 209.95 152.91 209.95 152.91L208.47 135.11L219.92 132.99C219.92 132.99 223.23 167.58 225.06 187.45V187.44Z" fill="white" stroke="black" stroke-width="4" stroke-linecap="round" stroke-linejoin="round"/>
<path d="M100.32 232.1L77.7501 402.38C76.4501 412.16 70.0301 420.51 60.9001 424.26C48.3001 429.44 32.6001 435.93 32.6001 435.93L95.1301 436.12C99.5701 436.13 103.41 433.06 104.36 428.72C111.35 396.82 139.44 272.94 139.44 272.94" fill="white"/>
<path d="M100.32 232.1L77.7501 402.38C76.4501 412.16 70.0301 420.51 60.9001 424.26C48.3001 429.44 32.6001 435.93 32.6001 435.93L95.1301 436.12C99.5701 436.13 103.41 433.06 104.36 428.72C111.35 396.82 139.44 272.94 139.44 272.94" stroke="black" stroke-width="4" stroke-linecap="round" stroke-linejoin="round"/>
<path d="M170.89 207.37C165.1 208.11 159.84 203.95 159.21 198.14L154.98 160.06L154.29 154.53L153.05 144.76L138.14 146.84L137.47 147.66L139.94 188.35C140.58 198.86 139.49 209.4 136.72 219.55C134.64 227.18 132.15 236.25 130.17 243.38C127.15 254.2 130.61 265.99 139.43 272.95C142.02 275 144.92 276.47 148.04 276.74C148.42 276.78 140.91 436.15 140.91 436.15H232.12" stroke="black" stroke-width="4" stroke-linecap="round" stroke-linejoin="round"/>
<path d="M154.31 154.51L153.07 144.74L151.52 132.35C151.9 132.47 152.28 132.56 152.65 132.66C152.75 132.69 152.85 132.72 152.94 132.74C153.34 132.84 153.75 132.93 154.15 133.01C155.04 133.19 155.95 133.35 156.86 133.45C157.2 133.49 157.53 133.52 157.87 133.55C158.2 133.58 158.54 133.6 158.87 133.63C159.97 133.7 161.09 133.72 162.21 133.67C163.52 133.62 164.84 133.5 166.17 133.29C171.07 132.54 175.56 130.78 179.46 128.26" stroke="black" stroke-width="4"/>
<path d="M2 436.15H366.26" stroke="black" stroke-width="4" stroke-linecap="round" stroke-linejoin="round"/>
<path d="M279.26 206.76L263.46 194.83L274.82 249.36C266.51 249.73 259.17 244 257.51 235.84C251.08 204.13 236.07 130.18 236.07 130.18C248.1 129.34 260.14 132.6 270.15 139.57L307.04 170.2L279.25 206.75L279.26 206.76Z" fill="white" stroke="black" stroke-width="4" stroke-linecap="round" stroke-linejoin="round"/>
<path d="M107.7 177.22L100.32 232.1L129.1 245.26" stroke="black" stroke-width="4" stroke-linecap="round" stroke-linejoin="round"/>
<path d="M157.11 320.55H326.47V414.12C326.47 426.28 316.6 436.15 304.44 436.15H179.14C166.98 436.15 157.11 426.28 157.11 414.12V320.55Z" fill="black"/>
<path d="M326.47 320.55H346.08V326.62C346.08 330.97 342.55 334.51 338.19 334.51H326.46V320.55H326.47Z" fill="black"/>
<path d="M158 334.51H146.27C141.92 334.51 138.38 330.98 138.38 326.62V320.55H157.99V334.51H158Z" fill="black"/>
<path d="M178.38 71.2901C196.683 71.2901 211.52 59.8196 211.52 45.67C211.52 31.5205 196.683 20.05 178.38 20.05C160.077 20.05 145.24 31.5205 145.24 45.67C145.24 59.8196 160.077 71.2901 178.38 71.2901Z" fill="black" stroke="black" stroke-width="4" stroke-linecap="round" stroke-linejoin="round"/>
<path d="M127.68 56.4699C135.296 56.4699 141.47 50.2959 141.47 42.6799C141.47 35.0639 135.296 28.8899 127.68 28.8899C120.064 28.8899 113.89 35.0639 113.89 42.6799C113.89 50.2959 120.064 56.4699 127.68 56.4699Z" fill="black" stroke="black" stroke-width="4" stroke-linecap="round" stroke-linejoin="round"/>
<path d="M231.26 227.22H233C235.99 227.22 238.43 229.65 238.43 232.65V322.82H225.84V232.65C225.84 229.66 228.27 227.22 231.27 227.22H231.26Z" fill="white" stroke="black" stroke-width="4" stroke-miterlimit="10"/>
<path d="M194.72 86.9699C194.72 86.9699 202.69 88.9799 207.87 80.5899C211.39 74.8299 208.59 67.5899 202.04 65.9699H201.97C195.43 64.3299 190.34 70.8299 188.71 77.3799" fill="white"/>
<path d="M274.82 249.36L289.03 320.55" stroke="black" stroke-width="4" stroke-linecap="round" stroke-linejoin="round"/>
<path d="M342.5 241.44C357 235.75 358.85 212.82 346.82 202.92C328.3 187.68 306.85 170.21 306.85 170.21L279.25 206.76L297.4 221.14L241.79 251.2C241.79 251.2 230.1 251.55 227.73 252.16C226.15 252.57 224.73 252.94 223.65 253.23C222.36 253.58 221.28 254.47 220.7 255.68L217.74 261.81L213.72 266.15C213.05 266.88 212.92 268.03 213.46 268.9C214.24 270.17 215.49 271.7 216.91 273.25C220.53 277.19 224.74 280.5 229.41 282.89C229.44 282.9 229.46 282.92 229.49 282.93C232.67 284.54 236.39 284.65 239.69 283.31C259.99 275.05 342.49 241.44 342.49 241.44H342.5Z" fill="white" stroke="black" stroke-width="4" stroke-miterlimit="10"/>
<path d="M313.93 211.3L298.25 220.64" stroke="black" stroke-width="4" stroke-miterlimit="10" stroke-linecap="round"/>
<path d="M155.99 159.57L154.51 147.92L152.66 133.14C153.11 133.28 153.57 133.39 154.01 133.51C154.12 133.54 154.25 133.58 154.36 133.6C154.84 133.71 155.32 133.83 155.8 133.92C156.86 134.14 157.95 134.32 159.03 134.44C159.43 134.49 159.83 134.53 160.23 134.56C160.63 134.59 161.03 134.63 161.43 134.65C162.74 134.73 164.08 134.76 165.42 134.7C166.99 134.63 171.65 131.66 173.24 131.4C179.08 130.51 180.6 128.85 181.16 129.41" fill="black"/>
<path d="M194.51 308.78C194.51 298.88 188.45 298.88 188.45 288.98C188.45 279.08 194.51 279.08 194.51 269.18C194.51 259.28 188.45 259.28 188.45 249.38" stroke="black" stroke-width="4" stroke-miterlimit="10" stroke-linecap="round"/>
<path d="M183.47 308.78C183.47 298.88 177.41 298.88 177.41 288.98C177.41 279.08 183.47 279.08 183.47 269.18" stroke="black" stroke-width="4" stroke-miterlimit="10" stroke-linecap="round"/>
</g>
<defs>
<clipPath id="clip0_556_449">
<rect width="368.26" height="438.16" fill="white"/>
</clipPath>
</defs>
</svg>
