<svg width="418" height="389" viewBox="0 0 418 389" fill="none" xmlns="http://www.w3.org/2000/svg">
<path d="M2 249.109H415.5" stroke="black" stroke-width="4" stroke-linecap="round"/>
<path d="M169.9 324.709L192 322.109L191.5 341.509H169.6L169.9 324.709Z" fill="black"/>
<path d="M263.6 248.609H216.3C216.3 248.709 199 248.709 199 248.709L198.7 250.909L190 323.609H164.2L158.8 232.209C157.9 217.709 169.1 205.409 183.4 204.809H196.1" fill="white"/>
<path d="M263.6 248.609H216.3C216.3 248.709 199 248.709 199 248.709L198.7 250.909L190 323.609H164.2L158.8 232.209C157.9 217.709 169.1 205.409 183.4 204.809H196.1" stroke="black" stroke-width="4"/>
<path d="M222.5 156.209L262.4 192.109L283.7 126.109L280.7 98.5088L222.5 156.309V156.209Z" fill="black"/>
<path d="M89.2999 218.109L159.9 146.009C167.6 137.009 179.9 135.309 190.6 140.909L325.3 209.609C324.3 211.709 323.4 213.709 322.5 215.609C319.1 223.209 316.5 228.909 310.5 233.709C283.1 255.409 241.4 254.109 215.8 225.509L211.6 220.809L182.8 188.709L181.5 187.209L179.8 188.209L107.4 231.209L92.7999 220.909L89.2999 218.109Z" fill="white" stroke="black" stroke-width="4"/>
<path d="M325.3 74.1086C323.2 74.3086 321.5 74.8086 320.3 76.0086L315.4 76.4086C308.2 76.9086 301.4 80.0086 296.3 85.0086L269.8 112.209L281.2 123.409C268.3 142.509 260.5 174.509 270 194.609C281.9 219.709 296.7 229.509 309.5 234.509C368.7 187.509 361.2 131.009 342 84.5086C339.2 77.8086 332.5 73.6086 325.3 74.1086Z" fill="#FF0077" stroke="black" stroke-width="4" stroke-miterlimit="10"/>
<path d="M323.299 25.4087C321.199 15.5087 314.5 7.50869 298.5 11.1087C276.6 -3.79131 252.8 0.608695 249.5 16.9087C244.7 40.9087 271.4 52.6087 289.5 56.1087C297.6 57.7087 305.2 56.1087 311.2 52.9087C314.2 56.7087 318.8 59.1087 324 59.1087C333.1 59.1087 340.5 51.7087 340.5 42.6087C340.5 33.5087 336.299 27.9087 326.299 25.9087L323.299 25.4087Z" fill="white" stroke="black" stroke-width="4"/>
<path d="M299 56.1087L319.3 42.9087L332.7 76.4087C332.7 76.4087 329.3 87.8087 314.3 86.9087C305.7 86.4087 304.1 77.3087 304.1 77.3087L298.9 56.1087H299Z" fill="black"/>
<path d="M299.8 59.4086L304.2 77.2086C304.2 77.2086 304.8 80.7086 307.3 83.5086L314.6 65.4086L309.4 57.8086L299.8 59.4086Z" fill="black"/>
<path d="M274.9 35.1089L309.1 25.6089L316.6 52.5089C319.2 62.0089 313.7 71.7089 304.2 74.4089C294.7 77.0089 285 71.5089 282.3 62.0089L274.8 35.1089H274.9Z" fill="black"/>
<path d="M313.9 42.9085L309.7 27.7085C309.1 27.0085 308.5 26.3085 307.8 25.7085L274.8 34.8085L278.1 46.8085C295.6 55.3085 311.4 49.3085 313.9 42.7085V42.9085Z" fill="black"/>
<path d="M269.9 28.1086C270.7 21.6086 286.9 13.1087 300.5 14.2087C314.1 15.3087 319.8 25.5086 319.1 32.0086C318.3 38.5086 306.7 43.0086 293.1 41.9086C279.5 40.8086 269.1 34.6086 269.9 28.1086Z" fill="white"/>
<path d="M322.2 42.8087C322.8 38.7087 320.7 35.1087 317.7 34.7087C314.7 34.3087 311.8 37.2087 311.3 41.3087C310.7 45.4087 312.8 49.0087 315.8 49.4087C318.8 49.8087 321.7 46.9087 322.2 42.8087Z" fill="black"/>
<path d="M280.7 64.8089C283.1 64.1089 283.9 59.3088 282.5 53.9088C281.1 48.5088 278 44.6089 275.5 45.3089C273.1 46.0089 272.3 50.8089 273.7 56.2089C275.1 61.6089 278.2 65.5089 280.7 64.8089Z" fill="white" stroke="black" stroke-width="4"/>
<path d="M293.7 62.2085C297.7 61.1085 299.7 55.6085 298.2 49.7085C296.6 43.9085 292.2 40.0085 288.1 41.0085C284 42.0085 282.1 47.6085 283.6 53.5085C285.2 59.3085 289.6 63.2085 293.7 62.2085Z" fill="white" stroke="black" stroke-width="4"/>
<path d="M320.3 61.7087C319.9 61.7087 319.5 61.7087 319.1 61.7087C314 61.1087 310.2 56.4087 310.9 51.2087C311.2 48.7087 312.5 46.5087 314.4 44.9087C316.4 43.3087 318.8 42.6087 321.4 42.9087C326.5 43.5087 330.3 48.2087 329.6 53.4087C329.3 55.9087 328 58.1087 326.1 59.7087C324.4 61.0087 322.4 61.7087 320.3 61.7087Z" stroke="#FF0077" stroke-width="4" stroke-miterlimit="10"/>
<path d="M319.8 146.409L293.5 123.409L272.5 150.509L223.7 128.109C222.4 127.509 221 127.109 219.6 126.909L199 124.609C196.7 124.409 194.4 124.909 192.3 125.809L182.7 130.309C181.8 130.909 181.7 132.209 182.4 133.009C183 133.609 183.9 133.609 184.6 133.409L195.1 131.109C197.2 130.609 199.3 131.209 201.8 131.809L215.6 136.309C218.8 137.809 219.9 140.809 221.8 138.809L262.7 179.909C270.5 187.809 283.3 187.509 290.8 179.309L319.8 146.909V146.409Z" fill="black"/>
<path d="M208.7 144.509C209.5 145.709 211.1 146.109 212.3 145.409L223.4 138.909L218.4 135.609L209.5 141.009C208.3 141.809 207.9 143.309 208.7 144.509Z" fill="black"/>
<path d="M94.3999 248.709L93.7999 241.409C93.4999 238.209 91.9999 235.309 89.4999 233.209L80.3999 225.809L40.4999 241.009C38.1999 241.909 36.7 244.009 36.7 246.509V248.709H94.3999Z" fill="#FF0077" stroke="black" stroke-width="4" stroke-miterlimit="10"/>
<path d="M289 129.209L319.3 146.909L293.7 123.109L289 129.109V129.209Z" fill="black"/>
<path d="M193.6 354.009C195.2 352.909 195.6 350.809 194.6 349.209L189.2 341.609H170.9L145 376.409C143.6 378.409 143.5 381.009 144.9 383.009L146.6 385.609L193.6 354.009Z" fill="#FF0077" stroke="black" stroke-width="4" stroke-miterlimit="10"/>
<path d="M192.8 205.809L223.4 249.909H269.2L237.5 242.809L220.6 231.809L198.1 205.809H192.8Z" fill="black"/>
<path d="M301.8 109.661C308.3 102.161 319.6 101.261 327.1 107.761C334.6 114.261 335.5 125.561 329 133.061L318.2 145.761" stroke="black" stroke-width="4" stroke-miterlimit="10" stroke-linecap="round"/>
<path d="M89 215.609L79.1 224.909L93 238.109L101.8 228.609" fill="black"/>
<path d="M179.8 188.309L190.3 181.809" stroke="black" stroke-width="4" stroke-miterlimit="10" stroke-linecap="round"/>
<path d="M215.9 150.009L150.9 118.909C148.8 117.909 147.4 116.009 147 113.709L136.3 53.1089" stroke="black" stroke-width="4" stroke-miterlimit="10" stroke-linecap="round"/>
</svg>
