<svg width="709" height="691" viewBox="0 0 709 691" fill="none" xmlns="http://www.w3.org/2000/svg">
<path d="M695.998 34H127.002C121.478 34 117 38.1914 117 43.3618V422.638C117 427.809 121.478 432 127.002 432H695.998C701.522 432 706 427.809 706 422.638V43.3618C706 38.1914 701.522 34 695.998 34Z" fill="white" stroke="black" stroke-width="4" stroke-miterlimit="10"/>
<path d="M2 663.87H583.93" stroke="black" stroke-width="4" stroke-linecap="round"/>
<path d="M365.64 33.7399L393.28 6.09988C398.74 0.639883 407.59 0.639883 413.04 6.09988L440.68 33.7399" stroke="black" stroke-width="4" stroke-miterlimit="10"/>
<path d="M114.86 400H706.18V422.49C706.18 427.83 701.84 432.17 696.5 432.17H118.86C116.65 432.17 114.86 430.38 114.86 428.17V400Z" fill="black"/>
<path d="M402.6 448.25C411.481 448.25 418.68 441.051 418.68 432.17C418.68 423.289 411.481 416.09 402.6 416.09C393.72 416.09 386.52 423.289 386.52 432.17C386.52 441.051 393.72 448.25 402.6 448.25Z" fill="black"/>
<path d="M402.6 487.41C407.681 487.41 411.8 483.291 411.8 478.21C411.8 473.129 407.681 469.01 402.6 469.01C397.519 469.01 393.4 473.129 393.4 478.21C393.4 483.291 397.519 487.41 402.6 487.41Z" stroke="black" stroke-width="4" stroke-linecap="round"/>
<path d="M402.6 439.04V469.01" stroke="black" stroke-width="4" stroke-linecap="round"/>
<path d="M583.865 204.382L649.105 225.582C637.395 261.612 598.705 281.332 562.675 269.622C526.645 257.912 506.925 219.222 518.635 183.192C528.005 154.372 553.565 135.792 583.875 135.792V204.382H583.865Z" fill="black" stroke="black" stroke-width="4"/>
<path d="M583.935 204.402L538.885 256.242C551.375 267.102 567.385 273.082 583.935 273.082C621.615 273.082 652.615 242.082 652.615 204.402C652.615 166.722 621.615 135.722 583.935 135.722C583.755 135.722 583.585 135.722 583.405 135.722L583.935 204.402Z" fill="white" stroke="black" stroke-width="4"/>
<path d="M583.865 204.382V135.792C614.175 135.792 639.735 154.362 649.105 183.192L583.865 204.392V204.382Z" fill="#FF0077" stroke="black" stroke-width="4"/>
<path d="M583.935 232.872C599.658 232.872 612.405 220.126 612.405 204.402C612.405 188.679 599.658 175.932 583.935 175.932C568.211 175.932 555.465 188.679 555.465 204.402C555.465 220.126 568.211 232.872 583.935 232.872Z" fill="white" stroke="black" stroke-width="4"/>
<path d="M515.245 290.962H652.615" stroke="black" stroke-width="4"/>
<path d="M515.245 307.502H652.615" stroke="black" stroke-width="4"/>
<path d="M515.245 324.032H652.615" stroke="black" stroke-width="4"/>
<path d="M515.525 340.562H611.505" stroke="black" stroke-width="4"/>
<path d="M351.1 120H363.28C366.65 120 369.38 122.73 369.38 126.1V344.53H345V126.1C345 122.73 347.73 120 351.1 120Z" fill="#FF0077" stroke="black" stroke-width="4"/>
<path d="M392.19 246.51H404.37C407.74 246.51 410.47 249.24 410.47 252.61V344.53H386.09V252.61C386.09 249.24 388.82 246.51 392.19 246.51Z" fill="#FF0077" stroke="black" stroke-width="4"/>
<path d="M474.37 278.64H486.55C489.92 278.64 492.65 281.37 492.65 284.74V344.53H468.27V284.74C468.27 281.37 471 278.64 474.37 278.64Z" fill="#FF0077" stroke="black" stroke-width="4"/>
<path d="M433.28 212.75H445.46C448.83 212.75 451.56 215.48 451.56 218.85V344.53H427.18V218.85C427.18 215.48 429.91 212.75 433.28 212.75Z" fill="#FF0077" stroke="black" stroke-width="4"/>
<path d="M345 344.53H492.65" stroke="black" stroke-width="4"/>
<path d="M345 89H540" stroke="black" stroke-width="4" stroke-linecap="round"/>
<path d="M285.372 191.75L308.612 188.91C311.122 188.57 313.512 187.59 315.532 186.06L324.812 179.03C325.832 178.2 326.652 176.89 325.712 175.65C324.722 174.35 323.172 175.22 322.472 175.6L311.322 181.14C309.152 182.15 306.682 182.34 304.382 181.69L287.942 177.85L291.662 175.54C293.002 174.67 293.342 172.88 292.422 171.54C291.502 170.21 289.682 169.83 288.342 170.7L277.362 177.52C276.442 177.96 275.642 178.61 275.012 179.45L274.992 179.43L285.342 191.74L285.372 191.75Z" fill="black"/>
<path d="M191.682 187.83C204.876 187.83 215.572 177.134 215.572 163.94C215.572 150.746 204.876 140.05 191.682 140.05C178.488 140.05 167.792 150.746 167.792 163.94C167.792 177.134 178.488 187.83 191.682 187.83Z" fill="white" stroke="black" stroke-width="4"/>
<path d="M283.442 191.99C278.352 204.47 261.412 252.23 252.692 262.17C242.562 273.73 228.282 270.63 219.912 259.57C211.542 248.51 192.392 223.12 192.392 223.12L204.772 182.47L240.902 228.72L275.652 181.91L283.442 191.99Z" fill="#FF0077" stroke="black" stroke-width="4"/>
<path d="M138.852 228.08C104.282 238.31 89.1924 213.53 87.5024 195.28C84.3724 161.48 115.712 147.95 115.712 147.95C115.712 147.95 92.3924 129.93 110.362 112.2C119.592 103.09 141.812 104.94 141.812 104.94C141.812 104.94 148.802 80.9302 169.712 79.2302C190.622 77.5402 197.972 87.7202 201.192 94.8402C204.412 101.96 202.852 114.01 202.852 114.01L183.802 133.32L138.852 228.08Z" fill="white" stroke="black" stroke-width="4"/>
<path d="M142.002 623.94L138.762 663.9H98.5124L99.1124 659.11C99.7824 656.48 101.962 654.55 104.582 654.26L110.912 653.54L113.452 623.94H142.012H142.002Z" fill="#FF0077" stroke="black" stroke-width="4"/>
<path d="M224.252 628.32L231.812 663.91H277.572V658.43C277.572 656.23 276.002 654.36 273.882 654.06L259.492 651.99L252.982 628.33H227L224.252 628.32Z" fill="#FF0077" stroke="black" stroke-width="4"/>
<path d="M29.1124 220.47C30.1124 209.12 37.7124 199.53 48.3024 196.25L75.9424 187.71L102.332 179.52L161.622 162.01L195.752 173.53C200.702 175.2 204.672 179.04 206.612 184.02L223.132 226.42C227.192 236.84 223.852 248.06 214.062 252.98L287.252 614.25L142.112 287.16C141.392 286.04 133.652 278.31 133.652 278.31L144.792 262.92C145.942 261.33 146.082 259.23 145.162 257.49L124.112 218.05L96.1024 223.84L76.1624 227.53C74.1024 227.91 73.1124 230.29 74.3024 232.01L112.982 288.55L102.342 301.68L38.2624 244C31.7324 238.12 28.3224 229.37 29.1124 220.47Z" fill="#FF0077" stroke="black" stroke-width="4"/>
<path d="M183.412 157.55C183.412 157.55 183.412 184.73 183.412 185.85C183.412 186.97 182.502 195.16 168.922 192.55C155.342 189.94 151.412 176.16 151.412 176.16V134.82L172.292 157.56L183.402 157.54L183.412 157.55Z" fill="black"/>
<path d="M178.312 432.53L159.552 616.03H99.3624C99.3624 616.03 99.3624 465.92 99.3624 388.83C99.3624 311.73 131.892 276.54 131.892 276.54L222.182 294.14L290.192 616.04C290.192 616.04 208.822 616.15 208.802 616.04" fill="black"/>
<path d="M193.362 97.57L151.192 97L151.582 142.33C151.562 151.28 158.802 158.55 167.752 158.57L187.882 158.61C196.362 158.63 203.262 151.76 203.272 143.28L203.342 107.6C203.352 102.07 198.882 97.58 193.352 97.57H193.362Z" fill="black"/>
<path d="M200.972 104.73C200.972 104.73 200.532 111.5 190.352 106.83C180.412 102.27 180.322 97.2701 180.322 97.2701C180.322 97.2701 179.892 100.98 174.882 102.8C172.052 103.83 168.882 101.62 168.882 101.62C168.882 101.62 169.982 114.86 160.552 121.26C151.122 127.66 146.752 117.79 146.752 117.79C146.752 117.79 145.692 103.57 151.192 95.1501C156.692 86.7301 181.162 88.1301 187.572 90.3101C196.542 93.3601 200.612 99.0501 200.612 99.0501L200.972 104.74V104.73Z" fill="white"/>
<path d="M155.892 125.89C149.832 119.13 144.792 123.34 144.272 125.89C143.192 131.29 149.322 134.21 152.862 135.26C156.402 136.3 159.682 135.26 159.682 135.26L155.892 125.89Z" fill="black"/>
<path d="M202.162 137.91C198.762 137.91 195.332 133.58 195.332 125.31C195.332 117.04 198.772 112.71 202.162 112.71C205.552 112.71 208.992 117.04 208.992 125.31C208.992 133.58 205.552 137.91 202.162 137.91Z" fill="white"/>
<path d="M202.162 114.71C204.832 114.71 206.992 119.45 206.992 125.31C206.992 131.17 204.832 135.91 202.162 135.91C199.492 135.91 197.332 131.17 197.332 125.31C197.332 119.45 199.502 114.71 202.162 114.71ZM202.162 110.71C196.962 110.71 193.332 116.71 193.332 125.31C193.332 133.91 196.962 139.91 202.162 139.91C207.362 139.91 210.992 133.91 210.992 125.31C210.992 116.71 207.362 110.71 202.162 110.71Z" fill="black"/>
<path d="M111.022 291.07L112.992 288.56L116.362 293.38C118.012 295.74 119.302 298.35 120.162 301.12L123.962 313.27C124.502 314.63 123.962 316.2 122.712 316.91C121.292 317.72 119.502 317.13 118.802 315.62L114.652 306.69C114.652 306.69 112.522 311.42 110.262 317.61C107.992 323.8 105.212 335.37 105.212 335.37C105.212 335.37 101.402 335.31 102.222 329.44C103.042 323.57 105.232 305.97 105.232 305.97L102.342 301.69L111.022 291.08V291.07Z" fill="black" stroke="black" stroke-width="4"/>
<path d="M184.382 139.38C179.162 139.38 175.082 133.2 175.082 125.31C175.082 117.42 179.172 111.24 184.382 111.24C189.592 111.24 193.682 117.42 193.682 125.31C193.682 133.2 189.592 139.38 184.382 139.38Z" fill="white"/>
<path d="M184.382 113.24C188.412 113.24 191.682 118.64 191.682 125.31C191.682 131.98 188.412 137.38 184.382 137.38C180.352 137.38 177.082 131.98 177.082 125.31C177.082 118.64 180.352 113.24 184.382 113.24ZM184.382 109.24C178.042 109.24 173.082 116.3 173.082 125.31C173.082 134.32 178.042 141.38 184.382 141.38C190.722 141.38 195.682 134.32 195.682 125.31C195.682 116.3 190.722 109.24 184.382 109.24Z" fill="black"/>
<path d="M146.932 219.19L145.712 217.77C142.822 214.41 138.312 212.9 133.982 213.84L124.372 215.93L133.082 232.25L146.932 219.19Z" fill="black"/>
<path d="M178.622 411.81L182.172 360.84C182.872 350.82 191.202 343.05 201.242 343.05" stroke="white" stroke-width="4" stroke-miterlimit="10" stroke-linecap="round"/>
<path d="M222.042 627.41L216.782 607.63H249.142L254.732 627.3L222.042 627.41Z" fill="black"/>
<path d="M144 624.5L146.5 603.67L113.44 604.62L111.55 622.08L144 624.5Z" fill="black"/>
</svg>
