<svg width="448" height="647" viewBox="0 0 448 647" fill="none" xmlns="http://www.w3.org/2000/svg">
<path d="M5.11191 644.1H242.312" stroke="black" stroke-width="4" stroke-linecap="round"/>
<path d="M141.712 75.5998C141.412 62.9998 133.712 53.1998 126.112 49.8998C118.412 46.4998 92.4119 50.7998 85.3119 71.3998C78.3119 91.8998 85.3119 107.9 85.3119 107.9V139.3L103.712 147.7L118.912 131.9L119.912 112.9L110.012 110.2L117.312 112.2L129.712 115.4C134.812 116.7 139.912 113.1 140.312 107.8C141.012 97.9998 141.912 83.5998 141.712 75.6998V75.5998Z" fill="black"/>
<path d="M116.912 596.3L92.9119 600L93.8119 619.7L117.212 618.1L116.912 596.3Z" fill="black"/>
<path d="M45.8119 586.7L32.8119 617.9L60.0119 619.7L68.8119 595.2L45.8119 586.7Z" fill="black"/>
<path d="M122.912 603.8L84.1119 604.9C82.7119 604.9 81.5119 603.8 81.5119 602.4L70.8119 378.4L65.8119 363C62.6119 353.1 61.4119 342.6 62.9119 332.2C64.4119 321.8 70.3119 314.3 72.8119 307.3L80.1119 298.3L125.512 309.9V601.1C125.512 602.5 124.412 603.6 123.012 603.7L122.912 603.8Z" fill="white" stroke="black" stroke-width="4" stroke-miterlimit="10"/>
<path d="M94.8119 307.9L97.8119 295.3L182.712 299L65.6119 598L19.7119 585C19.0119 584.8 18.7119 584.1 18.9119 583.4L92.4119 364.6C87.6119 354.6 86.4119 343.3 89.0119 332.6" fill="white"/>
<path d="M94.8119 307.9L97.8119 295.3L182.712 299L65.6119 598L19.7119 585C19.0119 584.8 18.7119 584.1 18.9119 583.4L92.4119 364.6C87.6119 354.6 86.4119 343.3 89.0119 332.6" stroke="black" stroke-width="4" stroke-miterlimit="10" stroke-linecap="round"/>
<path d="M159.712 638.9C159.612 636.3 157.812 634.1 155.312 633.3L115.412 618.2H95.8119L95.1119 644.2H160.012L159.712 639V638.9Z" fill="#FF0077" stroke="black" stroke-width="4" stroke-miterlimit="10"/>
<path d="M90.9119 632.5L78.8119 629C76.7119 628.4 74.9119 627 73.8119 625.1L62.3119 610.9L42.0119 601.1L31.8119 625.1L65.3119 644.3H93.9119L94.8119 638.9C95.3119 636.1 93.6119 633.4 90.9119 632.7V632.5Z" fill="#FF0077" stroke="black" stroke-width="4" stroke-miterlimit="10"/>
<path d="M233.712 126C232.112 126 230.612 125.3 229.412 124C227.812 122.3 227.612 120.5 227.812 119.4C228.112 116.5 230.612 114.6 231.712 113.8L271.612 87.4001L279.212 86.1001L276.212 93.7001L239.512 123.6C237.512 125.2 235.612 126 233.912 126H233.712Z" fill="#FF0077"/>
<path d="M275.912 88.6L274.412 92.4L238.112 121.9C237.012 122.8 235.412 123.8 233.712 123.8C232.012 123.8 231.712 123.4 230.812 122.4C228.112 119.5 230.612 116.6 232.712 115.2L272.212 89L275.812 88.4M282.212 83.5L275.212 84.7L271.612 85.3H270.812C270.812 85.4 270.112 85.9 270.112 85.9L230.612 112.1C229.312 113 226.312 115.4 225.812 119.1C225.612 120.7 225.812 123 228.012 125.3C229.612 127 231.612 128 233.812 128C236.012 128 238.312 127.1 240.712 125.2L277.012 95.6L277.812 94.9L278.212 93.9L279.712 90.1L282.312 83.5H282.212Z" fill="black"/>
<path d="M99.1119 267.1L81.3119 287.4C79.7119 289.2 77.5119 290.2 75.1119 290.2H74.7119C73.0119 290.2 71.4119 289.7 70.0119 288.8L5.1119 246.6C0.111904 243.3 -1.48809 236.7 1.51191 231.5L26.6119 179.3L60.0119 193L30.1119 233.4L77.3119 273.9L91.3119 264.1C92.7119 263.1 94.3119 262.7 96.0119 262.9L97.5119 263.1C99.5119 263.3 100.312 265.7 99.0119 267.1H99.1119Z" fill="black"/>
<path d="M194.612 156.5L216.412 171.6L245.912 128.9C247.212 127 247.812 124.7 247.712 122.5L246.612 103.5C246.412 100.5 247.612 97.5001 249.912 95.5001C252.212 93.5001 256.812 89.4001 258.612 88.3001C261.612 86.5001 263.212 90.6001 263.212 90.6001C263.212 90.6001 265.812 88.4001 267.812 90.0001C269.812 91.6001 268.712 93.7001 268.712 93.7001C268.712 93.7001 273.212 92.7001 272.912 97.1001C274.112 96.8001 276.312 99.0001 275.112 101.1C273.912 103.2 269.912 105.5 269.912 105.5L268.212 123.8C268.012 126 267.312 128.2 266.212 130.2L228.012 198.9C225.112 204.1 218.512 206 213.312 203L175.412 183.7L194.812 156.7L194.612 156.5Z" fill="black"/>
<path d="M130.112 48.7999C117.612 36.5999 87.2119 36.0998 76.4119 48.7998C65.7119 61.4998 66.9119 72.7999 66.9119 72.7999C66.9119 72.7999 62.6119 93.8998 77.6119 104.7C87.5119 111.8 90.8119 112.1 93.5119 109.9C95.7119 108.2 105.812 92.9999 110.012 86.5999C109.212 82.7999 110.612 79.1999 113.312 78.3999C116.312 77.4999 119.712 79.9999 120.912 84.0999C121.112 84.7999 121.212 85.3999 121.312 85.9999L122.312 86.1999C125.112 84.8999 126.912 82.0999 126.912 78.9999V73.9999L132.912 66.0998C136.212 61.7998 136.112 56.0999 132.912 52.0999L130.112 48.7999Z" fill="white" stroke="black" stroke-width="4" stroke-miterlimit="10"/>
<path d="M191.912 156.9L156.912 132.2C150.412 127.9 142.412 126.5 134.712 128.2L59.1119 145C51.0119 146.8 44.0119 152 40.0119 159.3L28.4119 180.2C27.6119 181.6 28.4119 183.3 29.8119 183.7L60.0119 193.1L77.4119 229.2C80.5119 235.7 85.2119 246.1 91.3119 250.1C115.212 265.5 98.8119 255 98.8119 255C98.8119 255 92.0119 253 89.9119 258.6C88.8119 261.7 91.4119 264.3 91.4119 264.3L72.3119 301.8C71.0119 304.4 72.6119 307.6 75.5119 308.1C81.2119 309.1 92.1119 310.2 111.512 310.2C130.912 310.2 170.612 306.8 184.512 305.3C188.112 304.9 190.712 301.5 190.212 297.9L174.012 183.6L191.912 157.1V156.9Z" fill="#FF0077" stroke="black" stroke-width="4" stroke-miterlimit="10"/>
<path d="M53.0119 90.7001C71.1269 90.7001 85.8119 76.015 85.8119 57.9001C85.8119 39.7852 71.1269 25.1001 53.0119 25.1001C34.897 25.1001 20.2119 39.7852 20.2119 57.9001C20.2119 76.015 34.897 90.7001 53.0119 90.7001Z" fill="white" stroke="black" stroke-width="4" stroke-miterlimit="10"/>
<path d="M151.012 332L145.612 346.7C141.112 358.9 129.512 367 116.512 367H109.012" stroke="black" stroke-width="4" stroke-miterlimit="10" stroke-linecap="round"/>
<path d="M151.012 229.9C151.012 229.9 151.412 267.2 107.412 286.8Z" fill="#FF0077"/>
<path d="M151.012 229.9C151.012 229.9 151.412 267.2 107.412 286.8" stroke="black" stroke-width="4" stroke-miterlimit="10" stroke-linecap="round"/>
<path d="M286.112 82.3001C291.912 93.3001 299.012 104.1 309.012 111.8C318.412 119.1 330.612 121.9 342.312 121.6C350.412 121.4 358.612 119.8 365.612 115.6C379.812 107.2 387.012 90.2001 392.512 75.4001C398.712 58.5001 403.212 40.7001 413.712 25.8001L414.012 25.4001C419.012 18.3001 425.912 12.7001 434.812 12.1001" stroke="black" stroke-width="4" stroke-linecap="round"/>
<path d="M436.212 21.4C441.569 21.4 445.912 17.0572 445.912 11.7C445.912 6.34283 441.569 2 436.212 2C430.855 2 426.512 6.34283 426.512 11.7C426.512 17.0572 430.855 21.4 436.212 21.4Z" fill="white" stroke="black" stroke-width="4" stroke-miterlimit="10"/>
<path d="M351.612 130.5C356.969 130.5 361.312 126.157 361.312 120.8C361.312 115.443 356.969 111.1 351.612 111.1C346.255 111.1 341.912 115.443 341.912 120.8C341.912 126.157 346.255 130.5 351.612 130.5Z" fill="white" stroke="black" stroke-width="4" stroke-miterlimit="10"/>
</svg>
