<svg viewBox="0 0 320 180" xmlns="http://www.w3.org/2000/svg">
  <rect width="320" height="180" fill="#111111"/>
  <text x="16" y="22" font-family="system-ui,sans-serif" font-size="10" font-weight="600" fill="rgba(255,255,255,0.35)" letter-spacing="1.5">SCATTER PLOT</text>
  <!-- Grid -->
  <line x1="40" y1="35" x2="300" y2="35" stroke="rgba(255,255,255,0.06)" stroke-width="1"/>
  <line x1="40" y1="65" x2="300" y2="65" stroke="rgba(255,255,255,0.06)" stroke-width="1"/>
  <line x1="40" y1="95" x2="300" y2="95" stroke="rgba(255,255,255,0.06)" stroke-width="1"/>
  <line x1="40" y1="125" x2="300" y2="125" stroke="rgba(255,255,255,0.06)" stroke-width="1"/>
  <line x1="40"  y1="30" x2="40"  y2="130" stroke="rgba(255,255,255,0.06)" stroke-width="1"/>
  <line x1="105" y1="30" x2="105" y2="130" stroke="rgba(255,255,255,0.06)" stroke-width="1"/>
  <line x1="170" y1="30" x2="170" y2="130" stroke="rgba(255,255,255,0.06)" stroke-width="1"/>
  <line x1="235" y1="30" x2="235" y2="130" stroke="rgba(255,255,255,0.06)" stroke-width="1"/>
  <line x1="300" y1="30" x2="300" y2="130" stroke="rgba(255,255,255,0.06)" stroke-width="1"/>
  <!-- Pink dots -->
  <circle cx="65"  cy="108" r="7"   fill="#FF0077" opacity="0.85"/>
  <circle cx="90"  cy="72"  r="5"   fill="#FF0077" opacity="0.85"/>
  <circle cx="130" cy="90"  r="9"   fill="#FF0077" opacity="0.85"/>
  <circle cx="155" cy="48"  r="5.5" fill="#FF0077" opacity="0.85"/>
  <circle cx="185" cy="65"  r="7"   fill="#FF0077" opacity="0.85"/>
  <circle cx="210" cy="38"  r="4.5" fill="#FF0077" opacity="0.85"/>
  <circle cx="250" cy="55"  r="8"   fill="#FF0077" opacity="0.85"/>
  <circle cx="275" cy="80"  r="5"   fill="#FF0077" opacity="0.85"/>
  <!-- White dots -->
  <circle cx="55"  cy="55"  r="5"   fill="rgba(255,255,255,0.6)"/>
  <circle cx="110" cy="100" r="7"   fill="rgba(255,255,255,0.6)"/>
  <circle cx="145" cy="115" r="4.5" fill="rgba(255,255,255,0.6)"/>
  <circle cx="195" cy="95"  r="6"   fill="rgba(255,255,255,0.6)"/>
  <circle cx="230" cy="70"  r="5.5" fill="rgba(255,255,255,0.6)"/>
  <circle cx="265" cy="45"  r="4"   fill="rgba(255,255,255,0.6)"/>
  <!-- Axes -->
  <line x1="40" y1="130" x2="300" y2="130" stroke="rgba(255,255,255,0.15)" stroke-width="1"/>
  <line x1="40" y1="30"  x2="40"  y2="130" stroke="rgba(255,255,255,0.15)" stroke-width="1"/>
  <!-- Pink bottom accent -->
  <rect x="0" y="170" width="320" height="3" fill="#FF0077"/>
</svg>
