<svg width="264" height="82" viewBox="0 0 264 82" fill="none" xmlns="http://www.w3.org/2000/svg">
<path fill-rule="evenodd" clip-rule="evenodd" d="M264 62.4578C264 50.4053 258.409 44.8081 246.351 44.8081C234.293 44.8081 228.702 50.4053 228.702 62.4578C228.702 74.5102 234.293 80.1075 246.351 80.1075C258.409 80.1075 264 74.5102 264 62.4578Z" fill="#FF0077"/>
<path fill-rule="evenodd" clip-rule="evenodd" d="M202.409 79.6903H219.937V2.48267H202.409V79.6903Z" fill="white"/>
<path fill-rule="evenodd" clip-rule="evenodd" d="M170.974 79.6903H150.907L135.999 28.2204L120.933 79.6903H101.041L77.2075 2.48267H96.9197L97.0057 2.79888L111.134 54.9096L125.85 2.48267H146.185L161.29 55.0638L175.462 2.48267H194.897L170.974 79.6903Z" fill="white"/>
<path fill-rule="evenodd" clip-rule="evenodd" d="M37.3965 81.3595C26.0647 81.3595 16.8939 77.7356 10.1373 70.589C3.40793 63.3571 0 53.5397 0 41.4001C0 29.3843 3.6764 19.5229 10.9281 12.0904C18.2119 4.60771 27.8673 0.813232 39.6266 0.813232C54.8588 0.813232 67.0016 7.65866 73.8203 20.0882L74.4688 21.2706L61.4835 31.8385L60.5038 30.3445C55.3092 22.4173 48.2563 18.3978 39.5416 18.3978C32.9405 18.3978 27.6483 20.4809 23.8136 24.5898C19.8904 28.7924 17.9831 34.2577 17.9831 41.296C17.9831 48.2351 19.8576 53.7486 23.5528 57.6849C27.2829 61.6576 32.4021 63.6716 38.7682 63.6716C46.1426 63.6716 52.7388 60.1014 57.4236 53.597H39.9879V36.9565H76.7903V79.8928H62.0428V70.1522C59.1858 73.6175 55.7388 76.3324 51.7807 78.2303C47.4529 80.3071 42.6134 81.3595 37.3965 81.3595" fill="white"/>
</svg>
