<svg width="264" height="81" viewBox="0 0 264 81" fill="none" xmlns="http://www.w3.org/2000/svg">
<path fill-rule="evenodd" clip-rule="evenodd" d="M263.42 61.5091C263.42 49.4831 257.841 43.8982 245.809 43.8982C233.778 43.8982 228.199 49.4831 228.199 61.5091C228.199 73.535 233.778 79.12 245.809 79.12C257.841 79.12 263.42 73.535 263.42 61.5091Z" fill="#FF0077"/>
<path fill-rule="evenodd" clip-rule="evenodd" d="M201.964 78.7036H219.454V1.66565H201.964V78.7036Z" fill="black"/>
<path fill-rule="evenodd" clip-rule="evenodd" d="M170.598 78.7036H150.575L135.7 27.3468L120.668 78.7036H100.82L77.038 1.66565H96.7068L96.7926 1.98116L110.89 53.9773L125.573 1.66565H145.864L160.936 54.1312L175.076 1.66565H194.469L170.598 78.7036Z" fill="black"/>
<path fill-rule="evenodd" clip-rule="evenodd" d="M37.3143 80.3693C26.0074 80.3693 16.8568 76.7533 10.115 69.6224C3.40044 62.4064 0 52.6106 0 40.4977C0 28.5083 3.66832 18.6685 10.9041 11.2524C18.1718 3.78614 27.8061 0 39.5396 0C54.7382 0 66.8544 6.83039 73.658 19.2326L74.3051 20.4124L61.3484 30.9571L60.3708 29.4663C55.1877 21.5566 48.1502 17.5459 39.4547 17.5459C32.8681 17.5459 27.5876 19.6245 23.7613 23.7244C19.8467 27.9177 17.9436 33.371 17.9436 40.3938C17.9436 47.3176 19.814 52.819 23.5011 56.7467C27.223 60.7107 32.3309 62.7202 38.683 62.7202C46.0412 62.7202 52.6229 59.1579 57.2974 52.6677H39.9V36.0638H76.6215V78.9057H61.9065V69.1866C59.0557 72.6443 55.6163 75.3532 51.6669 77.2469C47.3487 79.3192 42.5197 80.3693 37.3143 80.3693" fill="black"/>
</svg>
